	.include "MPlayDef.s"

	.equ	DarkWastes_grp, voicegroup000
	.equ	DarkWastes_pri, 0
	.equ	DarkWastes_rev, 0
	.equ	DarkWastes_mvl, 67
	.equ	DarkWastes_key, 0
	.equ	DarkWastes_tbs, 1
	.equ	DarkWastes_exg, 0
	.equ	DarkWastes_cmp, 1

	.section .rodata
	.global	DarkWastes
	.align	2

@**************** Track 1 (Midi-Chn.1) ****************@

DarkWastes_1:
	.byte	KEYSH , DarkWastes_key+0
@ 000   ----------------------------------------
	.byte	TEMPO , 156*DarkWastes_tbs/2
	.byte		VOICE , 73
	.byte		VOL   , 127*DarkWastes_mvl/mxv
	.byte		PAN   , c_v+0
	.byte	W72
@ 001   ----------------------------------------
	.byte	W72
@ 002   ----------------------------------------
	.byte	W72
@ 003   ----------------------------------------
	.byte	W72
@ 004   ----------------------------------------
	.byte	W72
@ 005   ----------------------------------------
	.byte	W72
@ 006   ----------------------------------------
	.byte	W72
@ 007   ----------------------------------------
	.byte	W72
@ 008   ----------------------------------------
	.byte	W72
@ 009   ----------------------------------------
	.byte	W72
@ 010   ----------------------------------------
	.byte	W72
@ 011   ----------------------------------------
	.byte	W72
@ 012   ----------------------------------------
	.byte	W72
@ 013   ----------------------------------------
	.byte	W72
@ 014   ----------------------------------------
	.byte	W72
@ 015   ----------------------------------------
	.byte	W72
@ 016   ----------------------------------------
	.byte	W72
@ 017   ----------------------------------------
	.byte	W72
@ 018   ----------------------------------------
	.byte	W72
@ 019   ----------------------------------------
	.byte	W72
@ 020   ----------------------------------------
	.byte	W72
@ 021   ----------------------------------------
	.byte	W72
@ 022   ----------------------------------------
	.byte	W72
@ 023   ----------------------------------------
	.byte	W72
@ 024   ----------------------------------------
	.byte	W72
@ 025   ----------------------------------------
	.byte	W72
@ 026   ----------------------------------------
	.byte	W72
@ 027   ----------------------------------------
	.byte	W72
@ 028   ----------------------------------------
	.byte	W72
@ 029   ----------------------------------------
	.byte	W72
@ 030   ----------------------------------------
	.byte	W72
@ 031   ----------------------------------------
	.byte	W72
@ 032   ----------------------------------------
	.byte	W72
@ 033   ----------------------------------------
	.byte	W72
@ 034   ----------------------------------------
	.byte	W72
@ 035   ----------------------------------------
	.byte	W72
@ 036   ----------------------------------------
	.byte	W72
@ 037   ----------------------------------------
	.byte	W72
@ 038   ----------------------------------------
	.byte	W72
@ 039   ----------------------------------------
	.byte	W72
@ 040   ----------------------------------------
	.byte	W72
@ 041   ----------------------------------------
	.byte	W72
@ 042   ----------------------------------------
	.byte	W72
@ 043   ----------------------------------------
	.byte	W72
@ 044   ----------------------------------------
	.byte	W72
@ 045   ----------------------------------------
	.byte	W72
@ 046   ----------------------------------------
	.byte	W72
@ 047   ----------------------------------------
	.byte	W72
@ 048   ----------------------------------------
	.byte	W72
@ 049   ----------------------------------------
	.byte	W72
@ 050   ----------------------------------------
	.byte	W72
@ 051   ----------------------------------------
	.byte	W72
@ 052   ----------------------------------------
	.byte	W72
@ 053   ----------------------------------------
	.byte	W72
@ 054   ----------------------------------------
DarkWastes_1_054:
	.byte		N03   , Dn4 , v080
	.byte	W04
	.byte		TIE   , En4 
	.byte	W68
	.byte	PEND
@ 055   ----------------------------------------
	.byte	W72
@ 056   ----------------------------------------
	.byte	W60
	.byte	W01
	.byte		EOT   
	.byte	W11
@ 057   ----------------------------------------
DarkWastes_1_057:
	.byte		N03   , Cn4 , v080
	.byte	W04
	.byte		N64   , Dn4 
	.byte	W68
	.byte	PEND
@ 058   ----------------------------------------
	.byte	PATT
	 .word	DarkWastes_1_054
@ 059   ----------------------------------------
	.byte	W72
@ 060   ----------------------------------------
	.byte	W60
	.byte	W01
	.byte		EOT   , En4 
	.byte	W11
@ 061   ----------------------------------------
DarkWastes_1_061:
	.byte		N32   , Dn4 , v080
	.byte	W36
	.byte		N11   , Gn4 
	.byte	W12
	.byte		N05   , An4 
	.byte	W06
	.byte		        Gn4 
	.byte	W06
	.byte		        Fs4 
	.byte	W06
	.byte		        Gn4 
	.byte	W06
	.byte	PEND
@ 062   ----------------------------------------
	.byte		N80   , An4 
	.byte	W72
@ 063   ----------------------------------------
DarkWastes_1_063:
	.byte	W24
	.byte		TIE   , An4 , v080
	.byte	W48
	.byte	PEND
@ 064   ----------------------------------------
	.byte	W64
	.byte	W01
	.byte		EOT   
	.byte	W07
@ 065   ----------------------------------------
DarkWastes_1_065:
	.byte		N03   , Fs4 , v080
	.byte	W04
	.byte		N30   , Gn4 
	.byte	W32
	.byte		N32   , Dn4 
	.byte	W36
	.byte	PEND
@ 066   ----------------------------------------
DarkWastes_1_066:
	.byte		N03   , Gn4 , v080
	.byte	W04
	.byte		N72   , An4 
	.byte	W68
	.byte	PEND
@ 067   ----------------------------------------
	.byte	PATT
	 .word	DarkWastes_1_063
@ 068   ----------------------------------------
	.byte	W64
	.byte	W01
	.byte		EOT   , An4 
	.byte	W07
@ 069   ----------------------------------------
DarkWastes_1_069:
	.byte		N03   , Fs4 , v080
	.byte	W04
	.byte		N30   , Gn4 
	.byte	W32
	.byte		N44   , Cn5 
	.byte	W36
	.byte	PEND
@ 070   ----------------------------------------
DarkWastes_1_070:
	.byte	W24
	.byte		N11   , En4 , v080
	.byte	W12
	.byte		N11   
	.byte	W12
	.byte		        Dn4 
	.byte	W12
	.byte		        Gn4 
	.byte	W12
	.byte	PEND
@ 071   ----------------------------------------
	.byte		TIE   , En4 
	.byte	W72
@ 072   ----------------------------------------
	.byte	W72
@ 073   ----------------------------------------
	.byte	W60
	.byte	W01
	.byte		EOT   
	.byte	W11
@ 074   ----------------------------------------
	.byte	PATT
	 .word	DarkWastes_1_054
@ 075   ----------------------------------------
	.byte	W42
	.byte		EOT   , En4 
	.byte	W06
	.byte		N11   , Dn4 , v080
	.byte	W12
	.byte		        Cn4 
	.byte	W12
@ 076   ----------------------------------------
DarkWastes_1_076:
	.byte		N03   , Cn4 , v080
	.byte	W04
	.byte		N64   , Bn3 
	.byte	W68
	.byte	PEND
@ 077   ----------------------------------------
	.byte		N68   , Gn3 
	.byte	W72
@ 078   ----------------------------------------
	.byte	PATT
	 .word	DarkWastes_1_070
@ 079   ----------------------------------------
	.byte		TIE   , En4 , v080
	.byte	W72
@ 080   ----------------------------------------
	.byte	W72
@ 081   ----------------------------------------
	.byte	W60
	.byte	W01
	.byte		EOT   
	.byte	W11
@ 082   ----------------------------------------
DarkWastes_1_082:
	.byte		N03   , An4 , v080
	.byte	W04
	.byte		TIE   , Bn4 
	.byte	W68
	.byte	PEND
@ 083   ----------------------------------------
	.byte	W30
	.byte		EOT   
	.byte	W06
	.byte		N11   , Cn5 
	.byte	W12
	.byte		N03   
	.byte	W04
	.byte		N07   , Bn4 
	.byte	W08
	.byte		N11   , Gn4 
	.byte	W12
@ 084   ----------------------------------------
DarkWastes_1_084:
	.byte		N11   , En4 , v080
	.byte	W12
	.byte		N56   
	.byte	W60
	.byte	PEND
@ 085   ----------------------------------------
DarkWastes_1_085:
	.byte		N11   , Dn4 , v080
	.byte	W12
	.byte		N56   
	.byte	W60
	.byte	PEND
@ 086   ----------------------------------------
	.byte	PATT
	 .word	DarkWastes_1_070
@ 087   ----------------------------------------
	.byte		TIE   , En4 , v080
	.byte	W72
@ 088   ----------------------------------------
	.byte	W72
@ 089   ----------------------------------------
	.byte	W60
	.byte	W01
	.byte		EOT   
	.byte	W11
@ 090   ----------------------------------------
DarkWastes_1_090:
	.byte		N03   , Gn4 , v080
	.byte	W04
	.byte		N40   , An4 
	.byte	W44
	.byte		N44   
	.byte	W24
	.byte	PEND
@ 091   ----------------------------------------
DarkWastes_1_091:
	.byte	W24
	.byte		N03   , Gn4 , v080
	.byte	W04
	.byte		N18   , An4 
	.byte	W20
	.byte		N03   
	.byte	W04
	.byte		N07   , Gn4 
	.byte	W08
	.byte		N11   , An4 
	.byte	W12
	.byte	PEND
@ 092   ----------------------------------------
	.byte		N68   , Bn4 
	.byte	W72
@ 093   ----------------------------------------
DarkWastes_1_093:
	.byte		N11   , En4 , v080
	.byte	W12
	.byte		N22   
	.byte	W24
	.byte		N11   , Dn4 
	.byte	W12
	.byte		N22   
	.byte	W24
	.byte	PEND
@ 094   ----------------------------------------
	.byte	PATT
	 .word	DarkWastes_1_070
@ 095   ----------------------------------------
	.byte		TIE   , En4 , v080
	.byte	W72
@ 096   ----------------------------------------
	.byte	W72
@ 097   ----------------------------------------
	.byte	W60
	.byte	W01
	.byte		EOT   
	.byte	W11
@ 098   ----------------------------------------
	.byte	PATT
	 .word	DarkWastes_1_090
@ 099   ----------------------------------------
DarkWastes_1_099:
	.byte	W24
	.byte		N03   , Gn4 , v080
	.byte	W04
	.byte		N07   , An4 
	.byte	W08
	.byte		N03   , Cn5 
	.byte	W04
	.byte		N07   , An4 
	.byte	W08
	.byte		N11   , Gn4 
	.byte	W12
	.byte		        An4 
	.byte	W12
	.byte	PEND
@ 100   ----------------------------------------
DarkWastes_1_100:
	.byte		N03   , As4 , v080
	.byte	W04
	.byte		N64   , Cn5 
	.byte	W68
	.byte	PEND
@ 101   ----------------------------------------
	.byte		N68   , As4 
	.byte	W72
@ 102   ----------------------------------------
	.byte	W72
@ 103   ----------------------------------------
	.byte	W72
@ 104   ----------------------------------------
	.byte	W72
@ 105   ----------------------------------------
	.byte	W72
@ 106   ----------------------------------------
	.byte	W72
@ 107   ----------------------------------------
	.byte	W72
@ 108   ----------------------------------------
	.byte	W72
@ 109   ----------------------------------------
	.byte	W72
@ 110   ----------------------------------------
	.byte	W72
@ 111   ----------------------------------------
	.byte	W72
@ 112   ----------------------------------------
	.byte	W72
@ 113   ----------------------------------------
	.byte	W72
@ 114   ----------------------------------------
	.byte	W72
@ 115   ----------------------------------------
	.byte	W72
@ 116   ----------------------------------------
	.byte	W72
@ 117   ----------------------------------------
	.byte	W72
@ 118   ----------------------------------------
	.byte	W72
@ 119   ----------------------------------------
	.byte	W72
@ 120   ----------------------------------------
	.byte	W72
@ 121   ----------------------------------------
	.byte	W72
@ 122   ----------------------------------------
	.byte	W72
@ 123   ----------------------------------------
	.byte	W72
@ 124   ----------------------------------------
	.byte	W72
@ 125   ----------------------------------------
	.byte	W72
@ 126   ----------------------------------------
	.byte	W72
@ 127   ----------------------------------------
	.byte	W72
@ 128   ----------------------------------------
	.byte	W72
@ 129   ----------------------------------------
	.byte	W72
@ 130   ----------------------------------------
	.byte	W72
@ 131   ----------------------------------------
	.byte	W72
@ 132   ----------------------------------------
	.byte	W72
@ 133   ----------------------------------------
	.byte	W72
@ 134   ----------------------------------------
	.byte	W72
@ 135   ----------------------------------------
	.byte	W72
@ 136   ----------------------------------------
	.byte	W72
@ 137   ----------------------------------------
	.byte	W72
@ 138   ----------------------------------------
	.byte	W72
@ 139   ----------------------------------------
	.byte	W72
@ 140   ----------------------------------------
	.byte	W72
@ 141   ----------------------------------------
	.byte	W72
@ 142   ----------------------------------------
	.byte	W72
@ 143   ----------------------------------------
	.byte	W72
@ 144   ----------------------------------------
	.byte	W72
@ 145   ----------------------------------------
	.byte	W72
@ 146   ----------------------------------------
	.byte	W72
@ 147   ----------------------------------------
	.byte	W72
@ 148   ----------------------------------------
	.byte	W72
@ 149   ----------------------------------------
	.byte	W72
@ 150   ----------------------------------------
	.byte	W72
@ 151   ----------------------------------------
	.byte	W72
@ 152   ----------------------------------------
	.byte	W72
@ 153   ----------------------------------------
	.byte	W72
@ 154   ----------------------------------------
	.byte	W72
@ 155   ----------------------------------------
	.byte	W72
@ 156   ----------------------------------------
	.byte	W72
@ 157   ----------------------------------------
	.byte	W72
@ 158   ----------------------------------------
	.byte	W72
@ 159   ----------------------------------------
	.byte	W72
@ 160   ----------------------------------------
	.byte	W72
@ 161   ----------------------------------------
	.byte	W72
@ 162   ----------------------------------------
	.byte	W72
@ 163   ----------------------------------------
	.byte	W72
@ 164   ----------------------------------------
	.byte	W72
@ 165   ----------------------------------------
	.byte	W72
@ 166   ----------------------------------------
	.byte	W72
@ 167   ----------------------------------------
	.byte	W72
@ 168   ----------------------------------------
	.byte	W72
@ 169   ----------------------------------------
	.byte	W72
@ 170   ----------------------------------------
	.byte	W72
@ 171   ----------------------------------------
	.byte	W72
@ 172   ----------------------------------------
	.byte	PATT
	 .word	DarkWastes_1_054
@ 173   ----------------------------------------
	.byte	W72
@ 174   ----------------------------------------
	.byte	W60
	.byte	W01
	.byte		EOT   , En4 
	.byte	W11
@ 175   ----------------------------------------
	.byte	PATT
	 .word	DarkWastes_1_057
@ 176   ----------------------------------------
	.byte	PATT
	 .word	DarkWastes_1_054
@ 177   ----------------------------------------
	.byte	W72
@ 178   ----------------------------------------
	.byte	W60
	.byte	W01
	.byte		EOT   , En4 
	.byte	W11
@ 179   ----------------------------------------
	.byte	PATT
	 .word	DarkWastes_1_061
@ 180   ----------------------------------------
	.byte		N80   , An4 , v080
	.byte	W72
@ 181   ----------------------------------------
	.byte	PATT
	 .word	DarkWastes_1_063
@ 182   ----------------------------------------
	.byte	W64
	.byte	W01
	.byte		EOT   , An4 
	.byte	W07
@ 183   ----------------------------------------
	.byte	PATT
	 .word	DarkWastes_1_065
@ 184   ----------------------------------------
	.byte	PATT
	 .word	DarkWastes_1_066
@ 185   ----------------------------------------
	.byte	PATT
	 .word	DarkWastes_1_063
@ 186   ----------------------------------------
	.byte	W64
	.byte	W01
	.byte		EOT   , An4 
	.byte	W07
@ 187   ----------------------------------------
	.byte	PATT
	 .word	DarkWastes_1_069
@ 188   ----------------------------------------
	.byte	PATT
	 .word	DarkWastes_1_070
@ 189   ----------------------------------------
	.byte		TIE   , En4 , v080
	.byte	W72
@ 190   ----------------------------------------
	.byte	W72
@ 191   ----------------------------------------
	.byte	W60
	.byte	W01
	.byte		EOT   
	.byte	W11
@ 192   ----------------------------------------
	.byte	PATT
	 .word	DarkWastes_1_054
@ 193   ----------------------------------------
	.byte	W42
	.byte		EOT   , En4 
	.byte	W06
	.byte		N11   , Dn4 , v080
	.byte	W12
	.byte		        Cn4 
	.byte	W12
@ 194   ----------------------------------------
	.byte	PATT
	 .word	DarkWastes_1_076
@ 195   ----------------------------------------
	.byte		N68   , Gn3 , v080
	.byte	W72
@ 196   ----------------------------------------
	.byte	PATT
	 .word	DarkWastes_1_070
@ 197   ----------------------------------------
	.byte		TIE   , En4 , v080
	.byte	W72
@ 198   ----------------------------------------
	.byte	W72
@ 199   ----------------------------------------
	.byte	W60
	.byte	W01
	.byte		EOT   
	.byte	W11
@ 200   ----------------------------------------
	.byte	PATT
	 .word	DarkWastes_1_082
@ 201   ----------------------------------------
	.byte	W30
	.byte		EOT   , Bn4 
	.byte	W06
	.byte		N11   , Cn5 , v080
	.byte	W12
	.byte		N03   
	.byte	W04
	.byte		N07   , Bn4 
	.byte	W08
	.byte		N11   , Gn4 
	.byte	W12
@ 202   ----------------------------------------
	.byte	PATT
	 .word	DarkWastes_1_084
@ 203   ----------------------------------------
	.byte	PATT
	 .word	DarkWastes_1_085
@ 204   ----------------------------------------
	.byte	PATT
	 .word	DarkWastes_1_070
@ 205   ----------------------------------------
	.byte		TIE   , En4 , v080
	.byte	W72
@ 206   ----------------------------------------
	.byte	W72
@ 207   ----------------------------------------
	.byte	W60
	.byte	W01
	.byte		EOT   
	.byte	W11
@ 208   ----------------------------------------
	.byte	PATT
	 .word	DarkWastes_1_090
@ 209   ----------------------------------------
	.byte	PATT
	 .word	DarkWastes_1_091
@ 210   ----------------------------------------
	.byte		N68   , Bn4 , v080
	.byte	W72
@ 211   ----------------------------------------
	.byte	PATT
	 .word	DarkWastes_1_093
@ 212   ----------------------------------------
	.byte	PATT
	 .word	DarkWastes_1_070
@ 213   ----------------------------------------
	.byte		TIE   , En4 , v080
	.byte	W72
@ 214   ----------------------------------------
	.byte	W72
@ 215   ----------------------------------------
	.byte	W60
	.byte	W01
	.byte		EOT   
	.byte	W11
@ 216   ----------------------------------------
	.byte	PATT
	 .word	DarkWastes_1_090
@ 217   ----------------------------------------
	.byte	PATT
	 .word	DarkWastes_1_099
@ 218   ----------------------------------------
	.byte	PATT
	 .word	DarkWastes_1_100
@ 219   ----------------------------------------
	.byte		N68   , As4 , v080
	.byte	W68
	.byte	FINE

@**************** Track 2 (Midi-Chn.2) ****************@

DarkWastes_2:
	.byte	KEYSH , DarkWastes_key+0
@ 000   ----------------------------------------
	.byte		VOICE , 60
	.byte		VOL   , 100*DarkWastes_mvl/mxv
	.byte		PAN   , c_v+0
	.byte	W72
@ 001   ----------------------------------------
	.byte	W72
@ 002   ----------------------------------------
	.byte	W72
@ 003   ----------------------------------------
	.byte	W72
@ 004   ----------------------------------------
	.byte	W72
@ 005   ----------------------------------------
	.byte	W72
@ 006   ----------------------------------------
	.byte	W72
@ 007   ----------------------------------------
	.byte	W72
@ 008   ----------------------------------------
	.byte	W72
@ 009   ----------------------------------------
	.byte	W72
@ 010   ----------------------------------------
	.byte	W72
@ 011   ----------------------------------------
	.byte	W72
@ 012   ----------------------------------------
	.byte	W72
@ 013   ----------------------------------------
	.byte	W72
@ 014   ----------------------------------------
	.byte	W72
@ 015   ----------------------------------------
	.byte	W72
@ 016   ----------------------------------------
	.byte	W72
@ 017   ----------------------------------------
	.byte	W72
@ 018   ----------------------------------------
	.byte	W72
@ 019   ----------------------------------------
	.byte	W72
@ 020   ----------------------------------------
	.byte	W72
@ 021   ----------------------------------------
	.byte	W72
@ 022   ----------------------------------------
	.byte	W72
@ 023   ----------------------------------------
	.byte	W72
@ 024   ----------------------------------------
	.byte	W72
@ 025   ----------------------------------------
	.byte	W72
@ 026   ----------------------------------------
	.byte	W72
@ 027   ----------------------------------------
	.byte	W72
@ 028   ----------------------------------------
	.byte		N68   , En2 , v080
	.byte		N68   , An2 
	.byte	W72
@ 029   ----------------------------------------
	.byte		        Fs2 
	.byte		N68   , Bn2 
	.byte	W72
@ 030   ----------------------------------------
	.byte		        Gn2 
	.byte		N68   , Cn3 
	.byte	W72
@ 031   ----------------------------------------
	.byte		        Fs2 
	.byte		N68   , Bn2 
	.byte	W72
@ 032   ----------------------------------------
	.byte		        En2 
	.byte		N68   , An2 
	.byte	W72
@ 033   ----------------------------------------
	.byte		        Fs2 
	.byte		N68   , Bn2 
	.byte	W72
@ 034   ----------------------------------------
	.byte		        Gn2 
	.byte		N68   , Cn3 
	.byte	W72
@ 035   ----------------------------------------
	.byte		        Fs2 
	.byte		N68   , Bn2 
	.byte	W72
@ 036   ----------------------------------------
DarkWastes_2_036:
	.byte		TIE   , As2 , v080
	.byte		N68   , Dn3 
	.byte	W72
	.byte	PEND
@ 037   ----------------------------------------
DarkWastes_2_037:
	.byte		TIE   , Cs3 , v080
	.byte	W68
	.byte	W03
	.byte	PEND
	.byte		EOT   , As2 
	.byte	W01
@ 038   ----------------------------------------
DarkWastes_2_038:
	.byte		N68   , An2 , v080
	.byte	W68
	.byte	W03
	.byte	PEND
	.byte		EOT   , Cs3 
	.byte	W01
@ 039   ----------------------------------------
	.byte		N68   , An2 
	.byte		N68   , Dn3 
	.byte	W72
@ 040   ----------------------------------------
DarkWastes_2_040:
	.byte		N68   , As2 , v080
	.byte		TIE   , Ds3 
	.byte	W72
	.byte	PEND
@ 041   ----------------------------------------
DarkWastes_2_041:
	.byte		TIE   , An2 , v080
	.byte	W68
	.byte	W03
	.byte	PEND
	.byte		EOT   , Ds3 
	.byte	W01
@ 042   ----------------------------------------
DarkWastes_2_042:
	.byte		TIE   , Dn3 , v080
	.byte	W68
	.byte	W03
	.byte	PEND
	.byte		EOT   , An2 
	.byte	W01
@ 043   ----------------------------------------
DarkWastes_2_043:
	.byte		N68   , Gn2 , v080
	.byte	W68
	.byte	W03
	.byte	PEND
	.byte		EOT   , Dn3 
	.byte	W01
@ 044   ----------------------------------------
DarkWastes_2_044:
	.byte		TIE   , Bn2 , v080
	.byte		N68   , Dn3 
	.byte	W72
	.byte	PEND
@ 045   ----------------------------------------
DarkWastes_2_045:
	.byte		N32   , Dn3 , v080
	.byte	W36
	.byte		        Cs3 
	.byte	W32
	.byte	W03
	.byte	PEND
	.byte		EOT   , Bn2 
	.byte	W01
@ 046   ----------------------------------------
DarkWastes_2_046:
	.byte		N68   , Bn2 , v080
	.byte		TIE   , Cn3 
	.byte	W72
	.byte	PEND
@ 047   ----------------------------------------
	.byte	PATT
	 .word	DarkWastes_2_038
	.byte		EOT   , Cn3 
	.byte	W01
@ 048   ----------------------------------------
DarkWastes_2_048:
	.byte		TIE   , An2 , v080
	.byte		N68   , Cn3 
	.byte	W72
	.byte	PEND
@ 049   ----------------------------------------
DarkWastes_2_049:
	.byte		N68   , Dn3 , v080
	.byte	W68
	.byte	W03
	.byte	PEND
	.byte		EOT   , An2 
	.byte	W01
@ 050   ----------------------------------------
DarkWastes_2_050:
	.byte		TIE   , Bn2 , v080
	.byte		TIE   , En3 
	.byte	W72
	.byte	PEND
@ 051   ----------------------------------------
	.byte	W68
	.byte	W03
	.byte		EOT   , Bn2 
	.byte		        En3 
	.byte	W01
@ 052   ----------------------------------------
DarkWastes_2_052:
	.byte		TIE   , Bn2 , v080
	.byte		N32   , Dn3 
	.byte	W36
	.byte		        Cs3 
	.byte	W36
	.byte	PEND
@ 053   ----------------------------------------
DarkWastes_2_053:
	.byte		N68   , Cn3 , v080
	.byte	W68
	.byte	W03
	.byte	PEND
	.byte		EOT   , Bn2 
	.byte	W01
@ 054   ----------------------------------------
	.byte		N68   , En2 
	.byte		N68   , An2 
	.byte	W72
@ 055   ----------------------------------------
	.byte		        Fs2 
	.byte		N68   , Bn2 
	.byte	W72
@ 056   ----------------------------------------
	.byte		        Gn2 
	.byte		N68   , Cn3 
	.byte	W72
@ 057   ----------------------------------------
	.byte		        Fs2 
	.byte		N68   , Bn2 
	.byte	W72
@ 058   ----------------------------------------
	.byte		        En2 
	.byte		N68   , An2 
	.byte	W72
@ 059   ----------------------------------------
	.byte		        Fs2 
	.byte		N68   , Bn2 
	.byte	W72
@ 060   ----------------------------------------
	.byte		        Gn2 
	.byte		N68   , Cn3 
	.byte	W72
@ 061   ----------------------------------------
	.byte		        Fs2 
	.byte		N68   , Bn2 
	.byte	W72
@ 062   ----------------------------------------
	.byte		        En2 
	.byte		N68   , An2 
	.byte	W72
@ 063   ----------------------------------------
	.byte		        Fs2 
	.byte		N68   , Bn2 
	.byte	W72
@ 064   ----------------------------------------
	.byte		        Gn2 
	.byte		N68   , Cn3 
	.byte	W72
@ 065   ----------------------------------------
	.byte		        Fs2 
	.byte		N68   , Bn2 
	.byte	W72
@ 066   ----------------------------------------
	.byte		        En2 
	.byte		N68   , An2 
	.byte	W72
@ 067   ----------------------------------------
	.byte		        Fs2 
	.byte		N68   , Bn2 
	.byte	W72
@ 068   ----------------------------------------
	.byte		        Gn2 
	.byte		N68   , Cn3 
	.byte	W72
@ 069   ----------------------------------------
	.byte		        Fs2 
	.byte		N68   , Bn2 
	.byte	W72
@ 070   ----------------------------------------
	.byte	W72
@ 071   ----------------------------------------
	.byte	W72
@ 072   ----------------------------------------
	.byte	W72
@ 073   ----------------------------------------
	.byte	W72
@ 074   ----------------------------------------
	.byte	W72
@ 075   ----------------------------------------
	.byte	W72
@ 076   ----------------------------------------
	.byte	W72
@ 077   ----------------------------------------
	.byte	W72
@ 078   ----------------------------------------
	.byte	W72
@ 079   ----------------------------------------
	.byte	W72
@ 080   ----------------------------------------
	.byte	W72
@ 081   ----------------------------------------
	.byte	W72
@ 082   ----------------------------------------
	.byte	W72
@ 083   ----------------------------------------
	.byte	W72
@ 084   ----------------------------------------
	.byte	W72
@ 085   ----------------------------------------
	.byte	W72
@ 086   ----------------------------------------
	.byte	W72
@ 087   ----------------------------------------
	.byte	W72
@ 088   ----------------------------------------
	.byte	W72
@ 089   ----------------------------------------
	.byte	W72
@ 090   ----------------------------------------
	.byte	W72
@ 091   ----------------------------------------
	.byte	W72
@ 092   ----------------------------------------
	.byte	W72
@ 093   ----------------------------------------
	.byte	W72
@ 094   ----------------------------------------
	.byte	W72
@ 095   ----------------------------------------
	.byte	W72
@ 096   ----------------------------------------
	.byte	W72
@ 097   ----------------------------------------
	.byte	W72
@ 098   ----------------------------------------
	.byte	W72
@ 099   ----------------------------------------
	.byte	W72
@ 100   ----------------------------------------
	.byte	W72
@ 101   ----------------------------------------
	.byte	W72
@ 102   ----------------------------------------
	.byte	W72
@ 103   ----------------------------------------
	.byte	W72
@ 104   ----------------------------------------
	.byte	W72
@ 105   ----------------------------------------
	.byte	W72
@ 106   ----------------------------------------
	.byte	W72
@ 107   ----------------------------------------
	.byte	W72
@ 108   ----------------------------------------
	.byte	W72
@ 109   ----------------------------------------
	.byte	W72
@ 110   ----------------------------------------
	.byte	W72
@ 111   ----------------------------------------
	.byte	W72
@ 112   ----------------------------------------
	.byte	W72
@ 113   ----------------------------------------
	.byte	W72
@ 114   ----------------------------------------
	.byte	W72
@ 115   ----------------------------------------
	.byte	W72
@ 116   ----------------------------------------
	.byte	W72
@ 117   ----------------------------------------
	.byte	W72
@ 118   ----------------------------------------
	.byte	W72
@ 119   ----------------------------------------
	.byte	W72
@ 120   ----------------------------------------
	.byte	W72
@ 121   ----------------------------------------
	.byte	W72
@ 122   ----------------------------------------
	.byte	W72
@ 123   ----------------------------------------
	.byte	W72
@ 124   ----------------------------------------
	.byte	W72
@ 125   ----------------------------------------
	.byte	W72
@ 126   ----------------------------------------
	.byte	W72
@ 127   ----------------------------------------
	.byte	W72
@ 128   ----------------------------------------
	.byte	W72
@ 129   ----------------------------------------
	.byte	W72
@ 130   ----------------------------------------
	.byte	W72
@ 131   ----------------------------------------
	.byte	W72
@ 132   ----------------------------------------
	.byte	W72
@ 133   ----------------------------------------
	.byte	W72
@ 134   ----------------------------------------
	.byte	W72
@ 135   ----------------------------------------
	.byte	W72
@ 136   ----------------------------------------
	.byte	W72
@ 137   ----------------------------------------
	.byte	W72
@ 138   ----------------------------------------
	.byte	W72
@ 139   ----------------------------------------
	.byte	W72
@ 140   ----------------------------------------
	.byte	W72
@ 141   ----------------------------------------
	.byte	W72
@ 142   ----------------------------------------
	.byte	W72
@ 143   ----------------------------------------
	.byte	W72
@ 144   ----------------------------------------
	.byte	W72
@ 145   ----------------------------------------
	.byte	W72
@ 146   ----------------------------------------
	.byte		        En2 
	.byte		N68   , An2 
	.byte	W72
@ 147   ----------------------------------------
	.byte		        Fs2 
	.byte		N68   , Bn2 
	.byte	W72
@ 148   ----------------------------------------
	.byte		        Gn2 
	.byte		N68   , Cn3 
	.byte	W72
@ 149   ----------------------------------------
	.byte		        Fs2 
	.byte		N68   , Bn2 
	.byte	W72
@ 150   ----------------------------------------
	.byte		        En2 
	.byte		N68   , An2 
	.byte	W72
@ 151   ----------------------------------------
	.byte		        Fs2 
	.byte		N68   , Bn2 
	.byte	W72
@ 152   ----------------------------------------
	.byte		        Gn2 
	.byte		N68   , Cn3 
	.byte	W72
@ 153   ----------------------------------------
	.byte		        Fs2 
	.byte		N68   , Bn2 
	.byte	W72
@ 154   ----------------------------------------
	.byte	PATT
	 .word	DarkWastes_2_036
@ 155   ----------------------------------------
	.byte	PATT
	 .word	DarkWastes_2_037
	.byte		EOT   , As2 
	.byte	W01
@ 156   ----------------------------------------
	.byte	PATT
	 .word	DarkWastes_2_038
	.byte		EOT   , Cs3 
	.byte	W01
@ 157   ----------------------------------------
	.byte		N68   , An2 , v080
	.byte		N68   , Dn3 
	.byte	W72
@ 158   ----------------------------------------
	.byte	PATT
	 .word	DarkWastes_2_040
@ 159   ----------------------------------------
	.byte	PATT
	 .word	DarkWastes_2_041
	.byte		EOT   , Ds3 
	.byte	W01
@ 160   ----------------------------------------
	.byte	PATT
	 .word	DarkWastes_2_042
	.byte		EOT   , An2 
	.byte	W01
@ 161   ----------------------------------------
	.byte	PATT
	 .word	DarkWastes_2_043
	.byte		EOT   , Dn3 
	.byte	W01
@ 162   ----------------------------------------
	.byte	PATT
	 .word	DarkWastes_2_044
@ 163   ----------------------------------------
	.byte	PATT
	 .word	DarkWastes_2_045
	.byte		EOT   , Bn2 
	.byte	W01
@ 164   ----------------------------------------
	.byte	PATT
	 .word	DarkWastes_2_046
@ 165   ----------------------------------------
	.byte	PATT
	 .word	DarkWastes_2_038
	.byte		EOT   , Cn3 
	.byte	W01
@ 166   ----------------------------------------
	.byte	PATT
	 .word	DarkWastes_2_048
@ 167   ----------------------------------------
	.byte	PATT
	 .word	DarkWastes_2_049
	.byte		EOT   , An2 
	.byte	W01
@ 168   ----------------------------------------
	.byte	PATT
	 .word	DarkWastes_2_050
@ 169   ----------------------------------------
	.byte	W68
	.byte	W03
	.byte		EOT   , Bn2 
	.byte		        En3 
	.byte	W01
@ 170   ----------------------------------------
	.byte	PATT
	 .word	DarkWastes_2_052
@ 171   ----------------------------------------
	.byte	PATT
	 .word	DarkWastes_2_053
	.byte		EOT   , Bn2 
	.byte	W01
@ 172   ----------------------------------------
	.byte		N68   , En2 , v080
	.byte		N68   , An2 
	.byte	W72
@ 173   ----------------------------------------
	.byte		        Fs2 
	.byte		N68   , Bn2 
	.byte	W72
@ 174   ----------------------------------------
	.byte		        Gn2 
	.byte		N68   , Cn3 
	.byte	W72
@ 175   ----------------------------------------
	.byte		        Fs2 
	.byte		N68   , Bn2 
	.byte	W72
@ 176   ----------------------------------------
	.byte		        En2 
	.byte		N68   , An2 
	.byte	W72
@ 177   ----------------------------------------
	.byte		        Fs2 
	.byte		N68   , Bn2 
	.byte	W72
@ 178   ----------------------------------------
	.byte		        Gn2 
	.byte		N68   , Cn3 
	.byte	W72
@ 179   ----------------------------------------
	.byte		        Fs2 
	.byte		N68   , Bn2 
	.byte	W72
@ 180   ----------------------------------------
	.byte		        En2 
	.byte		N68   , An2 
	.byte	W72
@ 181   ----------------------------------------
	.byte		        Fs2 
	.byte		N68   , Bn2 
	.byte	W72
@ 182   ----------------------------------------
	.byte		        Gn2 
	.byte		N68   , Cn3 
	.byte	W72
@ 183   ----------------------------------------
	.byte		        Fs2 
	.byte		N68   , Bn2 
	.byte	W72
@ 184   ----------------------------------------
	.byte		        En2 
	.byte		N68   , An2 
	.byte	W72
@ 185   ----------------------------------------
	.byte		        Fs2 
	.byte		N68   , Bn2 
	.byte	W72
@ 186   ----------------------------------------
	.byte		        Gn2 
	.byte		N68   , Cn3 
	.byte	W72
@ 187   ----------------------------------------
	.byte		        Fs2 
	.byte		N68   , Bn2 
	.byte	W72
@ 188   ----------------------------------------
	.byte	W72
@ 189   ----------------------------------------
	.byte	W72
@ 190   ----------------------------------------
	.byte	W72
@ 191   ----------------------------------------
	.byte	W72
@ 192   ----------------------------------------
	.byte	W72
@ 193   ----------------------------------------
	.byte	W72
@ 194   ----------------------------------------
	.byte	W72
@ 195   ----------------------------------------
	.byte	W72
@ 196   ----------------------------------------
	.byte	W72
@ 197   ----------------------------------------
	.byte	W72
@ 198   ----------------------------------------
	.byte	W72
@ 199   ----------------------------------------
	.byte	W72
@ 200   ----------------------------------------
	.byte	W72
@ 201   ----------------------------------------
	.byte	W72
@ 202   ----------------------------------------
	.byte	W72
@ 203   ----------------------------------------
	.byte	W72
@ 204   ----------------------------------------
	.byte	W72
@ 205   ----------------------------------------
	.byte	W72
@ 206   ----------------------------------------
	.byte	W72
@ 207   ----------------------------------------
	.byte	W72
@ 208   ----------------------------------------
	.byte	W72
@ 209   ----------------------------------------
	.byte	W72
@ 210   ----------------------------------------
	.byte	W72
@ 211   ----------------------------------------
	.byte	W72
@ 212   ----------------------------------------
	.byte	W72
@ 213   ----------------------------------------
	.byte	W72
@ 214   ----------------------------------------
	.byte	W72
@ 215   ----------------------------------------
	.byte	W72
@ 216   ----------------------------------------
	.byte	W72
@ 217   ----------------------------------------
	.byte	W72
@ 218   ----------------------------------------
	.byte	W72
@ 219   ----------------------------------------
	.byte	W68
	.byte	FINE

@**************** Track 3 (Midi-Chn.3) ****************@

DarkWastes_3:
	.byte	KEYSH , DarkWastes_key+0
@ 000   ----------------------------------------
	.byte		VOICE , 70
	.byte		VOL   , 100*DarkWastes_mvl/mxv
	.byte		PAN   , c_v+0
	.byte	W72
@ 001   ----------------------------------------
	.byte	W72
@ 002   ----------------------------------------
	.byte	W72
@ 003   ----------------------------------------
	.byte	W72
@ 004   ----------------------------------------
DarkWastes_3_004:
	.byte		TIE   , An1 , v068
	.byte		TIE   , En2 
	.byte	W72
	.byte	PEND
@ 005   ----------------------------------------
	.byte	W72
@ 006   ----------------------------------------
	.byte	W72
@ 007   ----------------------------------------
	.byte	W72
@ 008   ----------------------------------------
	.byte	W72
@ 009   ----------------------------------------
	.byte	W72
@ 010   ----------------------------------------
	.byte	W72
@ 011   ----------------------------------------
	.byte	W72
@ 012   ----------------------------------------
	.byte	W72
@ 013   ----------------------------------------
	.byte	W72
@ 014   ----------------------------------------
	.byte	W72
@ 015   ----------------------------------------
	.byte	W72
@ 016   ----------------------------------------
	.byte	W72
@ 017   ----------------------------------------
	.byte	W72
@ 018   ----------------------------------------
	.byte	W72
@ 019   ----------------------------------------
	.byte	W72
@ 020   ----------------------------------------
	.byte	W72
@ 021   ----------------------------------------
	.byte	W72
@ 022   ----------------------------------------
	.byte	W72
@ 023   ----------------------------------------
	.byte	W72
@ 024   ----------------------------------------
	.byte	W72
@ 025   ----------------------------------------
	.byte	W72
@ 026   ----------------------------------------
	.byte	W72
@ 027   ----------------------------------------
	.byte	W68
	.byte	W03
	.byte		EOT   , An1 
	.byte		        En2 
	.byte	W01
@ 028   ----------------------------------------
	.byte	W72
@ 029   ----------------------------------------
	.byte	W72
@ 030   ----------------------------------------
	.byte	W72
@ 031   ----------------------------------------
	.byte	W72
@ 032   ----------------------------------------
	.byte	W72
@ 033   ----------------------------------------
	.byte	W72
@ 034   ----------------------------------------
	.byte	W72
@ 035   ----------------------------------------
	.byte	W72
@ 036   ----------------------------------------
	.byte	W72
@ 037   ----------------------------------------
	.byte	W72
@ 038   ----------------------------------------
	.byte	W72
@ 039   ----------------------------------------
	.byte	W72
@ 040   ----------------------------------------
	.byte	W72
@ 041   ----------------------------------------
	.byte	W72
@ 042   ----------------------------------------
	.byte	W72
@ 043   ----------------------------------------
	.byte	W72
@ 044   ----------------------------------------
	.byte	W72
@ 045   ----------------------------------------
	.byte	W72
@ 046   ----------------------------------------
	.byte	W72
@ 047   ----------------------------------------
	.byte	W72
@ 048   ----------------------------------------
	.byte	W72
@ 049   ----------------------------------------
	.byte	W72
@ 050   ----------------------------------------
	.byte	W72
@ 051   ----------------------------------------
	.byte	W72
@ 052   ----------------------------------------
	.byte	W72
@ 053   ----------------------------------------
	.byte	W72
@ 054   ----------------------------------------
	.byte	W72
@ 055   ----------------------------------------
	.byte	W72
@ 056   ----------------------------------------
	.byte	W72
@ 057   ----------------------------------------
	.byte	W72
@ 058   ----------------------------------------
	.byte	W72
@ 059   ----------------------------------------
	.byte	W72
@ 060   ----------------------------------------
	.byte	W72
@ 061   ----------------------------------------
	.byte	W72
@ 062   ----------------------------------------
	.byte	W72
@ 063   ----------------------------------------
	.byte	W72
@ 064   ----------------------------------------
	.byte	W72
@ 065   ----------------------------------------
	.byte	W72
@ 066   ----------------------------------------
	.byte	W72
@ 067   ----------------------------------------
	.byte	W72
@ 068   ----------------------------------------
	.byte	W72
@ 069   ----------------------------------------
	.byte	W72
@ 070   ----------------------------------------
	.byte	W72
@ 071   ----------------------------------------
	.byte	W72
@ 072   ----------------------------------------
	.byte	W72
@ 073   ----------------------------------------
	.byte	W72
@ 074   ----------------------------------------
	.byte	W72
@ 075   ----------------------------------------
	.byte	W72
@ 076   ----------------------------------------
	.byte	W72
@ 077   ----------------------------------------
	.byte	W72
@ 078   ----------------------------------------
	.byte	W72
@ 079   ----------------------------------------
	.byte	W72
@ 080   ----------------------------------------
	.byte	W72
@ 081   ----------------------------------------
	.byte	W72
@ 082   ----------------------------------------
	.byte	W72
@ 083   ----------------------------------------
	.byte	W72
@ 084   ----------------------------------------
	.byte	W72
@ 085   ----------------------------------------
	.byte	W72
@ 086   ----------------------------------------
	.byte	W72
@ 087   ----------------------------------------
	.byte	W72
@ 088   ----------------------------------------
	.byte	W72
@ 089   ----------------------------------------
	.byte	W72
@ 090   ----------------------------------------
	.byte	W72
@ 091   ----------------------------------------
	.byte	W72
@ 092   ----------------------------------------
	.byte	W72
@ 093   ----------------------------------------
	.byte	W72
@ 094   ----------------------------------------
	.byte	W72
@ 095   ----------------------------------------
	.byte	W72
@ 096   ----------------------------------------
	.byte	W72
@ 097   ----------------------------------------
	.byte	W72
@ 098   ----------------------------------------
	.byte	W72
@ 099   ----------------------------------------
	.byte	W72
@ 100   ----------------------------------------
	.byte	W72
@ 101   ----------------------------------------
	.byte	W72
@ 102   ----------------------------------------
	.byte	W72
@ 103   ----------------------------------------
	.byte	W72
@ 104   ----------------------------------------
	.byte	W72
@ 105   ----------------------------------------
	.byte	W72
@ 106   ----------------------------------------
	.byte	W72
@ 107   ----------------------------------------
	.byte	W72
@ 108   ----------------------------------------
	.byte	W72
@ 109   ----------------------------------------
	.byte	W72
@ 110   ----------------------------------------
	.byte	W72
@ 111   ----------------------------------------
	.byte	W72
@ 112   ----------------------------------------
	.byte	W72
@ 113   ----------------------------------------
	.byte	W72
@ 114   ----------------------------------------
	.byte	W72
@ 115   ----------------------------------------
	.byte	W72
@ 116   ----------------------------------------
	.byte	W72
@ 117   ----------------------------------------
	.byte	W72
@ 118   ----------------------------------------
	.byte	W72
@ 119   ----------------------------------------
	.byte	W72
@ 120   ----------------------------------------
	.byte	W72
@ 121   ----------------------------------------
	.byte	W72
@ 122   ----------------------------------------
	.byte	PATT
	 .word	DarkWastes_3_004
@ 123   ----------------------------------------
	.byte	W72
@ 124   ----------------------------------------
	.byte	W72
@ 125   ----------------------------------------
	.byte	W72
@ 126   ----------------------------------------
	.byte	W72
@ 127   ----------------------------------------
	.byte	W72
@ 128   ----------------------------------------
	.byte	W72
@ 129   ----------------------------------------
	.byte	W72
@ 130   ----------------------------------------
	.byte	W72
@ 131   ----------------------------------------
	.byte	W72
@ 132   ----------------------------------------
	.byte	W72
@ 133   ----------------------------------------
	.byte	W72
@ 134   ----------------------------------------
	.byte	W72
@ 135   ----------------------------------------
	.byte	W72
@ 136   ----------------------------------------
	.byte	W72
@ 137   ----------------------------------------
	.byte	W72
@ 138   ----------------------------------------
	.byte	W72
@ 139   ----------------------------------------
	.byte	W72
@ 140   ----------------------------------------
	.byte	W72
@ 141   ----------------------------------------
	.byte	W72
@ 142   ----------------------------------------
	.byte	W72
@ 143   ----------------------------------------
	.byte	W72
@ 144   ----------------------------------------
	.byte	W72
@ 145   ----------------------------------------
	.byte	W68
	.byte	W03
	.byte		EOT   , An1 
	.byte		        En2 
	.byte	W01
@ 146   ----------------------------------------
	.byte	W72
@ 147   ----------------------------------------
	.byte	W72
@ 148   ----------------------------------------
	.byte	W72
@ 149   ----------------------------------------
	.byte	W72
@ 150   ----------------------------------------
	.byte	W72
@ 151   ----------------------------------------
	.byte	W72
@ 152   ----------------------------------------
	.byte	W72
@ 153   ----------------------------------------
	.byte	W72
@ 154   ----------------------------------------
	.byte	W72
@ 155   ----------------------------------------
	.byte	W72
@ 156   ----------------------------------------
	.byte	W72
@ 157   ----------------------------------------
	.byte	W72
@ 158   ----------------------------------------
	.byte	W72
@ 159   ----------------------------------------
	.byte	W72
@ 160   ----------------------------------------
	.byte	W72
@ 161   ----------------------------------------
	.byte	W72
@ 162   ----------------------------------------
	.byte	W72
@ 163   ----------------------------------------
	.byte	W72
@ 164   ----------------------------------------
	.byte	W72
@ 165   ----------------------------------------
	.byte	W72
@ 166   ----------------------------------------
	.byte	W72
@ 167   ----------------------------------------
	.byte	W72
@ 168   ----------------------------------------
	.byte	W72
@ 169   ----------------------------------------
	.byte	W72
@ 170   ----------------------------------------
	.byte	W72
@ 171   ----------------------------------------
	.byte	W72
@ 172   ----------------------------------------
	.byte	W72
@ 173   ----------------------------------------
	.byte	W72
@ 174   ----------------------------------------
	.byte	W72
@ 175   ----------------------------------------
	.byte	W72
@ 176   ----------------------------------------
	.byte	W72
@ 177   ----------------------------------------
	.byte	W72
@ 178   ----------------------------------------
	.byte	W72
@ 179   ----------------------------------------
	.byte	W72
@ 180   ----------------------------------------
	.byte	W72
@ 181   ----------------------------------------
	.byte	W72
@ 182   ----------------------------------------
	.byte	W72
@ 183   ----------------------------------------
	.byte	W72
@ 184   ----------------------------------------
	.byte	W72
@ 185   ----------------------------------------
	.byte	W72
@ 186   ----------------------------------------
	.byte	W72
@ 187   ----------------------------------------
	.byte	W72
@ 188   ----------------------------------------
	.byte	W72
@ 189   ----------------------------------------
	.byte	W72
@ 190   ----------------------------------------
	.byte	W72
@ 191   ----------------------------------------
	.byte	W72
@ 192   ----------------------------------------
	.byte	W72
@ 193   ----------------------------------------
	.byte	W72
@ 194   ----------------------------------------
	.byte	W72
@ 195   ----------------------------------------
	.byte	W72
@ 196   ----------------------------------------
	.byte	W72
@ 197   ----------------------------------------
	.byte	W72
@ 198   ----------------------------------------
	.byte	W72
@ 199   ----------------------------------------
	.byte	W72
@ 200   ----------------------------------------
	.byte	W72
@ 201   ----------------------------------------
	.byte	W72
@ 202   ----------------------------------------
	.byte	W72
@ 203   ----------------------------------------
	.byte	W72
@ 204   ----------------------------------------
	.byte	W72
@ 205   ----------------------------------------
	.byte	W72
@ 206   ----------------------------------------
	.byte	W72
@ 207   ----------------------------------------
	.byte	W72
@ 208   ----------------------------------------
	.byte	W72
@ 209   ----------------------------------------
	.byte	W72
@ 210   ----------------------------------------
	.byte	W72
@ 211   ----------------------------------------
	.byte	W72
@ 212   ----------------------------------------
	.byte	W72
@ 213   ----------------------------------------
	.byte	W72
@ 214   ----------------------------------------
	.byte	W72
@ 215   ----------------------------------------
	.byte	W72
@ 216   ----------------------------------------
	.byte	W72
@ 217   ----------------------------------------
	.byte	W72
@ 218   ----------------------------------------
	.byte	W72
@ 219   ----------------------------------------
	.byte	W68
	.byte	FINE

@**************** Track 4 (Midi-Chn.9) ****************@

DarkWastes_4:
	.byte	KEYSH , DarkWastes_key+0
@ 000   ----------------------------------------
	.byte		VOICE , 40
	.byte		VOL   , 117*DarkWastes_mvl/mxv
	.byte		PAN   , c_v+0
	.byte		VOL   , 100*DarkWastes_mvl/mxv
	.byte		PAN   , c_v+0
	.byte		VOL   , 100*DarkWastes_mvl/mxv
	.byte		PAN   , c_v+0
	.byte	W72
@ 001   ----------------------------------------
	.byte	W72
@ 002   ----------------------------------------
	.byte	W72
@ 003   ----------------------------------------
	.byte	W72
@ 004   ----------------------------------------
	.byte	W72
@ 005   ----------------------------------------
	.byte	W72
@ 006   ----------------------------------------
	.byte	W72
@ 007   ----------------------------------------
	.byte	W72
@ 008   ----------------------------------------
	.byte	W72
@ 009   ----------------------------------------
	.byte	W72
@ 010   ----------------------------------------
	.byte	W72
@ 011   ----------------------------------------
	.byte	W72
@ 012   ----------------------------------------
	.byte	W72
@ 013   ----------------------------------------
	.byte	W72
@ 014   ----------------------------------------
	.byte	W72
@ 015   ----------------------------------------
	.byte	W72
@ 016   ----------------------------------------
	.byte	W72
@ 017   ----------------------------------------
	.byte	W72
@ 018   ----------------------------------------
	.byte	W72
@ 019   ----------------------------------------
	.byte	W72
@ 020   ----------------------------------------
DarkWastes_4_020:
	.byte		N03   , Gn3 , v080
	.byte	W04
	.byte		N66   , An3 
	.byte	W68
	.byte	PEND
@ 021   ----------------------------------------
DarkWastes_4_021:
	.byte		N03   , Bn3 , v080
	.byte	W04
	.byte		N66   , Cn4 
	.byte	W68
	.byte	PEND
@ 022   ----------------------------------------
	.byte	PATT
	 .word	DarkWastes_4_020
@ 023   ----------------------------------------
DarkWastes_4_023:
	.byte		N03   , Cn4 , v080
	.byte	W04
	.byte		N66   , Dn4 
	.byte	W68
	.byte	PEND
@ 024   ----------------------------------------
	.byte	PATT
	 .word	DarkWastes_4_020
@ 025   ----------------------------------------
DarkWastes_4_025:
	.byte		N03   , Dn4 , v080
	.byte	W04
	.byte		N66   , En4 
	.byte	W68
	.byte	PEND
@ 026   ----------------------------------------
	.byte	PATT
	 .word	DarkWastes_4_020
@ 027   ----------------------------------------
DarkWastes_4_027:
	.byte		N03   , Fn4 , v080
	.byte	W04
	.byte		N66   , Fs4 
	.byte	W68
	.byte	PEND
@ 028   ----------------------------------------
	.byte	W72
@ 029   ----------------------------------------
	.byte	W72
@ 030   ----------------------------------------
	.byte	W72
@ 031   ----------------------------------------
	.byte	W72
@ 032   ----------------------------------------
	.byte	W72
@ 033   ----------------------------------------
	.byte	W72
@ 034   ----------------------------------------
	.byte	W72
@ 035   ----------------------------------------
	.byte	W72
@ 036   ----------------------------------------
DarkWastes_4_036:
	.byte		N03   , Gs4 , v092
	.byte	W04
	.byte		N42   , An4 
	.byte	W44
	.byte		N11   , Gn4 
	.byte	W12
	.byte		        Cn5 
	.byte	W12
	.byte	PEND
@ 037   ----------------------------------------
DarkWastes_4_037:
	.byte		N23   , An4 , v092
	.byte	W24
	.byte		        Gn4 
	.byte	W24
	.byte		        Fn4 
	.byte	W24
	.byte	PEND
@ 038   ----------------------------------------
DarkWastes_4_038:
	.byte		N03   , Ds4 , v092
	.byte	W04
	.byte		N42   , En4 
	.byte	W44
	.byte		N11   , Dn4 
	.byte	W12
	.byte		        An3 
	.byte	W12
	.byte	PEND
@ 039   ----------------------------------------
DarkWastes_4_039:
	.byte		N44   , En4 , v092
	.byte	W48
	.byte		N11   , Fn4 
	.byte	W12
	.byte		        Gn4 
	.byte	W12
	.byte	PEND
@ 040   ----------------------------------------
DarkWastes_4_040:
	.byte		N44   , An4 , v092
	.byte	W48
	.byte		N11   , Gn4 
	.byte	W12
	.byte		        Cn5 
	.byte	W12
	.byte	PEND
@ 041   ----------------------------------------
DarkWastes_4_041:
	.byte		N23   , An4 , v092
	.byte	W24
	.byte		        Bn4 
	.byte	W24
	.byte		        Ds5 
	.byte	W24
	.byte	PEND
@ 042   ----------------------------------------
DarkWastes_4_042:
	.byte		N44   , Gn5 , v092
	.byte	W48
	.byte		N11   , Fn5 
	.byte	W12
	.byte		        Cn5 
	.byte	W12
	.byte	PEND
@ 043   ----------------------------------------
	.byte		N68   , Dn5 
	.byte	W72
@ 044   ----------------------------------------
DarkWastes_4_044:
	.byte		N03   , Cs4 , v092
	.byte	W04
	.byte		N42   , Dn4 
	.byte	W44
	.byte		N11   , Cs4 
	.byte	W12
	.byte		        Dn4 
	.byte	W12
	.byte	PEND
@ 045   ----------------------------------------
DarkWastes_4_045:
	.byte		N23   , Fn4 , v092
	.byte	W24
	.byte		        En4 
	.byte	W24
	.byte		        Bn3 
	.byte	W24
	.byte	PEND
@ 046   ----------------------------------------
DarkWastes_4_046:
	.byte		N03   , Bn3 , v092
	.byte	W04
	.byte		N42   , Cn4 
	.byte	W44
	.byte		N11   , Bn3 
	.byte	W12
	.byte		        An3 
	.byte	W12
	.byte	PEND
@ 047   ----------------------------------------
DarkWastes_4_047:
	.byte		N32   , Cn4 , v092
	.byte	W36
	.byte		N11   , En4 
	.byte	W12
	.byte		        An4 
	.byte	W12
	.byte		        Bn4 
	.byte	W12
	.byte	PEND
@ 048   ----------------------------------------
DarkWastes_4_048:
	.byte		N44   , Cn5 , v092
	.byte	W48
	.byte		N11   , An4 
	.byte	W12
	.byte		        Cn5 
	.byte	W12
	.byte	PEND
@ 049   ----------------------------------------
DarkWastes_4_049:
	.byte		N23   , Dn5 , v092
	.byte	W24
	.byte		        Cn5 
	.byte	W24
	.byte		        Fn5 
	.byte	W24
	.byte	PEND
@ 050   ----------------------------------------
DarkWastes_4_050:
	.byte		N68   , En3 , v080
	.byte		N03   , Ds5 , v092
	.byte	W04
	.byte		TIE   , En5 
	.byte	W68
	.byte	PEND
@ 051   ----------------------------------------
	.byte		N68   , An3 , v080
	.byte	W72
@ 052   ----------------------------------------
	.byte		        As3 
	.byte	W72
@ 053   ----------------------------------------
DarkWastes_4_053:
	.byte		N68   , Bn3 , v080
	.byte	W44
	.byte	W03
	.byte	PEND
	.byte		EOT   , En5 
	.byte	W24
	.byte	W01
@ 054   ----------------------------------------
	.byte	W72
@ 055   ----------------------------------------
	.byte	W72
@ 056   ----------------------------------------
	.byte	W72
@ 057   ----------------------------------------
	.byte	W72
@ 058   ----------------------------------------
	.byte	W72
@ 059   ----------------------------------------
	.byte	W72
@ 060   ----------------------------------------
	.byte	W72
@ 061   ----------------------------------------
	.byte	W72
@ 062   ----------------------------------------
	.byte	W72
@ 063   ----------------------------------------
	.byte	W72
@ 064   ----------------------------------------
	.byte	W72
@ 065   ----------------------------------------
	.byte	W72
@ 066   ----------------------------------------
	.byte	W72
@ 067   ----------------------------------------
	.byte	W72
@ 068   ----------------------------------------
	.byte	W72
@ 069   ----------------------------------------
	.byte	W72
@ 070   ----------------------------------------
DarkWastes_4_070:
	.byte	W24
	.byte		N11   , En3 , v080
	.byte	W12
	.byte		N11   
	.byte	W12
	.byte		        Dn3 
	.byte	W12
	.byte		        Gn3 
	.byte	W12
	.byte	PEND
@ 071   ----------------------------------------
	.byte		        En3 
	.byte	W72
@ 072   ----------------------------------------
DarkWastes_4_072:
	.byte	W24
	.byte		N11   , En4 , v080
	.byte	W12
	.byte		N11   
	.byte	W12
	.byte		        Dn4 
	.byte	W12
	.byte		        Gn4 
	.byte	W12
	.byte	PEND
@ 073   ----------------------------------------
	.byte		N68   , En4 
	.byte	W72
@ 074   ----------------------------------------
	.byte		TIE   , Bn3 
	.byte	W72
@ 075   ----------------------------------------
	.byte	W68
	.byte	W03
	.byte		EOT   
	.byte	W01
@ 076   ----------------------------------------
	.byte		N68   , En3 
	.byte	W72
@ 077   ----------------------------------------
	.byte		        Gn3 
	.byte	W72
@ 078   ----------------------------------------
	.byte	PATT
	 .word	DarkWastes_4_070
@ 079   ----------------------------------------
	.byte		N11   , En3 , v080
	.byte	W72
@ 080   ----------------------------------------
	.byte	PATT
	 .word	DarkWastes_4_072
@ 081   ----------------------------------------
	.byte		N68   , En4 , v080
	.byte	W72
@ 082   ----------------------------------------
	.byte		TIE   , Dn4 
	.byte	W72
@ 083   ----------------------------------------
	.byte	W68
	.byte	W03
	.byte		EOT   
	.byte	W01
@ 084   ----------------------------------------
	.byte		N68   , Bn3 
	.byte	W72
@ 085   ----------------------------------------
	.byte		        Dn4 
	.byte	W72
@ 086   ----------------------------------------
	.byte	PATT
	 .word	DarkWastes_4_070
@ 087   ----------------------------------------
	.byte		N11   , En3 , v080
	.byte	W72
@ 088   ----------------------------------------
	.byte	PATT
	 .word	DarkWastes_4_072
@ 089   ----------------------------------------
	.byte		N68   , En4 , v080
	.byte	W72
@ 090   ----------------------------------------
	.byte		TIE   , Dn4 
	.byte	W72
@ 091   ----------------------------------------
	.byte	W68
	.byte	W03
	.byte		EOT   
	.byte	W01
@ 092   ----------------------------------------
	.byte		TIE   , Bn3 
	.byte	W72
@ 093   ----------------------------------------
	.byte	W68
	.byte	W03
	.byte		EOT   
	.byte	W01
@ 094   ----------------------------------------
	.byte	PATT
	 .word	DarkWastes_4_070
@ 095   ----------------------------------------
	.byte		N11   , En3 , v080
	.byte	W72
@ 096   ----------------------------------------
	.byte	PATT
	 .word	DarkWastes_4_072
@ 097   ----------------------------------------
	.byte		N68   , An4 , v080
	.byte	W72
@ 098   ----------------------------------------
DarkWastes_4_098:
	.byte		TIE   , Dn4 , v068
	.byte		TIE   , Fs4 
	.byte	W72
	.byte	PEND
@ 099   ----------------------------------------
	.byte	W68
	.byte	W03
	.byte		EOT   , Dn4 
	.byte		        Fs4 
	.byte	W01
@ 100   ----------------------------------------
DarkWastes_4_100:
	.byte		TIE   , Cn4 , v068
	.byte		TIE   , En4 
	.byte	W72
	.byte	PEND
@ 101   ----------------------------------------
	.byte	W68
	.byte	W03
	.byte		EOT   , Cn4 
	.byte		        En4 
	.byte	W01
@ 102   ----------------------------------------
DarkWastes_4_102:
	.byte		N11   , An4 , v072
	.byte	W12
	.byte		        En4 
	.byte	W12
	.byte		        Gn4 
	.byte	W12
	.byte		        Dn5 
	.byte	W12
	.byte		        An4 
	.byte	W12
	.byte		        En4 
	.byte	W12
	.byte	PEND
@ 103   ----------------------------------------
DarkWastes_4_103:
	.byte		N11   , Gn4 , v072
	.byte	W12
	.byte		        Dn5 
	.byte	W12
	.byte		        An4 
	.byte	W12
	.byte		        En4 
	.byte	W12
	.byte		        Gn4 
	.byte	W12
	.byte		        Dn5 
	.byte	W12
	.byte	PEND
@ 104   ----------------------------------------
	.byte	PATT
	 .word	DarkWastes_4_102
@ 105   ----------------------------------------
	.byte	PATT
	 .word	DarkWastes_4_103
@ 106   ----------------------------------------
	.byte	PATT
	 .word	DarkWastes_4_102
@ 107   ----------------------------------------
	.byte	PATT
	 .word	DarkWastes_4_103
@ 108   ----------------------------------------
	.byte	PATT
	 .word	DarkWastes_4_102
@ 109   ----------------------------------------
	.byte	PATT
	 .word	DarkWastes_4_103
@ 110   ----------------------------------------
	.byte	PATT
	 .word	DarkWastes_4_102
@ 111   ----------------------------------------
	.byte	PATT
	 .word	DarkWastes_4_103
@ 112   ----------------------------------------
	.byte	PATT
	 .word	DarkWastes_4_102
@ 113   ----------------------------------------
	.byte	PATT
	 .word	DarkWastes_4_103
@ 114   ----------------------------------------
	.byte	PATT
	 .word	DarkWastes_4_102
@ 115   ----------------------------------------
	.byte	PATT
	 .word	DarkWastes_4_103
@ 116   ----------------------------------------
	.byte	PATT
	 .word	DarkWastes_4_102
@ 117   ----------------------------------------
	.byte	PATT
	 .word	DarkWastes_4_103
@ 118   ----------------------------------------
	.byte	W72
@ 119   ----------------------------------------
	.byte	W72
@ 120   ----------------------------------------
	.byte	W72
@ 121   ----------------------------------------
	.byte	W72
@ 122   ----------------------------------------
	.byte	W72
@ 123   ----------------------------------------
	.byte	W72
@ 124   ----------------------------------------
	.byte	W72
@ 125   ----------------------------------------
	.byte	W72
@ 126   ----------------------------------------
	.byte	W72
@ 127   ----------------------------------------
	.byte	W72
@ 128   ----------------------------------------
	.byte	W72
@ 129   ----------------------------------------
	.byte	W72
@ 130   ----------------------------------------
	.byte	W72
@ 131   ----------------------------------------
	.byte	W72
@ 132   ----------------------------------------
	.byte	W72
@ 133   ----------------------------------------
	.byte	W72
@ 134   ----------------------------------------
	.byte	W72
@ 135   ----------------------------------------
	.byte	W72
@ 136   ----------------------------------------
	.byte	W72
@ 137   ----------------------------------------
	.byte	W72
@ 138   ----------------------------------------
	.byte	PATT
	 .word	DarkWastes_4_020
@ 139   ----------------------------------------
	.byte	PATT
	 .word	DarkWastes_4_021
@ 140   ----------------------------------------
	.byte	PATT
	 .word	DarkWastes_4_020
@ 141   ----------------------------------------
	.byte	PATT
	 .word	DarkWastes_4_023
@ 142   ----------------------------------------
	.byte	PATT
	 .word	DarkWastes_4_020
@ 143   ----------------------------------------
	.byte	PATT
	 .word	DarkWastes_4_025
@ 144   ----------------------------------------
	.byte	PATT
	 .word	DarkWastes_4_020
@ 145   ----------------------------------------
	.byte	PATT
	 .word	DarkWastes_4_027
@ 146   ----------------------------------------
	.byte	W72
@ 147   ----------------------------------------
	.byte	W72
@ 148   ----------------------------------------
	.byte	W72
@ 149   ----------------------------------------
	.byte	W72
@ 150   ----------------------------------------
	.byte	W72
@ 151   ----------------------------------------
	.byte	W72
@ 152   ----------------------------------------
	.byte	W72
@ 153   ----------------------------------------
	.byte	W72
@ 154   ----------------------------------------
	.byte	PATT
	 .word	DarkWastes_4_036
@ 155   ----------------------------------------
	.byte	PATT
	 .word	DarkWastes_4_037
@ 156   ----------------------------------------
	.byte	PATT
	 .word	DarkWastes_4_038
@ 157   ----------------------------------------
	.byte	PATT
	 .word	DarkWastes_4_039
@ 158   ----------------------------------------
	.byte	PATT
	 .word	DarkWastes_4_040
@ 159   ----------------------------------------
	.byte	PATT
	 .word	DarkWastes_4_041
@ 160   ----------------------------------------
	.byte	PATT
	 .word	DarkWastes_4_042
@ 161   ----------------------------------------
	.byte		N68   , Dn5 , v092
	.byte	W72
@ 162   ----------------------------------------
	.byte	PATT
	 .word	DarkWastes_4_044
@ 163   ----------------------------------------
	.byte	PATT
	 .word	DarkWastes_4_045
@ 164   ----------------------------------------
	.byte	PATT
	 .word	DarkWastes_4_046
@ 165   ----------------------------------------
	.byte	PATT
	 .word	DarkWastes_4_047
@ 166   ----------------------------------------
	.byte	PATT
	 .word	DarkWastes_4_048
@ 167   ----------------------------------------
	.byte	PATT
	 .word	DarkWastes_4_049
@ 168   ----------------------------------------
	.byte	PATT
	 .word	DarkWastes_4_050
@ 169   ----------------------------------------
	.byte		N68   , An3 , v080
	.byte	W72
@ 170   ----------------------------------------
	.byte		        As3 
	.byte	W72
@ 171   ----------------------------------------
	.byte	PATT
	 .word	DarkWastes_4_053
	.byte		EOT   , En5 
	.byte	W24
	.byte	W01
@ 172   ----------------------------------------
	.byte	W72
@ 173   ----------------------------------------
	.byte	W72
@ 174   ----------------------------------------
	.byte	W72
@ 175   ----------------------------------------
	.byte	W72
@ 176   ----------------------------------------
	.byte	W72
@ 177   ----------------------------------------
	.byte	W72
@ 178   ----------------------------------------
	.byte	W72
@ 179   ----------------------------------------
	.byte	W72
@ 180   ----------------------------------------
	.byte	W72
@ 181   ----------------------------------------
	.byte	W72
@ 182   ----------------------------------------
	.byte	W72
@ 183   ----------------------------------------
	.byte	W72
@ 184   ----------------------------------------
	.byte	W72
@ 185   ----------------------------------------
	.byte	W72
@ 186   ----------------------------------------
	.byte	W72
@ 187   ----------------------------------------
	.byte	W72
@ 188   ----------------------------------------
	.byte	PATT
	 .word	DarkWastes_4_070
@ 189   ----------------------------------------
	.byte		N11   , En3 , v080
	.byte	W72
@ 190   ----------------------------------------
	.byte	PATT
	 .word	DarkWastes_4_072
@ 191   ----------------------------------------
	.byte		N68   , En4 , v080
	.byte	W72
@ 192   ----------------------------------------
	.byte		TIE   , Bn3 
	.byte	W72
@ 193   ----------------------------------------
	.byte	W68
	.byte	W03
	.byte		EOT   
	.byte	W01
@ 194   ----------------------------------------
	.byte		N68   , En3 
	.byte	W72
@ 195   ----------------------------------------
	.byte		        Gn3 
	.byte	W72
@ 196   ----------------------------------------
	.byte	PATT
	 .word	DarkWastes_4_070
@ 197   ----------------------------------------
	.byte		N11   , En3 , v080
	.byte	W72
@ 198   ----------------------------------------
	.byte	PATT
	 .word	DarkWastes_4_072
@ 199   ----------------------------------------
	.byte		N68   , En4 , v080
	.byte	W72
@ 200   ----------------------------------------
	.byte		TIE   , Dn4 
	.byte	W72
@ 201   ----------------------------------------
	.byte	W68
	.byte	W03
	.byte		EOT   
	.byte	W01
@ 202   ----------------------------------------
	.byte		N68   , Bn3 
	.byte	W72
@ 203   ----------------------------------------
	.byte		        Dn4 
	.byte	W72
@ 204   ----------------------------------------
	.byte	PATT
	 .word	DarkWastes_4_070
@ 205   ----------------------------------------
	.byte		N11   , En3 , v080
	.byte	W72
@ 206   ----------------------------------------
	.byte	PATT
	 .word	DarkWastes_4_072
@ 207   ----------------------------------------
	.byte		N68   , En4 , v080
	.byte	W72
@ 208   ----------------------------------------
	.byte		TIE   , Dn4 
	.byte	W72
@ 209   ----------------------------------------
	.byte	W68
	.byte	W03
	.byte		EOT   
	.byte	W01
@ 210   ----------------------------------------
	.byte		TIE   , Bn3 
	.byte	W72
@ 211   ----------------------------------------
	.byte	W68
	.byte	W03
	.byte		EOT   
	.byte	W01
@ 212   ----------------------------------------
	.byte	PATT
	 .word	DarkWastes_4_070
@ 213   ----------------------------------------
	.byte		N11   , En3 , v080
	.byte	W72
@ 214   ----------------------------------------
	.byte	PATT
	 .word	DarkWastes_4_072
@ 215   ----------------------------------------
	.byte		N68   , An4 , v080
	.byte	W72
@ 216   ----------------------------------------
	.byte	PATT
	 .word	DarkWastes_4_098
@ 217   ----------------------------------------
	.byte	W68
	.byte	W03
	.byte		EOT   , Dn4 
	.byte		        Fs4 
	.byte	W01
@ 218   ----------------------------------------
	.byte	PATT
	 .word	DarkWastes_4_100
@ 219   ----------------------------------------
	.byte	W68
	.byte	W03
	.byte		EOT   , Cn4 
	.byte		        En4 
	.byte	W01
@ 220   ----------------------------------------
	.byte	PATT
	 .word	DarkWastes_4_102
@ 221   ----------------------------------------
	.byte	PATT
	 .word	DarkWastes_4_103
@ 222   ----------------------------------------
	.byte	PATT
	 .word	DarkWastes_4_102
@ 223   ----------------------------------------
	.byte	PATT
	 .word	DarkWastes_4_103
@ 224   ----------------------------------------
	.byte	PATT
	 .word	DarkWastes_4_102
@ 225   ----------------------------------------
	.byte	PATT
	 .word	DarkWastes_4_103
@ 226   ----------------------------------------
	.byte	PATT
	 .word	DarkWastes_4_102
@ 227   ----------------------------------------
	.byte	PATT
	 .word	DarkWastes_4_103
@ 228   ----------------------------------------
	.byte	PATT
	 .word	DarkWastes_4_102
@ 229   ----------------------------------------
	.byte	PATT
	 .word	DarkWastes_4_103
@ 230   ----------------------------------------
	.byte	PATT
	 .word	DarkWastes_4_102
@ 231   ----------------------------------------
	.byte	PATT
	 .word	DarkWastes_4_103
@ 232   ----------------------------------------
	.byte	PATT
	 .word	DarkWastes_4_102
@ 233   ----------------------------------------
	.byte	PATT
	 .word	DarkWastes_4_103
@ 234   ----------------------------------------
	.byte	PATT
	 .word	DarkWastes_4_102
@ 235   ----------------------------------------
	.byte	PATT
	 .word	DarkWastes_4_103
@ 236   ----------------------------------------
	.byte	FINE

@**************** Track 5 (Midi-Chn.4) ****************@

DarkWastes_5:
	.byte	KEYSH , DarkWastes_key+0
@ 000   ----------------------------------------
	.byte		VOICE , 41
	.byte		VOL   , 127*DarkWastes_mvl/mxv
	.byte		PAN   , c_v+0
	.byte		VOL   , 100*DarkWastes_mvl/mxv
	.byte		PAN   , c_v+0
	.byte		VOL   , 100*DarkWastes_mvl/mxv
	.byte		PAN   , c_v+0
	.byte	W72
@ 001   ----------------------------------------
	.byte	W72
@ 002   ----------------------------------------
	.byte	W72
@ 003   ----------------------------------------
	.byte	W72
@ 004   ----------------------------------------
	.byte	W72
@ 005   ----------------------------------------
	.byte	W72
@ 006   ----------------------------------------
	.byte	W72
@ 007   ----------------------------------------
	.byte	W72
@ 008   ----------------------------------------
	.byte	W72
@ 009   ----------------------------------------
	.byte	W72
@ 010   ----------------------------------------
	.byte	W72
@ 011   ----------------------------------------
	.byte	W72
@ 012   ----------------------------------------
DarkWastes_5_012:
	.byte	W24
	.byte		N11   , En3 , v080
	.byte	W12
	.byte		N11   
	.byte	W12
	.byte		        Dn3 
	.byte	W12
	.byte		        Gn3 
	.byte	W12
	.byte	PEND
@ 013   ----------------------------------------
DarkWastes_5_013:
	.byte		N11   , En3 , v080
	.byte	W12
	.byte		        Dn3 
	.byte	W12
	.byte		        An2 
	.byte	W12
	.byte		N23   
	.byte	W24
	.byte		N11   , Gn2 
	.byte	W12
	.byte	PEND
@ 014   ----------------------------------------
DarkWastes_5_014:
	.byte		N23   , An2 , v080
	.byte	W24
	.byte		N11   , En3 
	.byte	W12
	.byte		N11   
	.byte	W12
	.byte		        Dn3 
	.byte	W12
	.byte		        Gn3 
	.byte	W12
	.byte	PEND
@ 015   ----------------------------------------
DarkWastes_5_015:
	.byte		N11   , En3 , v080
	.byte	W12
	.byte		        Dn3 
	.byte	W12
	.byte		        An2 
	.byte	W12
	.byte		N44   , En3 
	.byte	W36
	.byte	PEND
@ 016   ----------------------------------------
DarkWastes_5_016:
	.byte	W24
	.byte		N11   , En3 , v080
	.byte		N11   , An3 
	.byte	W12
	.byte		        En3 
	.byte		N11   , An3 
	.byte	W12
	.byte		        Dn3 
	.byte		N11   , Gn3 
	.byte	W12
	.byte		N11   
	.byte		N11   , Cn4 
	.byte	W12
	.byte	PEND
@ 017   ----------------------------------------
DarkWastes_5_017:
	.byte		N11   , En3 , v080
	.byte		N11   , An3 
	.byte	W12
	.byte		        Dn3 
	.byte		N11   , Gn3 
	.byte	W12
	.byte		        An2 
	.byte		N11   , Dn3 
	.byte	W12
	.byte		N23   , An2 
	.byte		N23   , Dn3 
	.byte	W24
	.byte		N11   , Gn2 
	.byte		N11   , Cn3 
	.byte	W12
	.byte	PEND
@ 018   ----------------------------------------
DarkWastes_5_018:
	.byte		N23   , An2 , v080
	.byte		N23   , Dn3 
	.byte	W24
	.byte		N11   , En3 
	.byte		N11   , An3 
	.byte	W12
	.byte		        En3 
	.byte		N11   , An3 
	.byte	W12
	.byte		        Dn3 
	.byte		N11   , Gn3 
	.byte	W12
	.byte		N11   
	.byte		N11   , Cn4 
	.byte	W12
	.byte	PEND
@ 019   ----------------------------------------
DarkWastes_5_019:
	.byte		N11   , En3 , v080
	.byte		N11   , An3 
	.byte	W12
	.byte		        Dn3 
	.byte		N11   , Gn3 
	.byte	W12
	.byte		        An2 
	.byte		N11   , Dn3 
	.byte	W12
	.byte		N44   , En3 
	.byte		N44   , An3 
	.byte	W36
	.byte	PEND
@ 020   ----------------------------------------
	.byte	W72
@ 021   ----------------------------------------
	.byte	W72
@ 022   ----------------------------------------
	.byte	W72
@ 023   ----------------------------------------
	.byte	W72
@ 024   ----------------------------------------
	.byte	W72
@ 025   ----------------------------------------
	.byte	W72
@ 026   ----------------------------------------
	.byte	W72
@ 027   ----------------------------------------
	.byte	W72
@ 028   ----------------------------------------
	.byte	PATT
	 .word	DarkWastes_5_012
@ 029   ----------------------------------------
	.byte	PATT
	 .word	DarkWastes_5_013
@ 030   ----------------------------------------
	.byte	PATT
	 .word	DarkWastes_5_014
@ 031   ----------------------------------------
	.byte	PATT
	 .word	DarkWastes_5_015
@ 032   ----------------------------------------
	.byte	PATT
	 .word	DarkWastes_5_016
@ 033   ----------------------------------------
	.byte	PATT
	 .word	DarkWastes_5_017
@ 034   ----------------------------------------
	.byte	PATT
	 .word	DarkWastes_5_018
@ 035   ----------------------------------------
	.byte	PATT
	 .word	DarkWastes_5_019
@ 036   ----------------------------------------
	.byte	W72
@ 037   ----------------------------------------
	.byte	W72
@ 038   ----------------------------------------
	.byte	W72
@ 039   ----------------------------------------
	.byte	W72
@ 040   ----------------------------------------
	.byte	W72
@ 041   ----------------------------------------
	.byte	W72
@ 042   ----------------------------------------
	.byte	W72
@ 043   ----------------------------------------
	.byte	W72
@ 044   ----------------------------------------
	.byte	W72
@ 045   ----------------------------------------
	.byte	W72
@ 046   ----------------------------------------
	.byte	W72
@ 047   ----------------------------------------
	.byte	W72
@ 048   ----------------------------------------
	.byte	W72
@ 049   ----------------------------------------
	.byte	W72
@ 050   ----------------------------------------
	.byte	W72
@ 051   ----------------------------------------
	.byte	W72
@ 052   ----------------------------------------
	.byte	W72
@ 053   ----------------------------------------
	.byte	W72
@ 054   ----------------------------------------
	.byte	PATT
	 .word	DarkWastes_5_012
@ 055   ----------------------------------------
	.byte	PATT
	 .word	DarkWastes_5_013
@ 056   ----------------------------------------
	.byte	PATT
	 .word	DarkWastes_5_014
@ 057   ----------------------------------------
	.byte	PATT
	 .word	DarkWastes_5_015
@ 058   ----------------------------------------
	.byte	PATT
	 .word	DarkWastes_5_016
@ 059   ----------------------------------------
	.byte	PATT
	 .word	DarkWastes_5_017
@ 060   ----------------------------------------
	.byte	PATT
	 .word	DarkWastes_5_018
@ 061   ----------------------------------------
	.byte	PATT
	 .word	DarkWastes_5_019
@ 062   ----------------------------------------
	.byte	PATT
	 .word	DarkWastes_5_012
@ 063   ----------------------------------------
	.byte	PATT
	 .word	DarkWastes_5_013
@ 064   ----------------------------------------
	.byte	PATT
	 .word	DarkWastes_5_014
@ 065   ----------------------------------------
	.byte	PATT
	 .word	DarkWastes_5_015
@ 066   ----------------------------------------
	.byte	PATT
	 .word	DarkWastes_5_016
@ 067   ----------------------------------------
	.byte	PATT
	 .word	DarkWastes_5_017
@ 068   ----------------------------------------
	.byte	PATT
	 .word	DarkWastes_5_018
@ 069   ----------------------------------------
	.byte	PATT
	 .word	DarkWastes_5_019
@ 070   ----------------------------------------
	.byte	W72
@ 071   ----------------------------------------
DarkWastes_5_071:
	.byte	W24
	.byte		N11   , An3 , v080
	.byte	W12
	.byte		N11   
	.byte	W12
	.byte		        Gn3 
	.byte	W12
	.byte		        Cn4 
	.byte	W12
	.byte	PEND
@ 072   ----------------------------------------
	.byte		N68   , An3 
	.byte	W72
@ 073   ----------------------------------------
	.byte		        Cn4 
	.byte	W72
@ 074   ----------------------------------------
	.byte		        En3 
	.byte	W72
@ 075   ----------------------------------------
	.byte		        Bn2 
	.byte	W72
@ 076   ----------------------------------------
	.byte		        Gn2 
	.byte	W72
@ 077   ----------------------------------------
	.byte		        Dn3 
	.byte	W72
@ 078   ----------------------------------------
	.byte	W72
@ 079   ----------------------------------------
	.byte	PATT
	 .word	DarkWastes_5_071
@ 080   ----------------------------------------
	.byte		N68   , An3 , v080
	.byte	W72
@ 081   ----------------------------------------
	.byte		        Cn4 
	.byte	W72
@ 082   ----------------------------------------
	.byte		        Bn3 
	.byte	W72
@ 083   ----------------------------------------
	.byte		        Gn3 
	.byte	W72
@ 084   ----------------------------------------
	.byte		        Dn3 
	.byte	W72
@ 085   ----------------------------------------
	.byte		        Gn3 
	.byte	W72
@ 086   ----------------------------------------
	.byte	W72
@ 087   ----------------------------------------
	.byte	PATT
	 .word	DarkWastes_5_071
@ 088   ----------------------------------------
	.byte		N68   , An3 , v080
	.byte	W72
@ 089   ----------------------------------------
	.byte		        Cn4 
	.byte	W72
@ 090   ----------------------------------------
	.byte		        Bn3 
	.byte	W72
@ 091   ----------------------------------------
	.byte		        Gn3 
	.byte	W72
@ 092   ----------------------------------------
	.byte		        En3 
	.byte	W72
@ 093   ----------------------------------------
	.byte		        Gn3 
	.byte	W72
@ 094   ----------------------------------------
	.byte	W72
@ 095   ----------------------------------------
	.byte	PATT
	 .word	DarkWastes_5_071
@ 096   ----------------------------------------
	.byte		N68   , An3 , v080
	.byte	W72
@ 097   ----------------------------------------
	.byte		        Cn4 
	.byte		N68   , En4 
	.byte	W72
@ 098   ----------------------------------------
	.byte		TIE   , Bn3 , v068
	.byte	W72
@ 099   ----------------------------------------
	.byte	W68
	.byte	W03
	.byte		EOT   
	.byte	W01
@ 100   ----------------------------------------
	.byte		TIE   , Gn3 
	.byte	W72
@ 101   ----------------------------------------
	.byte	W68
	.byte	W03
	.byte		EOT   
	.byte	W01
@ 102   ----------------------------------------
	.byte	W72
@ 103   ----------------------------------------
	.byte	W72
@ 104   ----------------------------------------
	.byte	W72
@ 105   ----------------------------------------
	.byte	W72
@ 106   ----------------------------------------
	.byte	W72
@ 107   ----------------------------------------
	.byte		N68   , En3 , v080
	.byte	W72
@ 108   ----------------------------------------
	.byte		        Dn3 
	.byte	W72
@ 109   ----------------------------------------
	.byte		        Gn3 
	.byte	W72
@ 110   ----------------------------------------
	.byte		TIE   , En3 
	.byte	W72
@ 111   ----------------------------------------
	.byte	W56
	.byte	W03
	.byte		EOT   
	.byte	W13
@ 112   ----------------------------------------
	.byte	W72
@ 113   ----------------------------------------
	.byte	W72
@ 114   ----------------------------------------
	.byte	W72
@ 115   ----------------------------------------
	.byte		N68   , En3 , v068
	.byte		N68   , An3 
	.byte	W72
@ 116   ----------------------------------------
	.byte		        Dn3 
	.byte		N68   , Gn3 
	.byte	W72
@ 117   ----------------------------------------
	.byte		N68   
	.byte		N68   , Cn4 
	.byte	W72
@ 118   ----------------------------------------
DarkWastes_5_118:
	.byte		TIE   , En3 , v068
	.byte		TIE   , An3 
	.byte	W72
	.byte	PEND
@ 119   ----------------------------------------
	.byte	W72
@ 120   ----------------------------------------
	.byte	W72
@ 121   ----------------------------------------
	.byte	W44
	.byte	W03
	.byte		EOT   , En3 
	.byte		        An3 
	.byte	W24
	.byte	W01
@ 122   ----------------------------------------
	.byte	W72
@ 123   ----------------------------------------
	.byte	W72
@ 124   ----------------------------------------
	.byte	W72
@ 125   ----------------------------------------
	.byte	W72
@ 126   ----------------------------------------
	.byte	W72
@ 127   ----------------------------------------
	.byte	W72
@ 128   ----------------------------------------
	.byte	W72
@ 129   ----------------------------------------
	.byte	W72
@ 130   ----------------------------------------
	.byte	PATT
	 .word	DarkWastes_5_012
@ 131   ----------------------------------------
	.byte	PATT
	 .word	DarkWastes_5_013
@ 132   ----------------------------------------
	.byte	PATT
	 .word	DarkWastes_5_014
@ 133   ----------------------------------------
	.byte	PATT
	 .word	DarkWastes_5_015
@ 134   ----------------------------------------
	.byte	PATT
	 .word	DarkWastes_5_016
@ 135   ----------------------------------------
	.byte	PATT
	 .word	DarkWastes_5_017
@ 136   ----------------------------------------
	.byte	PATT
	 .word	DarkWastes_5_018
@ 137   ----------------------------------------
	.byte	PATT
	 .word	DarkWastes_5_019
@ 138   ----------------------------------------
	.byte	W72
@ 139   ----------------------------------------
	.byte	W72
@ 140   ----------------------------------------
	.byte	W72
@ 141   ----------------------------------------
	.byte	W72
@ 142   ----------------------------------------
	.byte	W72
@ 143   ----------------------------------------
	.byte	W72
@ 144   ----------------------------------------
	.byte	W72
@ 145   ----------------------------------------
	.byte	W72
@ 146   ----------------------------------------
	.byte	PATT
	 .word	DarkWastes_5_012
@ 147   ----------------------------------------
	.byte	PATT
	 .word	DarkWastes_5_013
@ 148   ----------------------------------------
	.byte	PATT
	 .word	DarkWastes_5_014
@ 149   ----------------------------------------
	.byte	PATT
	 .word	DarkWastes_5_015
@ 150   ----------------------------------------
	.byte	PATT
	 .word	DarkWastes_5_016
@ 151   ----------------------------------------
	.byte	PATT
	 .word	DarkWastes_5_017
@ 152   ----------------------------------------
	.byte	PATT
	 .word	DarkWastes_5_018
@ 153   ----------------------------------------
	.byte	PATT
	 .word	DarkWastes_5_019
@ 154   ----------------------------------------
	.byte	W72
@ 155   ----------------------------------------
	.byte	W72
@ 156   ----------------------------------------
	.byte	W72
@ 157   ----------------------------------------
	.byte	W72
@ 158   ----------------------------------------
	.byte	W72
@ 159   ----------------------------------------
	.byte	W72
@ 160   ----------------------------------------
	.byte	W72
@ 161   ----------------------------------------
	.byte	W72
@ 162   ----------------------------------------
	.byte	W72
@ 163   ----------------------------------------
	.byte	W72
@ 164   ----------------------------------------
	.byte	W72
@ 165   ----------------------------------------
	.byte	W72
@ 166   ----------------------------------------
	.byte	W72
@ 167   ----------------------------------------
	.byte	W72
@ 168   ----------------------------------------
	.byte	W72
@ 169   ----------------------------------------
	.byte	W72
@ 170   ----------------------------------------
	.byte	W72
@ 171   ----------------------------------------
	.byte	W72
@ 172   ----------------------------------------
	.byte	PATT
	 .word	DarkWastes_5_012
@ 173   ----------------------------------------
	.byte	PATT
	 .word	DarkWastes_5_013
@ 174   ----------------------------------------
	.byte	PATT
	 .word	DarkWastes_5_014
@ 175   ----------------------------------------
	.byte	PATT
	 .word	DarkWastes_5_015
@ 176   ----------------------------------------
	.byte	PATT
	 .word	DarkWastes_5_016
@ 177   ----------------------------------------
	.byte	PATT
	 .word	DarkWastes_5_017
@ 178   ----------------------------------------
	.byte	PATT
	 .word	DarkWastes_5_018
@ 179   ----------------------------------------
	.byte	PATT
	 .word	DarkWastes_5_019
@ 180   ----------------------------------------
	.byte	PATT
	 .word	DarkWastes_5_012
@ 181   ----------------------------------------
	.byte	PATT
	 .word	DarkWastes_5_013
@ 182   ----------------------------------------
	.byte	PATT
	 .word	DarkWastes_5_014
@ 183   ----------------------------------------
	.byte	PATT
	 .word	DarkWastes_5_015
@ 184   ----------------------------------------
	.byte	PATT
	 .word	DarkWastes_5_016
@ 185   ----------------------------------------
	.byte	PATT
	 .word	DarkWastes_5_017
@ 186   ----------------------------------------
	.byte	PATT
	 .word	DarkWastes_5_018
@ 187   ----------------------------------------
	.byte	PATT
	 .word	DarkWastes_5_019
@ 188   ----------------------------------------
	.byte	W72
@ 189   ----------------------------------------
	.byte	PATT
	 .word	DarkWastes_5_071
@ 190   ----------------------------------------
	.byte		N68   , An3 , v080
	.byte	W72
@ 191   ----------------------------------------
	.byte		        Cn4 
	.byte	W72
@ 192   ----------------------------------------
	.byte		        En3 
	.byte	W72
@ 193   ----------------------------------------
	.byte		        Bn2 
	.byte	W72
@ 194   ----------------------------------------
	.byte		        Gn2 
	.byte	W72
@ 195   ----------------------------------------
	.byte		        Dn3 
	.byte	W72
@ 196   ----------------------------------------
	.byte	W72
@ 197   ----------------------------------------
	.byte	PATT
	 .word	DarkWastes_5_071
@ 198   ----------------------------------------
	.byte		N68   , An3 , v080
	.byte	W72
@ 199   ----------------------------------------
	.byte		        Cn4 
	.byte	W72
@ 200   ----------------------------------------
	.byte		        Bn3 
	.byte	W72
@ 201   ----------------------------------------
	.byte		        Gn3 
	.byte	W72
@ 202   ----------------------------------------
	.byte		        Dn3 
	.byte	W72
@ 203   ----------------------------------------
	.byte		        Gn3 
	.byte	W72
@ 204   ----------------------------------------
	.byte	W72
@ 205   ----------------------------------------
	.byte	PATT
	 .word	DarkWastes_5_071
@ 206   ----------------------------------------
	.byte		N68   , An3 , v080
	.byte	W72
@ 207   ----------------------------------------
	.byte		        Cn4 
	.byte	W72
@ 208   ----------------------------------------
	.byte		        Bn3 
	.byte	W72
@ 209   ----------------------------------------
	.byte		        Gn3 
	.byte	W72
@ 210   ----------------------------------------
	.byte		        En3 
	.byte	W72
@ 211   ----------------------------------------
	.byte		        Gn3 
	.byte	W72
@ 212   ----------------------------------------
	.byte	W72
@ 213   ----------------------------------------
	.byte	PATT
	 .word	DarkWastes_5_071
@ 214   ----------------------------------------
	.byte		N68   , An3 , v080
	.byte	W72
@ 215   ----------------------------------------
	.byte		        Cn4 
	.byte		N68   , En4 
	.byte	W72
@ 216   ----------------------------------------
	.byte		TIE   , Bn3 , v068
	.byte	W72
@ 217   ----------------------------------------
	.byte	W68
	.byte	W03
	.byte		EOT   
	.byte	W01
@ 218   ----------------------------------------
	.byte		TIE   , Gn3 
	.byte	W72
@ 219   ----------------------------------------
	.byte	W68
	.byte	W03
	.byte		EOT   
	.byte	W01
@ 220   ----------------------------------------
	.byte	W72
@ 221   ----------------------------------------
	.byte	W72
@ 222   ----------------------------------------
	.byte	W72
@ 223   ----------------------------------------
	.byte	W72
@ 224   ----------------------------------------
	.byte	W72
@ 225   ----------------------------------------
	.byte		N68   , En3 , v080
	.byte	W72
@ 226   ----------------------------------------
	.byte		        Dn3 
	.byte	W72
@ 227   ----------------------------------------
	.byte		        Gn3 
	.byte	W72
@ 228   ----------------------------------------
	.byte		TIE   , En3 
	.byte	W72
@ 229   ----------------------------------------
	.byte	W56
	.byte	W03
	.byte		EOT   
	.byte	W13
@ 230   ----------------------------------------
	.byte	W72
@ 231   ----------------------------------------
	.byte	W72
@ 232   ----------------------------------------
	.byte	W72
@ 233   ----------------------------------------
	.byte		N68   , En3 , v068
	.byte		N68   , An3 
	.byte	W72
@ 234   ----------------------------------------
	.byte		        Dn3 
	.byte		N68   , Gn3 
	.byte	W72
@ 235   ----------------------------------------
	.byte		N68   
	.byte		N68   , Cn4 
	.byte	W72
@ 236   ----------------------------------------
	.byte	PATT
	 .word	DarkWastes_5_118
@ 237   ----------------------------------------
	.byte	W72
@ 238   ----------------------------------------
	.byte	W72
@ 239   ----------------------------------------
	.byte	W44
	.byte	W03
	.byte		EOT   , En3 
	.byte		        An3 
	.byte	W01
	.byte	FINE

@**************** Track 6 (Midi-Chn.9) ****************@

DarkWastes_6:
	.byte	KEYSH , DarkWastes_key+0
@ 000   ----------------------------------------
	.byte		VOICE , 40
	.byte		VOL   , 100*DarkWastes_mvl/mxv
	.byte		PAN   , c_v+0
	.byte		VOL   , 100*DarkWastes_mvl/mxv
	.byte		PAN   , c_v+0
	.byte		VOL   , 100*DarkWastes_mvl/mxv
	.byte		PAN   , c_v+0
	.byte	W72
@ 001   ----------------------------------------
	.byte	W72
@ 002   ----------------------------------------
	.byte	W72
@ 003   ----------------------------------------
	.byte	W72
@ 004   ----------------------------------------
DarkWastes_6_004:
	.byte		N11   , An2 , v080
	.byte		N11   , En3 
	.byte	W24
	.byte		        An2 
	.byte		N11   , En3 
	.byte	W24
	.byte		        An2 
	.byte		N11   , En3 
	.byte	W12
	.byte		        An2 
	.byte		N11   , En3 
	.byte	W12
	.byte	PEND
@ 005   ----------------------------------------
DarkWastes_6_005:
	.byte	W12
	.byte		N11   , An2 , v080
	.byte		N11   , En3 
	.byte	W12
	.byte		        An2 
	.byte		N11   , En3 
	.byte	W12
	.byte		        An2 
	.byte		N11   , En3 
	.byte	W24
	.byte		        An2 
	.byte		N11   , En3 
	.byte	W12
	.byte	PEND
@ 006   ----------------------------------------
	.byte	PATT
	 .word	DarkWastes_6_004
@ 007   ----------------------------------------
DarkWastes_6_007:
	.byte	W12
	.byte		N11   , An2 , v080
	.byte		N11   , En3 
	.byte	W12
	.byte		        An2 
	.byte		N11   , En3 
	.byte	W12
	.byte		        An2 
	.byte		N11   , En3 
	.byte	W36
	.byte	PEND
@ 008   ----------------------------------------
	.byte	PATT
	 .word	DarkWastes_6_004
@ 009   ----------------------------------------
	.byte	PATT
	 .word	DarkWastes_6_005
@ 010   ----------------------------------------
	.byte	PATT
	 .word	DarkWastes_6_004
@ 011   ----------------------------------------
	.byte	PATT
	 .word	DarkWastes_6_007
@ 012   ----------------------------------------
	.byte	PATT
	 .word	DarkWastes_6_004
@ 013   ----------------------------------------
	.byte	PATT
	 .word	DarkWastes_6_005
@ 014   ----------------------------------------
	.byte	PATT
	 .word	DarkWastes_6_004
@ 015   ----------------------------------------
	.byte	PATT
	 .word	DarkWastes_6_007
@ 016   ----------------------------------------
	.byte	PATT
	 .word	DarkWastes_6_004
@ 017   ----------------------------------------
	.byte	PATT
	 .word	DarkWastes_6_005
@ 018   ----------------------------------------
	.byte	PATT
	 .word	DarkWastes_6_004
@ 019   ----------------------------------------
	.byte	PATT
	 .word	DarkWastes_6_007
@ 020   ----------------------------------------
	.byte	W72
@ 021   ----------------------------------------
	.byte	W72
@ 022   ----------------------------------------
	.byte	W72
@ 023   ----------------------------------------
	.byte	W72
@ 024   ----------------------------------------
	.byte	W72
@ 025   ----------------------------------------
	.byte	W72
@ 026   ----------------------------------------
	.byte	W72
@ 027   ----------------------------------------
	.byte	W72
@ 028   ----------------------------------------
	.byte	PATT
	 .word	DarkWastes_6_004
@ 029   ----------------------------------------
	.byte	PATT
	 .word	DarkWastes_6_005
@ 030   ----------------------------------------
	.byte	PATT
	 .word	DarkWastes_6_004
@ 031   ----------------------------------------
	.byte	PATT
	 .word	DarkWastes_6_007
@ 032   ----------------------------------------
	.byte	PATT
	 .word	DarkWastes_6_004
@ 033   ----------------------------------------
	.byte	PATT
	 .word	DarkWastes_6_005
@ 034   ----------------------------------------
	.byte	PATT
	 .word	DarkWastes_6_004
@ 035   ----------------------------------------
	.byte	PATT
	 .word	DarkWastes_6_007
@ 036   ----------------------------------------
	.byte	W72
@ 037   ----------------------------------------
	.byte	W72
@ 038   ----------------------------------------
	.byte	W72
@ 039   ----------------------------------------
	.byte	W72
@ 040   ----------------------------------------
	.byte	W72
@ 041   ----------------------------------------
	.byte	W72
@ 042   ----------------------------------------
	.byte	W72
@ 043   ----------------------------------------
	.byte	W72
@ 044   ----------------------------------------
	.byte	W72
@ 045   ----------------------------------------
	.byte	W72
@ 046   ----------------------------------------
	.byte	W72
@ 047   ----------------------------------------
	.byte	W72
@ 048   ----------------------------------------
	.byte	W72
@ 049   ----------------------------------------
	.byte	W72
@ 050   ----------------------------------------
	.byte	W72
@ 051   ----------------------------------------
	.byte	W72
@ 052   ----------------------------------------
	.byte	W72
@ 053   ----------------------------------------
	.byte	W72
@ 054   ----------------------------------------
	.byte	PATT
	 .word	DarkWastes_6_004
@ 055   ----------------------------------------
	.byte	PATT
	 .word	DarkWastes_6_005
@ 056   ----------------------------------------
	.byte	PATT
	 .word	DarkWastes_6_004
@ 057   ----------------------------------------
	.byte	PATT
	 .word	DarkWastes_6_007
@ 058   ----------------------------------------
	.byte	PATT
	 .word	DarkWastes_6_004
@ 059   ----------------------------------------
	.byte	PATT
	 .word	DarkWastes_6_005
@ 060   ----------------------------------------
	.byte	PATT
	 .word	DarkWastes_6_004
@ 061   ----------------------------------------
	.byte	PATT
	 .word	DarkWastes_6_007
@ 062   ----------------------------------------
	.byte	PATT
	 .word	DarkWastes_6_004
@ 063   ----------------------------------------
	.byte	PATT
	 .word	DarkWastes_6_005
@ 064   ----------------------------------------
	.byte	PATT
	 .word	DarkWastes_6_004
@ 065   ----------------------------------------
	.byte	PATT
	 .word	DarkWastes_6_007
@ 066   ----------------------------------------
	.byte	PATT
	 .word	DarkWastes_6_004
@ 067   ----------------------------------------
	.byte	PATT
	 .word	DarkWastes_6_005
@ 068   ----------------------------------------
	.byte	PATT
	 .word	DarkWastes_6_004
@ 069   ----------------------------------------
	.byte	PATT
	 .word	DarkWastes_6_007
@ 070   ----------------------------------------
DarkWastes_6_070:
	.byte		N11   , An2 , v080
	.byte		N11   , Fn3 
	.byte	W24
	.byte		        An2 
	.byte		N11   , Fn3 
	.byte	W24
	.byte		        An2 
	.byte		N11   , Fn3 
	.byte	W12
	.byte		        An2 
	.byte		N11   , Fn3 
	.byte	W12
	.byte	PEND
@ 071   ----------------------------------------
DarkWastes_6_071:
	.byte	W12
	.byte		N11   , An2 , v080
	.byte		N11   , Fn3 
	.byte	W12
	.byte		        An2 
	.byte		N11   , Fn3 
	.byte	W12
	.byte		        An2 
	.byte		N11   , Fn3 
	.byte	W24
	.byte		        An2 
	.byte		N11   , Fn3 
	.byte	W12
	.byte	PEND
@ 072   ----------------------------------------
	.byte	PATT
	 .word	DarkWastes_6_070
@ 073   ----------------------------------------
DarkWastes_6_073:
	.byte	W12
	.byte		N11   , An2 , v080
	.byte		N11   , Fn3 
	.byte	W12
	.byte		        An2 
	.byte		N11   , Fn3 
	.byte	W12
	.byte		        An2 
	.byte		N11   , Fn3 
	.byte	W36
	.byte	PEND
@ 074   ----------------------------------------
DarkWastes_6_074:
	.byte		N11   , Bn2 , v080
	.byte		N11   , En3 
	.byte	W24
	.byte		        Bn2 
	.byte		N11   , En3 
	.byte	W24
	.byte		        Bn2 
	.byte		N11   , En3 
	.byte	W12
	.byte		        Bn2 
	.byte		N11   , En3 
	.byte	W12
	.byte	PEND
@ 075   ----------------------------------------
DarkWastes_6_075:
	.byte	W12
	.byte		N11   , Bn2 , v080
	.byte		N11   , En3 
	.byte	W12
	.byte		        Bn2 
	.byte		N11   , En3 
	.byte	W12
	.byte		        Bn2 
	.byte		N11   , En3 
	.byte	W24
	.byte		        Bn2 
	.byte		N11   , En3 
	.byte	W12
	.byte	PEND
@ 076   ----------------------------------------
	.byte	PATT
	 .word	DarkWastes_6_074
@ 077   ----------------------------------------
DarkWastes_6_077:
	.byte	W12
	.byte		N11   , Bn2 , v080
	.byte		N11   , En3 
	.byte	W12
	.byte		        Bn2 
	.byte		N11   , En3 
	.byte	W12
	.byte		        Bn2 
	.byte		N11   , En3 
	.byte	W36
	.byte	PEND
@ 078   ----------------------------------------
	.byte	PATT
	 .word	DarkWastes_6_070
@ 079   ----------------------------------------
	.byte	PATT
	 .word	DarkWastes_6_071
@ 080   ----------------------------------------
	.byte	PATT
	 .word	DarkWastes_6_070
@ 081   ----------------------------------------
	.byte	PATT
	 .word	DarkWastes_6_073
@ 082   ----------------------------------------
DarkWastes_6_082:
	.byte		N11   , Bn2 , v080
	.byte		N11   , Gn3 
	.byte	W24
	.byte		        Bn2 
	.byte		N11   , Gn3 
	.byte	W24
	.byte		        Bn2 
	.byte		N11   , Gn3 
	.byte	W12
	.byte		        Bn2 
	.byte		N11   , Gn3 
	.byte	W12
	.byte	PEND
@ 083   ----------------------------------------
DarkWastes_6_083:
	.byte	W12
	.byte		N11   , Bn2 , v080
	.byte		N11   , Gn3 
	.byte	W12
	.byte		        Bn2 
	.byte		N11   , Gn3 
	.byte	W12
	.byte		        Bn2 
	.byte		N11   , Gn3 
	.byte	W24
	.byte		        Bn2 
	.byte		N11   , Gn3 
	.byte	W12
	.byte	PEND
@ 084   ----------------------------------------
	.byte	PATT
	 .word	DarkWastes_6_082
@ 085   ----------------------------------------
DarkWastes_6_085:
	.byte	W12
	.byte		N11   , Bn2 , v080
	.byte		N11   , Gn3 
	.byte	W12
	.byte		        Bn2 
	.byte		N11   , Gn3 
	.byte	W12
	.byte		        Bn2 
	.byte		N11   , Gn3 
	.byte	W36
	.byte	PEND
@ 086   ----------------------------------------
	.byte	PATT
	 .word	DarkWastes_6_070
@ 087   ----------------------------------------
	.byte	PATT
	 .word	DarkWastes_6_071
@ 088   ----------------------------------------
	.byte	PATT
	 .word	DarkWastes_6_070
@ 089   ----------------------------------------
	.byte	PATT
	 .word	DarkWastes_6_073
@ 090   ----------------------------------------
	.byte	PATT
	 .word	DarkWastes_6_074
@ 091   ----------------------------------------
	.byte	PATT
	 .word	DarkWastes_6_075
@ 092   ----------------------------------------
	.byte	PATT
	 .word	DarkWastes_6_074
@ 093   ----------------------------------------
	.byte	PATT
	 .word	DarkWastes_6_077
@ 094   ----------------------------------------
	.byte	PATT
	 .word	DarkWastes_6_070
@ 095   ----------------------------------------
	.byte	PATT
	 .word	DarkWastes_6_071
@ 096   ----------------------------------------
	.byte	PATT
	 .word	DarkWastes_6_070
@ 097   ----------------------------------------
	.byte	PATT
	 .word	DarkWastes_6_073
@ 098   ----------------------------------------
	.byte	W72
@ 099   ----------------------------------------
	.byte	W72
@ 100   ----------------------------------------
	.byte	W72
@ 101   ----------------------------------------
	.byte	W72
@ 102   ----------------------------------------
	.byte	W72
@ 103   ----------------------------------------
	.byte	W72
@ 104   ----------------------------------------
	.byte	W72
@ 105   ----------------------------------------
	.byte	W72
@ 106   ----------------------------------------
	.byte	W72
@ 107   ----------------------------------------
	.byte	W72
@ 108   ----------------------------------------
	.byte	W72
@ 109   ----------------------------------------
	.byte	W72
@ 110   ----------------------------------------
	.byte	W72
@ 111   ----------------------------------------
	.byte	W72
@ 112   ----------------------------------------
	.byte	W72
@ 113   ----------------------------------------
	.byte	W72
@ 114   ----------------------------------------
	.byte	W72
@ 115   ----------------------------------------
	.byte	W72
@ 116   ----------------------------------------
	.byte	W72
@ 117   ----------------------------------------
	.byte	W72
@ 118   ----------------------------------------
	.byte	W72
@ 119   ----------------------------------------
	.byte	W72
@ 120   ----------------------------------------
	.byte	W72
@ 121   ----------------------------------------
	.byte	W72
@ 122   ----------------------------------------
	.byte	PATT
	 .word	DarkWastes_6_004
@ 123   ----------------------------------------
	.byte	PATT
	 .word	DarkWastes_6_005
@ 124   ----------------------------------------
	.byte	PATT
	 .word	DarkWastes_6_004
@ 125   ----------------------------------------
	.byte	PATT
	 .word	DarkWastes_6_007
@ 126   ----------------------------------------
	.byte	PATT
	 .word	DarkWastes_6_004
@ 127   ----------------------------------------
	.byte	PATT
	 .word	DarkWastes_6_005
@ 128   ----------------------------------------
	.byte	PATT
	 .word	DarkWastes_6_004
@ 129   ----------------------------------------
	.byte	PATT
	 .word	DarkWastes_6_007
@ 130   ----------------------------------------
	.byte	PATT
	 .word	DarkWastes_6_004
@ 131   ----------------------------------------
	.byte	PATT
	 .word	DarkWastes_6_005
@ 132   ----------------------------------------
	.byte	PATT
	 .word	DarkWastes_6_004
@ 133   ----------------------------------------
	.byte	PATT
	 .word	DarkWastes_6_007
@ 134   ----------------------------------------
	.byte	PATT
	 .word	DarkWastes_6_004
@ 135   ----------------------------------------
	.byte	PATT
	 .word	DarkWastes_6_005
@ 136   ----------------------------------------
	.byte	PATT
	 .word	DarkWastes_6_004
@ 137   ----------------------------------------
	.byte	PATT
	 .word	DarkWastes_6_007
@ 138   ----------------------------------------
	.byte	W72
@ 139   ----------------------------------------
	.byte	W72
@ 140   ----------------------------------------
	.byte	W72
@ 141   ----------------------------------------
	.byte	W72
@ 142   ----------------------------------------
	.byte	W72
@ 143   ----------------------------------------
	.byte	W72
@ 144   ----------------------------------------
	.byte	W72
@ 145   ----------------------------------------
	.byte	W72
@ 146   ----------------------------------------
	.byte	PATT
	 .word	DarkWastes_6_004
@ 147   ----------------------------------------
	.byte	PATT
	 .word	DarkWastes_6_005
@ 148   ----------------------------------------
	.byte	PATT
	 .word	DarkWastes_6_004
@ 149   ----------------------------------------
	.byte	PATT
	 .word	DarkWastes_6_007
@ 150   ----------------------------------------
	.byte	PATT
	 .word	DarkWastes_6_004
@ 151   ----------------------------------------
	.byte	PATT
	 .word	DarkWastes_6_005
@ 152   ----------------------------------------
	.byte	PATT
	 .word	DarkWastes_6_004
@ 153   ----------------------------------------
	.byte	PATT
	 .word	DarkWastes_6_007
@ 154   ----------------------------------------
	.byte	W72
@ 155   ----------------------------------------
	.byte	W72
@ 156   ----------------------------------------
	.byte	W72
@ 157   ----------------------------------------
	.byte	W72
@ 158   ----------------------------------------
	.byte	W72
@ 159   ----------------------------------------
	.byte	W72
@ 160   ----------------------------------------
	.byte	W72
@ 161   ----------------------------------------
	.byte	W72
@ 162   ----------------------------------------
	.byte	W72
@ 163   ----------------------------------------
	.byte	W72
@ 164   ----------------------------------------
	.byte	W72
@ 165   ----------------------------------------
	.byte	W72
@ 166   ----------------------------------------
	.byte	W72
@ 167   ----------------------------------------
	.byte	W72
@ 168   ----------------------------------------
	.byte	W72
@ 169   ----------------------------------------
	.byte	W72
@ 170   ----------------------------------------
	.byte	W72
@ 171   ----------------------------------------
	.byte	W72
@ 172   ----------------------------------------
	.byte	PATT
	 .word	DarkWastes_6_004
@ 173   ----------------------------------------
	.byte	PATT
	 .word	DarkWastes_6_005
@ 174   ----------------------------------------
	.byte	PATT
	 .word	DarkWastes_6_004
@ 175   ----------------------------------------
	.byte	PATT
	 .word	DarkWastes_6_007
@ 176   ----------------------------------------
	.byte	PATT
	 .word	DarkWastes_6_004
@ 177   ----------------------------------------
	.byte	PATT
	 .word	DarkWastes_6_005
@ 178   ----------------------------------------
	.byte	PATT
	 .word	DarkWastes_6_004
@ 179   ----------------------------------------
	.byte	PATT
	 .word	DarkWastes_6_007
@ 180   ----------------------------------------
	.byte	PATT
	 .word	DarkWastes_6_004
@ 181   ----------------------------------------
	.byte	PATT
	 .word	DarkWastes_6_005
@ 182   ----------------------------------------
	.byte	PATT
	 .word	DarkWastes_6_004
@ 183   ----------------------------------------
	.byte	PATT
	 .word	DarkWastes_6_007
@ 184   ----------------------------------------
	.byte	PATT
	 .word	DarkWastes_6_004
@ 185   ----------------------------------------
	.byte	PATT
	 .word	DarkWastes_6_005
@ 186   ----------------------------------------
	.byte	PATT
	 .word	DarkWastes_6_004
@ 187   ----------------------------------------
	.byte	PATT
	 .word	DarkWastes_6_007
@ 188   ----------------------------------------
	.byte	PATT
	 .word	DarkWastes_6_070
@ 189   ----------------------------------------
	.byte	PATT
	 .word	DarkWastes_6_071
@ 190   ----------------------------------------
	.byte	PATT
	 .word	DarkWastes_6_070
@ 191   ----------------------------------------
	.byte	PATT
	 .word	DarkWastes_6_073
@ 192   ----------------------------------------
	.byte	PATT
	 .word	DarkWastes_6_074
@ 193   ----------------------------------------
	.byte	PATT
	 .word	DarkWastes_6_075
@ 194   ----------------------------------------
	.byte	PATT
	 .word	DarkWastes_6_074
@ 195   ----------------------------------------
	.byte	PATT
	 .word	DarkWastes_6_077
@ 196   ----------------------------------------
	.byte	PATT
	 .word	DarkWastes_6_070
@ 197   ----------------------------------------
	.byte	PATT
	 .word	DarkWastes_6_071
@ 198   ----------------------------------------
	.byte	PATT
	 .word	DarkWastes_6_070
@ 199   ----------------------------------------
	.byte	PATT
	 .word	DarkWastes_6_073
@ 200   ----------------------------------------
	.byte	PATT
	 .word	DarkWastes_6_082
@ 201   ----------------------------------------
	.byte	PATT
	 .word	DarkWastes_6_083
@ 202   ----------------------------------------
	.byte	PATT
	 .word	DarkWastes_6_082
@ 203   ----------------------------------------
	.byte	PATT
	 .word	DarkWastes_6_085
@ 204   ----------------------------------------
	.byte	PATT
	 .word	DarkWastes_6_070
@ 205   ----------------------------------------
	.byte	PATT
	 .word	DarkWastes_6_071
@ 206   ----------------------------------------
	.byte	PATT
	 .word	DarkWastes_6_070
@ 207   ----------------------------------------
	.byte	PATT
	 .word	DarkWastes_6_073
@ 208   ----------------------------------------
	.byte	PATT
	 .word	DarkWastes_6_074
@ 209   ----------------------------------------
	.byte	PATT
	 .word	DarkWastes_6_075
@ 210   ----------------------------------------
	.byte	PATT
	 .word	DarkWastes_6_074
@ 211   ----------------------------------------
	.byte	PATT
	 .word	DarkWastes_6_077
@ 212   ----------------------------------------
	.byte	PATT
	 .word	DarkWastes_6_070
@ 213   ----------------------------------------
	.byte	PATT
	 .word	DarkWastes_6_071
@ 214   ----------------------------------------
	.byte	PATT
	 .word	DarkWastes_6_070
@ 215   ----------------------------------------
	.byte	PATT
	 .word	DarkWastes_6_073
@ 216   ----------------------------------------
	.byte	W72
@ 217   ----------------------------------------
	.byte	W72
@ 218   ----------------------------------------
	.byte	W72
@ 219   ----------------------------------------
	.byte	W68
	.byte	FINE

@**************** Track 7 (Midi-Chn.11) ****************@

DarkWastes_7:
	.byte	KEYSH , DarkWastes_key+0
@ 000   ----------------------------------------
	.byte		VOICE , 51
	.byte		VOL   , 100*DarkWastes_mvl/mxv
	.byte		PAN   , c_v+0
	.byte		VOL   , 100*DarkWastes_mvl/mxv
	.byte		PAN   , c_v+0
	.byte		VOL   , 100*DarkWastes_mvl/mxv
	.byte		PAN   , c_v+0
	.byte	W72
@ 001   ----------------------------------------
	.byte	W72
@ 002   ----------------------------------------
	.byte	W72
@ 003   ----------------------------------------
	.byte	W72
@ 004   ----------------------------------------
	.byte	W72
@ 005   ----------------------------------------
	.byte	W72
@ 006   ----------------------------------------
	.byte	W72
@ 007   ----------------------------------------
	.byte	W72
@ 008   ----------------------------------------
	.byte	W72
@ 009   ----------------------------------------
	.byte	W72
@ 010   ----------------------------------------
	.byte	W72
@ 011   ----------------------------------------
	.byte	W72
@ 012   ----------------------------------------
	.byte	W72
@ 013   ----------------------------------------
	.byte	W72
@ 014   ----------------------------------------
	.byte	W72
@ 015   ----------------------------------------
	.byte	W72
@ 016   ----------------------------------------
	.byte	W72
@ 017   ----------------------------------------
	.byte	W72
@ 018   ----------------------------------------
	.byte	W72
@ 019   ----------------------------------------
	.byte	W72
@ 020   ----------------------------------------
	.byte	W72
@ 021   ----------------------------------------
	.byte	W72
@ 022   ----------------------------------------
	.byte	W72
@ 023   ----------------------------------------
	.byte	W24
	.byte		N68   , An2 , v092
	.byte	W48
@ 024   ----------------------------------------
DarkWastes_7_024:
	.byte	W24
	.byte		N23   , An2 , v092
	.byte	W24
	.byte		N44   , Gn2 
	.byte	W24
	.byte	PEND
@ 025   ----------------------------------------
DarkWastes_7_025:
	.byte	W24
	.byte		N23   , Cn3 , v092
	.byte	W24
	.byte		        Bn2 
	.byte	W24
	.byte	PEND
@ 026   ----------------------------------------
DarkWastes_7_026:
	.byte		N32   , An2 , v092
	.byte	W36
	.byte		        Gn2 
	.byte	W36
	.byte	PEND
@ 027   ----------------------------------------
DarkWastes_7_027:
	.byte		N32   , Dn2 , v092
	.byte	W36
	.byte		        En2 
	.byte	W36
	.byte	PEND
@ 028   ----------------------------------------
	.byte		TIE   , An1 
	.byte	W72
@ 029   ----------------------------------------
	.byte	W72
@ 030   ----------------------------------------
	.byte	W72
@ 031   ----------------------------------------
	.byte	W72
@ 032   ----------------------------------------
	.byte	W72
@ 033   ----------------------------------------
	.byte	W72
@ 034   ----------------------------------------
	.byte	W72
@ 035   ----------------------------------------
	.byte	W68
	.byte	W03
	.byte		EOT   
	.byte	W01
@ 036   ----------------------------------------
	.byte	W72
@ 037   ----------------------------------------
	.byte	W72
@ 038   ----------------------------------------
	.byte	W72
@ 039   ----------------------------------------
	.byte	W72
@ 040   ----------------------------------------
	.byte	W72
@ 041   ----------------------------------------
	.byte	W72
@ 042   ----------------------------------------
	.byte	W72
@ 043   ----------------------------------------
	.byte	W72
@ 044   ----------------------------------------
	.byte	W72
@ 045   ----------------------------------------
	.byte	W72
@ 046   ----------------------------------------
	.byte	W72
@ 047   ----------------------------------------
	.byte	W72
@ 048   ----------------------------------------
	.byte	W72
@ 049   ----------------------------------------
	.byte	W72
@ 050   ----------------------------------------
	.byte	W72
@ 051   ----------------------------------------
	.byte	W72
@ 052   ----------------------------------------
	.byte	W72
@ 053   ----------------------------------------
	.byte	W72
@ 054   ----------------------------------------
	.byte		TIE   , An1 , v080
	.byte	W72
@ 055   ----------------------------------------
	.byte	W72
@ 056   ----------------------------------------
	.byte	W72
@ 057   ----------------------------------------
	.byte	W72
@ 058   ----------------------------------------
	.byte	W72
@ 059   ----------------------------------------
	.byte	W72
@ 060   ----------------------------------------
	.byte	W72
@ 061   ----------------------------------------
	.byte	W68
	.byte	W03
	.byte		EOT   
	.byte	W01
@ 062   ----------------------------------------
	.byte		TIE   
	.byte	W72
@ 063   ----------------------------------------
	.byte	W72
@ 064   ----------------------------------------
	.byte	W72
@ 065   ----------------------------------------
	.byte	W72
@ 066   ----------------------------------------
	.byte	W72
@ 067   ----------------------------------------
	.byte	W72
@ 068   ----------------------------------------
	.byte	W72
@ 069   ----------------------------------------
	.byte	W68
	.byte	W03
	.byte		EOT   
	.byte	W01
@ 070   ----------------------------------------
	.byte		TIE   , Fn2 
	.byte	W72
@ 071   ----------------------------------------
	.byte	W44
	.byte	W03
	.byte		EOT   
	.byte	W01
	.byte		N23   , En2 
	.byte	W24
@ 072   ----------------------------------------
	.byte		TIE   , Dn2 
	.byte	W72
@ 073   ----------------------------------------
	.byte	W68
	.byte	W03
	.byte		EOT   
	.byte	W01
@ 074   ----------------------------------------
	.byte		TIE   , En2 
	.byte	W72
@ 075   ----------------------------------------
	.byte	W72
@ 076   ----------------------------------------
	.byte	W72
@ 077   ----------------------------------------
	.byte	W68
	.byte	W03
	.byte		EOT   
	.byte	W01
@ 078   ----------------------------------------
	.byte		TIE   , Fn2 
	.byte	W72
@ 079   ----------------------------------------
	.byte	W44
	.byte	W03
	.byte		EOT   
	.byte	W01
	.byte		N23   , En2 
	.byte	W24
@ 080   ----------------------------------------
	.byte		TIE   , Dn2 
	.byte	W72
@ 081   ----------------------------------------
	.byte	W68
	.byte	W03
	.byte		EOT   
	.byte	W01
@ 082   ----------------------------------------
	.byte		TIE   , Gn2 
	.byte	W72
@ 083   ----------------------------------------
	.byte	W72
@ 084   ----------------------------------------
	.byte	W72
@ 085   ----------------------------------------
	.byte	W68
	.byte	W03
	.byte		EOT   
	.byte	W01
@ 086   ----------------------------------------
	.byte		TIE   , Fn2 
	.byte	W72
@ 087   ----------------------------------------
	.byte	W44
	.byte	W03
	.byte		EOT   
	.byte	W01
	.byte		N23   , En2 
	.byte	W24
@ 088   ----------------------------------------
	.byte		TIE   , Dn2 
	.byte	W72
@ 089   ----------------------------------------
	.byte	W68
	.byte	W03
	.byte		EOT   
	.byte	W01
@ 090   ----------------------------------------
	.byte		TIE   , En2 
	.byte	W72
@ 091   ----------------------------------------
	.byte	W72
@ 092   ----------------------------------------
	.byte	W72
@ 093   ----------------------------------------
	.byte	W68
	.byte	W03
	.byte		EOT   
	.byte	W01
@ 094   ----------------------------------------
	.byte		TIE   , Fn2 
	.byte	W72
@ 095   ----------------------------------------
	.byte	W44
	.byte	W03
	.byte		EOT   
	.byte	W01
	.byte		N23   , En2 
	.byte	W24
@ 096   ----------------------------------------
	.byte		TIE   , Dn2 
	.byte	W72
@ 097   ----------------------------------------
	.byte	W68
	.byte	W03
	.byte		EOT   
	.byte	W01
@ 098   ----------------------------------------
	.byte	W72
@ 099   ----------------------------------------
	.byte	W72
@ 100   ----------------------------------------
	.byte	W72
@ 101   ----------------------------------------
	.byte	W72
@ 102   ----------------------------------------
	.byte	W72
@ 103   ----------------------------------------
	.byte	W72
@ 104   ----------------------------------------
	.byte	W72
@ 105   ----------------------------------------
	.byte	W72
@ 106   ----------------------------------------
	.byte	W72
@ 107   ----------------------------------------
	.byte	W72
@ 108   ----------------------------------------
	.byte	W72
@ 109   ----------------------------------------
	.byte	W72
@ 110   ----------------------------------------
	.byte	W72
@ 111   ----------------------------------------
	.byte	W72
@ 112   ----------------------------------------
	.byte	W72
@ 113   ----------------------------------------
	.byte	W72
@ 114   ----------------------------------------
	.byte	W72
@ 115   ----------------------------------------
	.byte	W72
@ 116   ----------------------------------------
	.byte	W72
@ 117   ----------------------------------------
	.byte	W72
@ 118   ----------------------------------------
	.byte	W72
@ 119   ----------------------------------------
	.byte	W72
@ 120   ----------------------------------------
	.byte	W72
@ 121   ----------------------------------------
	.byte	W72
@ 122   ----------------------------------------
	.byte	W72
@ 123   ----------------------------------------
	.byte	W72
@ 124   ----------------------------------------
	.byte	W72
@ 125   ----------------------------------------
	.byte	W72
@ 126   ----------------------------------------
	.byte	W72
@ 127   ----------------------------------------
	.byte	W72
@ 128   ----------------------------------------
	.byte	W72
@ 129   ----------------------------------------
	.byte	W72
@ 130   ----------------------------------------
	.byte	W72
@ 131   ----------------------------------------
	.byte	W72
@ 132   ----------------------------------------
	.byte	W72
@ 133   ----------------------------------------
	.byte	W72
@ 134   ----------------------------------------
	.byte	W72
@ 135   ----------------------------------------
	.byte	W72
@ 136   ----------------------------------------
	.byte	W72
@ 137   ----------------------------------------
	.byte	W72
@ 138   ----------------------------------------
	.byte	W72
@ 139   ----------------------------------------
	.byte	W72
@ 140   ----------------------------------------
	.byte	W72
@ 141   ----------------------------------------
	.byte	W24
	.byte		N68   , An2 , v092
	.byte	W48
@ 142   ----------------------------------------
	.byte	PATT
	 .word	DarkWastes_7_024
@ 143   ----------------------------------------
	.byte	PATT
	 .word	DarkWastes_7_025
@ 144   ----------------------------------------
	.byte	PATT
	 .word	DarkWastes_7_026
@ 145   ----------------------------------------
	.byte	PATT
	 .word	DarkWastes_7_027
@ 146   ----------------------------------------
	.byte		TIE   , An1 , v092
	.byte	W72
@ 147   ----------------------------------------
	.byte	W72
@ 148   ----------------------------------------
	.byte	W72
@ 149   ----------------------------------------
	.byte	W72
@ 150   ----------------------------------------
	.byte	W72
@ 151   ----------------------------------------
	.byte	W72
@ 152   ----------------------------------------
	.byte	W72
@ 153   ----------------------------------------
	.byte	W68
	.byte	W03
	.byte		EOT   
	.byte	W01
@ 154   ----------------------------------------
	.byte	W72
@ 155   ----------------------------------------
	.byte	W72
@ 156   ----------------------------------------
	.byte	W72
@ 157   ----------------------------------------
	.byte	W72
@ 158   ----------------------------------------
	.byte	W72
@ 159   ----------------------------------------
	.byte	W72
@ 160   ----------------------------------------
	.byte	W72
@ 161   ----------------------------------------
	.byte	W72
@ 162   ----------------------------------------
	.byte	W72
@ 163   ----------------------------------------
	.byte	W72
@ 164   ----------------------------------------
	.byte	W72
@ 165   ----------------------------------------
	.byte	W72
@ 166   ----------------------------------------
	.byte	W72
@ 167   ----------------------------------------
	.byte	W72
@ 168   ----------------------------------------
	.byte	W72
@ 169   ----------------------------------------
	.byte	W72
@ 170   ----------------------------------------
	.byte	W72
@ 171   ----------------------------------------
	.byte	W72
@ 172   ----------------------------------------
	.byte		TIE   , An1 , v080
	.byte	W72
@ 173   ----------------------------------------
	.byte	W72
@ 174   ----------------------------------------
	.byte	W72
@ 175   ----------------------------------------
	.byte	W72
@ 176   ----------------------------------------
	.byte	W72
@ 177   ----------------------------------------
	.byte	W72
@ 178   ----------------------------------------
	.byte	W72
@ 179   ----------------------------------------
	.byte	W68
	.byte	W03
	.byte		EOT   
	.byte	W01
@ 180   ----------------------------------------
	.byte		TIE   
	.byte	W72
@ 181   ----------------------------------------
	.byte	W72
@ 182   ----------------------------------------
	.byte	W72
@ 183   ----------------------------------------
	.byte	W72
@ 184   ----------------------------------------
	.byte	W72
@ 185   ----------------------------------------
	.byte	W72
@ 186   ----------------------------------------
	.byte	W72
@ 187   ----------------------------------------
	.byte	W68
	.byte	W03
	.byte		EOT   
	.byte	W01
@ 188   ----------------------------------------
	.byte		TIE   , Fn2 
	.byte	W72
@ 189   ----------------------------------------
	.byte	W44
	.byte	W03
	.byte		EOT   
	.byte	W01
	.byte		N23   , En2 
	.byte	W24
@ 190   ----------------------------------------
	.byte		TIE   , Dn2 
	.byte	W72
@ 191   ----------------------------------------
	.byte	W68
	.byte	W03
	.byte		EOT   
	.byte	W01
@ 192   ----------------------------------------
	.byte		TIE   , En2 
	.byte	W72
@ 193   ----------------------------------------
	.byte	W72
@ 194   ----------------------------------------
	.byte	W72
@ 195   ----------------------------------------
	.byte	W68
	.byte	W03
	.byte		EOT   
	.byte	W01
@ 196   ----------------------------------------
	.byte		TIE   , Fn2 
	.byte	W72
@ 197   ----------------------------------------
	.byte	W44
	.byte	W03
	.byte		EOT   
	.byte	W01
	.byte		N23   , En2 
	.byte	W24
@ 198   ----------------------------------------
	.byte		TIE   , Dn2 
	.byte	W72
@ 199   ----------------------------------------
	.byte	W68
	.byte	W03
	.byte		EOT   
	.byte	W01
@ 200   ----------------------------------------
	.byte		TIE   , Gn2 
	.byte	W72
@ 201   ----------------------------------------
	.byte	W72
@ 202   ----------------------------------------
	.byte	W72
@ 203   ----------------------------------------
	.byte	W68
	.byte	W03
	.byte		EOT   
	.byte	W01
@ 204   ----------------------------------------
	.byte		TIE   , Fn2 
	.byte	W72
@ 205   ----------------------------------------
	.byte	W44
	.byte	W03
	.byte		EOT   
	.byte	W01
	.byte		N23   , En2 
	.byte	W24
@ 206   ----------------------------------------
	.byte		TIE   , Dn2 
	.byte	W72
@ 207   ----------------------------------------
	.byte	W68
	.byte	W03
	.byte		EOT   
	.byte	W01
@ 208   ----------------------------------------
	.byte		TIE   , En2 
	.byte	W72
@ 209   ----------------------------------------
	.byte	W72
@ 210   ----------------------------------------
	.byte	W72
@ 211   ----------------------------------------
	.byte	W68
	.byte	W03
	.byte		EOT   
	.byte	W01
@ 212   ----------------------------------------
	.byte		TIE   , Fn2 
	.byte	W72
@ 213   ----------------------------------------
	.byte	W44
	.byte	W03
	.byte		EOT   
	.byte	W01
	.byte		N23   , En2 
	.byte	W24
@ 214   ----------------------------------------
	.byte		TIE   , Dn2 
	.byte	W72
@ 215   ----------------------------------------
	.byte	W68
	.byte	W03
	.byte		EOT   
	.byte	W01
@ 216   ----------------------------------------
	.byte	W72
@ 217   ----------------------------------------
	.byte	W72
@ 218   ----------------------------------------
	.byte	W72
@ 219   ----------------------------------------
	.byte	W68
	.byte	FINE

@**************** Track 8 (Midi-Chn.11) ****************@

DarkWastes_8:
	.byte	KEYSH , DarkWastes_key+0
@ 000   ----------------------------------------
	.byte		VOICE , 51
	.byte		VOL   , 100*DarkWastes_mvl/mxv
	.byte		PAN   , c_v+0
	.byte		VOL   , 100*DarkWastes_mvl/mxv
	.byte		PAN   , c_v+0
	.byte		VOL   , 100*DarkWastes_mvl/mxv
	.byte		PAN   , c_v+0
	.byte	W72
@ 001   ----------------------------------------
	.byte	W72
@ 002   ----------------------------------------
	.byte	W72
@ 003   ----------------------------------------
	.byte	W72
@ 004   ----------------------------------------
	.byte	W72
@ 005   ----------------------------------------
	.byte	W72
@ 006   ----------------------------------------
	.byte	W72
@ 007   ----------------------------------------
	.byte	W72
@ 008   ----------------------------------------
	.byte	W72
@ 009   ----------------------------------------
	.byte	W72
@ 010   ----------------------------------------
	.byte	W72
@ 011   ----------------------------------------
	.byte	W72
@ 012   ----------------------------------------
	.byte	W72
@ 013   ----------------------------------------
	.byte	W72
@ 014   ----------------------------------------
	.byte	W72
@ 015   ----------------------------------------
	.byte	W72
@ 016   ----------------------------------------
	.byte	W72
@ 017   ----------------------------------------
	.byte	W72
@ 018   ----------------------------------------
	.byte	W72
@ 019   ----------------------------------------
	.byte	W72
@ 020   ----------------------------------------
	.byte	W72
@ 021   ----------------------------------------
	.byte	W72
@ 022   ----------------------------------------
	.byte	W72
@ 023   ----------------------------------------
	.byte	W72
@ 024   ----------------------------------------
	.byte	W72
@ 025   ----------------------------------------
	.byte	W72
@ 026   ----------------------------------------
	.byte	W72
@ 027   ----------------------------------------
	.byte	W72
@ 028   ----------------------------------------
	.byte		TIE   , An0 , v092
	.byte	W72
@ 029   ----------------------------------------
	.byte	W72
@ 030   ----------------------------------------
	.byte	W72
@ 031   ----------------------------------------
	.byte	W72
@ 032   ----------------------------------------
	.byte	W72
@ 033   ----------------------------------------
	.byte	W72
@ 034   ----------------------------------------
	.byte	W72
@ 035   ----------------------------------------
	.byte	W68
	.byte	W03
	.byte		EOT   
	.byte	W01
@ 036   ----------------------------------------
	.byte		TIE   , Gn1 
	.byte	W72
@ 037   ----------------------------------------
	.byte	W68
	.byte	W03
	.byte		EOT   
	.byte	W01
@ 038   ----------------------------------------
	.byte		TIE   , Fs1 
	.byte	W72
@ 039   ----------------------------------------
	.byte	W68
	.byte	W03
	.byte		EOT   
	.byte	W01
@ 040   ----------------------------------------
	.byte		N68   , Cn2 
	.byte	W72
@ 041   ----------------------------------------
	.byte		        Bn1 
	.byte	W72
@ 042   ----------------------------------------
	.byte		TIE   , As1 
	.byte	W72
@ 043   ----------------------------------------
	.byte	W68
	.byte	W03
	.byte		EOT   
	.byte	W01
@ 044   ----------------------------------------
	.byte		N68   , Bn1 
	.byte	W72
@ 045   ----------------------------------------
	.byte		        En1 
	.byte	W72
@ 046   ----------------------------------------
	.byte		        An1 
	.byte	W72
@ 047   ----------------------------------------
	.byte		        Gn1 
	.byte	W72
@ 048   ----------------------------------------
	.byte		        Fn1 
	.byte	W72
@ 049   ----------------------------------------
	.byte		        As1 
	.byte	W72
@ 050   ----------------------------------------
	.byte		TIE   , Bn1 
	.byte	W72
@ 051   ----------------------------------------
	.byte	W68
	.byte	W03
	.byte		EOT   
	.byte	W01
@ 052   ----------------------------------------
	.byte		TIE   , En1 
	.byte	W72
@ 053   ----------------------------------------
	.byte	W68
	.byte	W03
	.byte		EOT   
	.byte	W01
@ 054   ----------------------------------------
	.byte		TIE   , An0 
	.byte	W72
@ 055   ----------------------------------------
	.byte	W72
@ 056   ----------------------------------------
	.byte	W72
@ 057   ----------------------------------------
	.byte	W72
@ 058   ----------------------------------------
	.byte	W72
@ 059   ----------------------------------------
	.byte	W72
@ 060   ----------------------------------------
	.byte	W72
@ 061   ----------------------------------------
	.byte	W68
	.byte	W03
	.byte		EOT   
	.byte	W01
@ 062   ----------------------------------------
	.byte		TIE   
	.byte	W72
@ 063   ----------------------------------------
	.byte	W72
@ 064   ----------------------------------------
	.byte	W72
@ 065   ----------------------------------------
	.byte	W72
@ 066   ----------------------------------------
	.byte	W72
@ 067   ----------------------------------------
	.byte	W72
@ 068   ----------------------------------------
	.byte	W72
@ 069   ----------------------------------------
	.byte	W68
	.byte	W03
	.byte		EOT   
	.byte	W01
@ 070   ----------------------------------------
	.byte		TIE   , Fn1 
	.byte	W72
@ 071   ----------------------------------------
	.byte	W72
@ 072   ----------------------------------------
	.byte	W72
@ 073   ----------------------------------------
	.byte	W68
	.byte	W03
	.byte		EOT   
	.byte	W01
@ 074   ----------------------------------------
	.byte		TIE   , En1 
	.byte	W72
@ 075   ----------------------------------------
	.byte	W72
@ 076   ----------------------------------------
	.byte	W72
@ 077   ----------------------------------------
	.byte	W68
	.byte	W03
	.byte		EOT   
	.byte	W01
@ 078   ----------------------------------------
	.byte		TIE   , Fn1 
	.byte	W72
@ 079   ----------------------------------------
	.byte	W72
@ 080   ----------------------------------------
	.byte	W72
@ 081   ----------------------------------------
	.byte	W68
	.byte	W03
	.byte		EOT   
	.byte	W01
@ 082   ----------------------------------------
	.byte		TIE   , Gn1 
	.byte	W72
@ 083   ----------------------------------------
	.byte	W72
@ 084   ----------------------------------------
	.byte	W72
@ 085   ----------------------------------------
	.byte	W68
	.byte	W03
	.byte		EOT   
	.byte	W01
@ 086   ----------------------------------------
	.byte		TIE   , Fn1 
	.byte	W72
@ 087   ----------------------------------------
	.byte	W72
@ 088   ----------------------------------------
	.byte	W72
@ 089   ----------------------------------------
	.byte	W68
	.byte	W03
	.byte		EOT   
	.byte	W01
@ 090   ----------------------------------------
	.byte		TIE   , En1 
	.byte	W72
@ 091   ----------------------------------------
	.byte	W72
@ 092   ----------------------------------------
	.byte	W72
@ 093   ----------------------------------------
	.byte	W68
	.byte	W03
	.byte		EOT   
	.byte	W01
@ 094   ----------------------------------------
	.byte		TIE   , Fn1 
	.byte	W72
@ 095   ----------------------------------------
	.byte	W72
@ 096   ----------------------------------------
	.byte	W72
@ 097   ----------------------------------------
	.byte	W68
	.byte	W03
	.byte		EOT   
	.byte	W01
@ 098   ----------------------------------------
	.byte		TIE   , Bn0 
	.byte	W72
@ 099   ----------------------------------------
	.byte	W68
	.byte	W03
	.byte		EOT   
	.byte	W01
@ 100   ----------------------------------------
	.byte		TIE   , As0 
	.byte	W72
@ 101   ----------------------------------------
	.byte	W68
	.byte	W03
	.byte		EOT   
	.byte	W01
@ 102   ----------------------------------------
	.byte	W72
@ 103   ----------------------------------------
	.byte	W72
@ 104   ----------------------------------------
	.byte		TIE   , Gn1 
	.byte	W72
@ 105   ----------------------------------------
	.byte	W68
	.byte	W03
	.byte		EOT   
	.byte	W01
@ 106   ----------------------------------------
	.byte		TIE   , Fs1 
	.byte	W72
@ 107   ----------------------------------------
	.byte	W68
	.byte	W03
	.byte		EOT   
	.byte	W01
@ 108   ----------------------------------------
	.byte		TIE   , Fn1 
	.byte	W72
@ 109   ----------------------------------------
	.byte	W68
	.byte	W03
	.byte		EOT   
	.byte	W01
@ 110   ----------------------------------------
	.byte		TIE   , An1 
	.byte	W72
@ 111   ----------------------------------------
	.byte	W68
	.byte	W03
	.byte		EOT   
	.byte	W01
@ 112   ----------------------------------------
	.byte		TIE   , Gn1 
	.byte	W72
@ 113   ----------------------------------------
	.byte	W68
	.byte	W03
	.byte		EOT   
	.byte	W01
@ 114   ----------------------------------------
	.byte		TIE   , Fs1 
	.byte	W72
@ 115   ----------------------------------------
	.byte	W68
	.byte	W03
	.byte		EOT   
	.byte	W01
@ 116   ----------------------------------------
	.byte		TIE   , Fn1 
	.byte	W72
@ 117   ----------------------------------------
	.byte	W68
	.byte	W03
	.byte		EOT   
	.byte	W01
@ 118   ----------------------------------------
	.byte		TIE   , An1 
	.byte	W72
@ 119   ----------------------------------------
	.byte	W72
@ 120   ----------------------------------------
	.byte	W72
@ 121   ----------------------------------------
	.byte	W44
	.byte	W03
	.byte		EOT   
	.byte	W24
	.byte	W01
@ 122   ----------------------------------------
	.byte	W72
@ 123   ----------------------------------------
	.byte	W72
@ 124   ----------------------------------------
	.byte	W72
@ 125   ----------------------------------------
	.byte	W72
@ 126   ----------------------------------------
	.byte	W72
@ 127   ----------------------------------------
	.byte	W72
@ 128   ----------------------------------------
	.byte	W72
@ 129   ----------------------------------------
	.byte	W72
@ 130   ----------------------------------------
	.byte	W72
@ 131   ----------------------------------------
	.byte	W72
@ 132   ----------------------------------------
	.byte	W72
@ 133   ----------------------------------------
	.byte	W72
@ 134   ----------------------------------------
	.byte	W72
@ 135   ----------------------------------------
	.byte	W72
@ 136   ----------------------------------------
	.byte	W72
@ 137   ----------------------------------------
	.byte	W72
@ 138   ----------------------------------------
	.byte	W72
@ 139   ----------------------------------------
	.byte	W72
@ 140   ----------------------------------------
	.byte	W72
@ 141   ----------------------------------------
	.byte	W72
@ 142   ----------------------------------------
	.byte	W72
@ 143   ----------------------------------------
	.byte	W72
@ 144   ----------------------------------------
	.byte	W72
@ 145   ----------------------------------------
	.byte	W72
@ 146   ----------------------------------------
	.byte		TIE   , An0 
	.byte	W72
@ 147   ----------------------------------------
	.byte	W72
@ 148   ----------------------------------------
	.byte	W72
@ 149   ----------------------------------------
	.byte	W72
@ 150   ----------------------------------------
	.byte	W72
@ 151   ----------------------------------------
	.byte	W72
@ 152   ----------------------------------------
	.byte	W72
@ 153   ----------------------------------------
	.byte	W68
	.byte	W03
	.byte		EOT   
	.byte	W01
@ 154   ----------------------------------------
	.byte		TIE   , Gn1 
	.byte	W72
@ 155   ----------------------------------------
	.byte	W68
	.byte	W03
	.byte		EOT   
	.byte	W01
@ 156   ----------------------------------------
	.byte		TIE   , Fs1 
	.byte	W72
@ 157   ----------------------------------------
	.byte	W68
	.byte	W03
	.byte		EOT   
	.byte	W01
@ 158   ----------------------------------------
	.byte		N68   , Cn2 
	.byte	W72
@ 159   ----------------------------------------
	.byte		        Bn1 
	.byte	W72
@ 160   ----------------------------------------
	.byte		TIE   , As1 
	.byte	W72
@ 161   ----------------------------------------
	.byte	W68
	.byte	W03
	.byte		EOT   
	.byte	W01
@ 162   ----------------------------------------
	.byte		N68   , Bn1 
	.byte	W72
@ 163   ----------------------------------------
	.byte		        En1 
	.byte	W72
@ 164   ----------------------------------------
	.byte		        An1 
	.byte	W72
@ 165   ----------------------------------------
	.byte		        Gn1 
	.byte	W72
@ 166   ----------------------------------------
	.byte		        Fn1 
	.byte	W72
@ 167   ----------------------------------------
	.byte		        As1 
	.byte	W72
@ 168   ----------------------------------------
	.byte		TIE   , Bn1 
	.byte	W72
@ 169   ----------------------------------------
	.byte	W68
	.byte	W03
	.byte		EOT   
	.byte	W01
@ 170   ----------------------------------------
	.byte		TIE   , En1 
	.byte	W72
@ 171   ----------------------------------------
	.byte	W68
	.byte	W03
	.byte		EOT   
	.byte	W01
@ 172   ----------------------------------------
	.byte		TIE   , An0 
	.byte	W72
@ 173   ----------------------------------------
	.byte	W72
@ 174   ----------------------------------------
	.byte	W72
@ 175   ----------------------------------------
	.byte	W72
@ 176   ----------------------------------------
	.byte	W72
@ 177   ----------------------------------------
	.byte	W72
@ 178   ----------------------------------------
	.byte	W72
@ 179   ----------------------------------------
	.byte	W68
	.byte	W03
	.byte		EOT   
	.byte	W01
@ 180   ----------------------------------------
	.byte		TIE   
	.byte	W72
@ 181   ----------------------------------------
	.byte	W72
@ 182   ----------------------------------------
	.byte	W72
@ 183   ----------------------------------------
	.byte	W72
@ 184   ----------------------------------------
	.byte	W72
@ 185   ----------------------------------------
	.byte	W72
@ 186   ----------------------------------------
	.byte	W72
@ 187   ----------------------------------------
	.byte	W68
	.byte	W03
	.byte		EOT   
	.byte	W01
@ 188   ----------------------------------------
	.byte		TIE   , Fn1 
	.byte	W72
@ 189   ----------------------------------------
	.byte	W72
@ 190   ----------------------------------------
	.byte	W72
@ 191   ----------------------------------------
	.byte	W68
	.byte	W03
	.byte		EOT   
	.byte	W01
@ 192   ----------------------------------------
	.byte		TIE   , En1 
	.byte	W72
@ 193   ----------------------------------------
	.byte	W72
@ 194   ----------------------------------------
	.byte	W72
@ 195   ----------------------------------------
	.byte	W68
	.byte	W03
	.byte		EOT   
	.byte	W01
@ 196   ----------------------------------------
	.byte		TIE   , Fn1 
	.byte	W72
@ 197   ----------------------------------------
	.byte	W72
@ 198   ----------------------------------------
	.byte	W72
@ 199   ----------------------------------------
	.byte	W68
	.byte	W03
	.byte		EOT   
	.byte	W01
@ 200   ----------------------------------------
	.byte		TIE   , Gn1 
	.byte	W72
@ 201   ----------------------------------------
	.byte	W72
@ 202   ----------------------------------------
	.byte	W72
@ 203   ----------------------------------------
	.byte	W68
	.byte	W03
	.byte		EOT   
	.byte	W01
@ 204   ----------------------------------------
	.byte		TIE   , Fn1 
	.byte	W72
@ 205   ----------------------------------------
	.byte	W72
@ 206   ----------------------------------------
	.byte	W72
@ 207   ----------------------------------------
	.byte	W68
	.byte	W03
	.byte		EOT   
	.byte	W01
@ 208   ----------------------------------------
	.byte		TIE   , En1 
	.byte	W72
@ 209   ----------------------------------------
	.byte	W72
@ 210   ----------------------------------------
	.byte	W72
@ 211   ----------------------------------------
	.byte	W68
	.byte	W03
	.byte		EOT   
	.byte	W01
@ 212   ----------------------------------------
	.byte		TIE   , Fn1 
	.byte	W72
@ 213   ----------------------------------------
	.byte	W72
@ 214   ----------------------------------------
	.byte	W72
@ 215   ----------------------------------------
	.byte	W68
	.byte	W03
	.byte		EOT   
	.byte	W01
@ 216   ----------------------------------------
	.byte		TIE   , Bn0 
	.byte	W72
@ 217   ----------------------------------------
	.byte	W68
	.byte	W03
	.byte		EOT   
	.byte	W01
@ 218   ----------------------------------------
	.byte		TIE   , As0 
	.byte	W72
@ 219   ----------------------------------------
	.byte	W68
	.byte	W03
	.byte		EOT   
	.byte	W01
@ 220   ----------------------------------------
	.byte	W72
@ 221   ----------------------------------------
	.byte	W72
@ 222   ----------------------------------------
	.byte		TIE   , Gn1 
	.byte	W72
@ 223   ----------------------------------------
	.byte	W68
	.byte	W03
	.byte		EOT   
	.byte	W01
@ 224   ----------------------------------------
	.byte		TIE   , Fs1 
	.byte	W72
@ 225   ----------------------------------------
	.byte	W68
	.byte	W03
	.byte		EOT   
	.byte	W01
@ 226   ----------------------------------------
	.byte		TIE   , Fn1 
	.byte	W72
@ 227   ----------------------------------------
	.byte	W68
	.byte	W03
	.byte		EOT   
	.byte	W01
@ 228   ----------------------------------------
	.byte		TIE   , An1 
	.byte	W72
@ 229   ----------------------------------------
	.byte	W68
	.byte	W03
	.byte		EOT   
	.byte	W01
@ 230   ----------------------------------------
	.byte		TIE   , Gn1 
	.byte	W72
@ 231   ----------------------------------------
	.byte	W68
	.byte	W03
	.byte		EOT   
	.byte	W01
@ 232   ----------------------------------------
	.byte		TIE   , Fs1 
	.byte	W72
@ 233   ----------------------------------------
	.byte	W68
	.byte	W03
	.byte		EOT   
	.byte	W01
@ 234   ----------------------------------------
	.byte		TIE   , Fn1 
	.byte	W72
@ 235   ----------------------------------------
	.byte	W68
	.byte	W03
	.byte		EOT   
	.byte	W01
@ 236   ----------------------------------------
	.byte		TIE   , An1 
	.byte	W72
@ 237   ----------------------------------------
	.byte	W72
@ 238   ----------------------------------------
	.byte	W72
@ 239   ----------------------------------------
	.byte	W44
	.byte	W03
	.byte		EOT   
	.byte	W01
	.byte	FINE

@**************** Track 9 (Midi-Chn.4) ****************@

DarkWastes_9:
	.byte	KEYSH , DarkWastes_key+0
@ 000   ----------------------------------------
	.byte		VOICE , 41
	.byte		VOL   , 63*DarkWastes_mvl/mxv
	.byte		PAN   , c_v+0
	.byte		N11   , An4 , v080
	.byte	W12
	.byte		        En4 
	.byte	W12
	.byte		        Gn4 
	.byte	W12
	.byte		        Dn4 
	.byte	W12
	.byte		        An4 
	.byte	W12
	.byte		        En4 
	.byte	W12
@ 001   ----------------------------------------
DarkWastes_9_001:
	.byte		N11   , Gn4 , v080
	.byte	W12
	.byte		        Dn4 
	.byte	W12
	.byte		        An4 
	.byte	W12
	.byte		        En4 
	.byte	W12
	.byte		        Gn4 
	.byte	W12
	.byte		        Dn4 
	.byte	W12
	.byte	PEND
@ 002   ----------------------------------------
DarkWastes_9_002:
	.byte		N11   , An4 , v080
	.byte	W12
	.byte		        En4 
	.byte	W12
	.byte		        Gn4 
	.byte	W12
	.byte		        Dn4 
	.byte	W12
	.byte		        An4 
	.byte	W12
	.byte		        En4 
	.byte	W12
	.byte	PEND
@ 003   ----------------------------------------
	.byte	PATT
	 .word	DarkWastes_9_001
@ 004   ----------------------------------------
	.byte	PATT
	 .word	DarkWastes_9_002
@ 005   ----------------------------------------
	.byte	PATT
	 .word	DarkWastes_9_001
@ 006   ----------------------------------------
	.byte	PATT
	 .word	DarkWastes_9_002
@ 007   ----------------------------------------
	.byte	PATT
	 .word	DarkWastes_9_001
@ 008   ----------------------------------------
	.byte	PATT
	 .word	DarkWastes_9_002
@ 009   ----------------------------------------
	.byte	PATT
	 .word	DarkWastes_9_001
@ 010   ----------------------------------------
	.byte	PATT
	 .word	DarkWastes_9_002
@ 011   ----------------------------------------
	.byte	PATT
	 .word	DarkWastes_9_001
@ 012   ----------------------------------------
	.byte	W72
@ 013   ----------------------------------------
	.byte	W72
@ 014   ----------------------------------------
	.byte	W72
@ 015   ----------------------------------------
	.byte	W72
@ 016   ----------------------------------------
	.byte	W72
@ 017   ----------------------------------------
	.byte	W72
@ 018   ----------------------------------------
	.byte	W72
@ 019   ----------------------------------------
	.byte	W72
@ 020   ----------------------------------------
	.byte	PATT
	 .word	DarkWastes_9_002
@ 021   ----------------------------------------
	.byte	PATT
	 .word	DarkWastes_9_001
@ 022   ----------------------------------------
	.byte	PATT
	 .word	DarkWastes_9_002
@ 023   ----------------------------------------
	.byte	PATT
	 .word	DarkWastes_9_001
@ 024   ----------------------------------------
	.byte	PATT
	 .word	DarkWastes_9_002
@ 025   ----------------------------------------
	.byte	PATT
	 .word	DarkWastes_9_001
@ 026   ----------------------------------------
	.byte	PATT
	 .word	DarkWastes_9_002
@ 027   ----------------------------------------
	.byte	PATT
	 .word	DarkWastes_9_001
@ 028   ----------------------------------------
	.byte	W72
@ 029   ----------------------------------------
	.byte	W72
@ 030   ----------------------------------------
	.byte	W72
@ 031   ----------------------------------------
	.byte	W72
@ 032   ----------------------------------------
	.byte	W72
@ 033   ----------------------------------------
	.byte	W72
@ 034   ----------------------------------------
	.byte	W72
@ 035   ----------------------------------------
	.byte	W72
@ 036   ----------------------------------------
	.byte	W72
@ 037   ----------------------------------------
	.byte	W72
@ 038   ----------------------------------------
	.byte	W72
@ 039   ----------------------------------------
	.byte	W72
@ 040   ----------------------------------------
	.byte	W72
@ 041   ----------------------------------------
	.byte	W72
@ 042   ----------------------------------------
	.byte	W72
@ 043   ----------------------------------------
	.byte	W72
@ 044   ----------------------------------------
	.byte	W72
@ 045   ----------------------------------------
	.byte	W72
@ 046   ----------------------------------------
	.byte	W72
@ 047   ----------------------------------------
	.byte	W72
@ 048   ----------------------------------------
	.byte	W72
@ 049   ----------------------------------------
	.byte	W72
@ 050   ----------------------------------------
	.byte	W72
@ 051   ----------------------------------------
	.byte	W72
@ 052   ----------------------------------------
	.byte	W72
@ 053   ----------------------------------------
	.byte	W72
@ 054   ----------------------------------------
	.byte	W72
@ 055   ----------------------------------------
	.byte	W72
@ 056   ----------------------------------------
	.byte	W72
@ 057   ----------------------------------------
	.byte	W72
@ 058   ----------------------------------------
	.byte	W72
@ 059   ----------------------------------------
	.byte	W72
@ 060   ----------------------------------------
	.byte	W72
@ 061   ----------------------------------------
	.byte	W72
@ 062   ----------------------------------------
	.byte	W72
@ 063   ----------------------------------------
	.byte	W72
@ 064   ----------------------------------------
	.byte	W72
@ 065   ----------------------------------------
	.byte	W72
@ 066   ----------------------------------------
	.byte	W72
@ 067   ----------------------------------------
	.byte	W72
@ 068   ----------------------------------------
	.byte	W72
@ 069   ----------------------------------------
	.byte	W72
@ 070   ----------------------------------------
	.byte	W72
@ 071   ----------------------------------------
	.byte	W72
@ 072   ----------------------------------------
	.byte	W72
@ 073   ----------------------------------------
	.byte	W72
@ 074   ----------------------------------------
	.byte	W72
@ 075   ----------------------------------------
	.byte	W72
@ 076   ----------------------------------------
	.byte	W72
@ 077   ----------------------------------------
	.byte	W72
@ 078   ----------------------------------------
	.byte	W72
@ 079   ----------------------------------------
	.byte	W72
@ 080   ----------------------------------------
	.byte	W72
@ 081   ----------------------------------------
	.byte	W72
@ 082   ----------------------------------------
	.byte	W72
@ 083   ----------------------------------------
	.byte	W72
@ 084   ----------------------------------------
	.byte	W72
@ 085   ----------------------------------------
	.byte	W72
@ 086   ----------------------------------------
	.byte	W72
@ 087   ----------------------------------------
	.byte	W72
@ 088   ----------------------------------------
	.byte	W72
@ 089   ----------------------------------------
	.byte	W72
@ 090   ----------------------------------------
	.byte	W72
@ 091   ----------------------------------------
	.byte	W72
@ 092   ----------------------------------------
	.byte	W72
@ 093   ----------------------------------------
	.byte	W72
@ 094   ----------------------------------------
	.byte	W72
@ 095   ----------------------------------------
	.byte	W72
@ 096   ----------------------------------------
	.byte	W72
@ 097   ----------------------------------------
	.byte	W72
@ 098   ----------------------------------------
	.byte	W72
@ 099   ----------------------------------------
	.byte	W72
@ 100   ----------------------------------------
	.byte	W72
@ 101   ----------------------------------------
	.byte	W72
@ 102   ----------------------------------------
	.byte	W72
@ 103   ----------------------------------------
	.byte	W72
@ 104   ----------------------------------------
	.byte	W72
@ 105   ----------------------------------------
	.byte	W72
@ 106   ----------------------------------------
	.byte	W72
@ 107   ----------------------------------------
	.byte	W72
@ 108   ----------------------------------------
	.byte	W72
@ 109   ----------------------------------------
	.byte	W72
@ 110   ----------------------------------------
	.byte	W72
@ 111   ----------------------------------------
	.byte	W72
@ 112   ----------------------------------------
	.byte	W72
@ 113   ----------------------------------------
	.byte	W72
@ 114   ----------------------------------------
	.byte	W72
@ 115   ----------------------------------------
	.byte	W72
@ 116   ----------------------------------------
	.byte	W72
@ 117   ----------------------------------------
	.byte	W72
@ 118   ----------------------------------------
DarkWastes_9_118:
	.byte		N11   , An4 , v088
	.byte	W12
	.byte		        En4 
	.byte	W12
	.byte		        Gn4 
	.byte	W12
	.byte		        Dn4 
	.byte	W12
	.byte		        An4 
	.byte	W12
	.byte		        En4 
	.byte	W12
	.byte	PEND
@ 119   ----------------------------------------
DarkWastes_9_119:
	.byte		N11   , Gn4 , v088
	.byte	W12
	.byte		        Dn4 
	.byte	W12
	.byte		        An4 
	.byte	W12
	.byte		        En4 
	.byte	W12
	.byte		        Gn4 
	.byte	W12
	.byte		        Dn4 
	.byte	W12
	.byte	PEND
@ 120   ----------------------------------------
	.byte	PATT
	 .word	DarkWastes_9_118
@ 121   ----------------------------------------
	.byte	PATT
	 .word	DarkWastes_9_119
@ 122   ----------------------------------------
	.byte	PATT
	 .word	DarkWastes_9_002
@ 123   ----------------------------------------
	.byte	PATT
	 .word	DarkWastes_9_001
@ 124   ----------------------------------------
	.byte	PATT
	 .word	DarkWastes_9_002
@ 125   ----------------------------------------
	.byte	PATT
	 .word	DarkWastes_9_001
@ 126   ----------------------------------------
	.byte	PATT
	 .word	DarkWastes_9_002
@ 127   ----------------------------------------
	.byte	PATT
	 .word	DarkWastes_9_001
@ 128   ----------------------------------------
	.byte	PATT
	 .word	DarkWastes_9_002
@ 129   ----------------------------------------
	.byte	PATT
	 .word	DarkWastes_9_001
@ 130   ----------------------------------------
	.byte	W72
@ 131   ----------------------------------------
	.byte	W72
@ 132   ----------------------------------------
	.byte	W72
@ 133   ----------------------------------------
	.byte	W72
@ 134   ----------------------------------------
	.byte	W72
@ 135   ----------------------------------------
	.byte	W72
@ 136   ----------------------------------------
	.byte	W72
@ 137   ----------------------------------------
	.byte	W72
@ 138   ----------------------------------------
	.byte	PATT
	 .word	DarkWastes_9_002
@ 139   ----------------------------------------
	.byte	PATT
	 .word	DarkWastes_9_001
@ 140   ----------------------------------------
	.byte	PATT
	 .word	DarkWastes_9_002
@ 141   ----------------------------------------
	.byte	PATT
	 .word	DarkWastes_9_001
@ 142   ----------------------------------------
	.byte	PATT
	 .word	DarkWastes_9_002
@ 143   ----------------------------------------
	.byte	PATT
	 .word	DarkWastes_9_001
@ 144   ----------------------------------------
	.byte	PATT
	 .word	DarkWastes_9_002
@ 145   ----------------------------------------
	.byte	PATT
	 .word	DarkWastes_9_001
@ 146   ----------------------------------------
	.byte	W72
@ 147   ----------------------------------------
	.byte	W72
@ 148   ----------------------------------------
	.byte	W72
@ 149   ----------------------------------------
	.byte	W72
@ 150   ----------------------------------------
	.byte	W72
@ 151   ----------------------------------------
	.byte	W72
@ 152   ----------------------------------------
	.byte	W72
@ 153   ----------------------------------------
	.byte	W72
@ 154   ----------------------------------------
	.byte	W72
@ 155   ----------------------------------------
	.byte	W72
@ 156   ----------------------------------------
	.byte	W72
@ 157   ----------------------------------------
	.byte	W72
@ 158   ----------------------------------------
	.byte	W72
@ 159   ----------------------------------------
	.byte	W72
@ 160   ----------------------------------------
	.byte	W72
@ 161   ----------------------------------------
	.byte	W72
@ 162   ----------------------------------------
	.byte	W72
@ 163   ----------------------------------------
	.byte	W72
@ 164   ----------------------------------------
	.byte	W72
@ 165   ----------------------------------------
	.byte	W72
@ 166   ----------------------------------------
	.byte	W72
@ 167   ----------------------------------------
	.byte	W72
@ 168   ----------------------------------------
	.byte	W72
@ 169   ----------------------------------------
	.byte	W72
@ 170   ----------------------------------------
	.byte	W72
@ 171   ----------------------------------------
	.byte	W72
@ 172   ----------------------------------------
	.byte	W72
@ 173   ----------------------------------------
	.byte	W72
@ 174   ----------------------------------------
	.byte	W72
@ 175   ----------------------------------------
	.byte	W72
@ 176   ----------------------------------------
	.byte	W72
@ 177   ----------------------------------------
	.byte	W72
@ 178   ----------------------------------------
	.byte	W72
@ 179   ----------------------------------------
	.byte	W72
@ 180   ----------------------------------------
	.byte	W72
@ 181   ----------------------------------------
	.byte	W72
@ 182   ----------------------------------------
	.byte	W72
@ 183   ----------------------------------------
	.byte	W72
@ 184   ----------------------------------------
	.byte	W72
@ 185   ----------------------------------------
	.byte	W72
@ 186   ----------------------------------------
	.byte	W72
@ 187   ----------------------------------------
	.byte	W72
@ 188   ----------------------------------------
	.byte	W72
@ 189   ----------------------------------------
	.byte	W72
@ 190   ----------------------------------------
	.byte	W72
@ 191   ----------------------------------------
	.byte	W72
@ 192   ----------------------------------------
	.byte	W72
@ 193   ----------------------------------------
	.byte	W72
@ 194   ----------------------------------------
	.byte	W72
@ 195   ----------------------------------------
	.byte	W72
@ 196   ----------------------------------------
	.byte	W72
@ 197   ----------------------------------------
	.byte	W72
@ 198   ----------------------------------------
	.byte	W72
@ 199   ----------------------------------------
	.byte	W72
@ 200   ----------------------------------------
	.byte	W72
@ 201   ----------------------------------------
	.byte	W72
@ 202   ----------------------------------------
	.byte	W72
@ 203   ----------------------------------------
	.byte	W72
@ 204   ----------------------------------------
	.byte	W72
@ 205   ----------------------------------------
	.byte	W72
@ 206   ----------------------------------------
	.byte	W72
@ 207   ----------------------------------------
	.byte	W72
@ 208   ----------------------------------------
	.byte	W72
@ 209   ----------------------------------------
	.byte	W72
@ 210   ----------------------------------------
	.byte	W72
@ 211   ----------------------------------------
	.byte	W72
@ 212   ----------------------------------------
	.byte	W72
@ 213   ----------------------------------------
	.byte	W72
@ 214   ----------------------------------------
	.byte	W72
@ 215   ----------------------------------------
	.byte	W72
@ 216   ----------------------------------------
	.byte	W72
@ 217   ----------------------------------------
	.byte	W72
@ 218   ----------------------------------------
	.byte	W72
@ 219   ----------------------------------------
	.byte	W72
@ 220   ----------------------------------------
	.byte	W72
@ 221   ----------------------------------------
	.byte	W72
@ 222   ----------------------------------------
	.byte	W72
@ 223   ----------------------------------------
	.byte	W72
@ 224   ----------------------------------------
	.byte	W72
@ 225   ----------------------------------------
	.byte	W72
@ 226   ----------------------------------------
	.byte	W72
@ 227   ----------------------------------------
	.byte	W72
@ 228   ----------------------------------------
	.byte	W72
@ 229   ----------------------------------------
	.byte	W72
@ 230   ----------------------------------------
	.byte	W72
@ 231   ----------------------------------------
	.byte	W72
@ 232   ----------------------------------------
	.byte	W72
@ 233   ----------------------------------------
	.byte	W72
@ 234   ----------------------------------------
	.byte	W72
@ 235   ----------------------------------------
	.byte	W72
@ 236   ----------------------------------------
	.byte	PATT
	 .word	DarkWastes_9_118
@ 237   ----------------------------------------
	.byte	PATT
	 .word	DarkWastes_9_119
@ 238   ----------------------------------------
	.byte	PATT
	 .word	DarkWastes_9_118
@ 239   ----------------------------------------
	.byte	PATT
	 .word	DarkWastes_9_119
@ 240   ----------------------------------------
	.byte	FINE

@**************** Track 10 (Midi-Chn.5) ****************@

DarkWastes_10:
	.byte	KEYSH , DarkWastes_key+0
@ 000   ----------------------------------------
	.byte		VOICE , 45
	.byte		VOL   , 85*DarkWastes_mvl/mxv
	.byte		PAN   , c_v+0
	.byte		N11   , An3 , v080
	.byte	W12
	.byte		        Cn4 
	.byte	W12
	.byte		        Gn3 
	.byte	W12
	.byte		        An3 
	.byte	W12
	.byte		        Dn3 
	.byte	W12
	.byte		        Gn3 
	.byte	W12
@ 001   ----------------------------------------
DarkWastes_10_001:
	.byte		N11   , An3 , v080
	.byte	W12
	.byte		        Cn4 
	.byte	W12
	.byte		        Gn3 
	.byte	W12
	.byte		        An3 
	.byte	W12
	.byte		        Dn3 
	.byte	W12
	.byte		        Gn3 
	.byte	W12
	.byte	PEND
@ 002   ----------------------------------------
	.byte	PATT
	 .word	DarkWastes_10_001
@ 003   ----------------------------------------
	.byte	PATT
	 .word	DarkWastes_10_001
@ 004   ----------------------------------------
	.byte	PATT
	 .word	DarkWastes_10_001
@ 005   ----------------------------------------
	.byte	PATT
	 .word	DarkWastes_10_001
@ 006   ----------------------------------------
	.byte	PATT
	 .word	DarkWastes_10_001
@ 007   ----------------------------------------
	.byte	PATT
	 .word	DarkWastes_10_001
@ 008   ----------------------------------------
	.byte	PATT
	 .word	DarkWastes_10_001
@ 009   ----------------------------------------
	.byte	PATT
	 .word	DarkWastes_10_001
@ 010   ----------------------------------------
	.byte	PATT
	 .word	DarkWastes_10_001
@ 011   ----------------------------------------
	.byte	PATT
	 .word	DarkWastes_10_001
@ 012   ----------------------------------------
	.byte	W72
@ 013   ----------------------------------------
	.byte	W72
@ 014   ----------------------------------------
	.byte	W72
@ 015   ----------------------------------------
	.byte	W72
@ 016   ----------------------------------------
	.byte	W72
@ 017   ----------------------------------------
	.byte	W72
@ 018   ----------------------------------------
	.byte	W72
@ 019   ----------------------------------------
	.byte	W72
@ 020   ----------------------------------------
	.byte	W72
@ 021   ----------------------------------------
	.byte	W72
@ 022   ----------------------------------------
	.byte	W72
@ 023   ----------------------------------------
	.byte	W72
@ 024   ----------------------------------------
	.byte	W72
@ 025   ----------------------------------------
	.byte	W72
@ 026   ----------------------------------------
	.byte	W72
@ 027   ----------------------------------------
	.byte	W72
@ 028   ----------------------------------------
	.byte	W72
@ 029   ----------------------------------------
	.byte	W72
@ 030   ----------------------------------------
	.byte	W72
@ 031   ----------------------------------------
	.byte	W72
@ 032   ----------------------------------------
	.byte	W72
@ 033   ----------------------------------------
	.byte	W72
@ 034   ----------------------------------------
	.byte	W72
@ 035   ----------------------------------------
	.byte	W72
@ 036   ----------------------------------------
	.byte	W72
@ 037   ----------------------------------------
	.byte	W72
@ 038   ----------------------------------------
	.byte	W72
@ 039   ----------------------------------------
	.byte	W72
@ 040   ----------------------------------------
	.byte	W72
@ 041   ----------------------------------------
	.byte	W72
@ 042   ----------------------------------------
	.byte	W72
@ 043   ----------------------------------------
	.byte	W72
@ 044   ----------------------------------------
	.byte	W72
@ 045   ----------------------------------------
	.byte	W72
@ 046   ----------------------------------------
	.byte	W72
@ 047   ----------------------------------------
	.byte	W72
@ 048   ----------------------------------------
	.byte	W72
@ 049   ----------------------------------------
	.byte	W72
@ 050   ----------------------------------------
	.byte	W72
@ 051   ----------------------------------------
	.byte	W72
@ 052   ----------------------------------------
	.byte	W72
@ 053   ----------------------------------------
	.byte	W72
@ 054   ----------------------------------------
	.byte	W72
@ 055   ----------------------------------------
	.byte	W72
@ 056   ----------------------------------------
	.byte	W72
@ 057   ----------------------------------------
	.byte	W72
@ 058   ----------------------------------------
	.byte	W72
@ 059   ----------------------------------------
	.byte	W72
@ 060   ----------------------------------------
	.byte	W72
@ 061   ----------------------------------------
	.byte	W72
@ 062   ----------------------------------------
	.byte	W72
@ 063   ----------------------------------------
	.byte	W72
@ 064   ----------------------------------------
	.byte	W72
@ 065   ----------------------------------------
	.byte	W72
@ 066   ----------------------------------------
	.byte	W72
@ 067   ----------------------------------------
	.byte	W72
@ 068   ----------------------------------------
	.byte	W72
@ 069   ----------------------------------------
	.byte	W72
@ 070   ----------------------------------------
	.byte	W72
@ 071   ----------------------------------------
	.byte	W72
@ 072   ----------------------------------------
	.byte	W72
@ 073   ----------------------------------------
	.byte	W72
@ 074   ----------------------------------------
	.byte	W72
@ 075   ----------------------------------------
	.byte	W72
@ 076   ----------------------------------------
	.byte	W72
@ 077   ----------------------------------------
	.byte	W72
@ 078   ----------------------------------------
	.byte	W72
@ 079   ----------------------------------------
	.byte	W72
@ 080   ----------------------------------------
	.byte	W72
@ 081   ----------------------------------------
	.byte	W72
@ 082   ----------------------------------------
	.byte	W72
@ 083   ----------------------------------------
	.byte	W72
@ 084   ----------------------------------------
	.byte	W72
@ 085   ----------------------------------------
	.byte	W72
@ 086   ----------------------------------------
	.byte	W72
@ 087   ----------------------------------------
	.byte	W72
@ 088   ----------------------------------------
	.byte	W72
@ 089   ----------------------------------------
	.byte	W72
@ 090   ----------------------------------------
	.byte	W72
@ 091   ----------------------------------------
	.byte	W72
@ 092   ----------------------------------------
	.byte	W72
@ 093   ----------------------------------------
	.byte	W72
@ 094   ----------------------------------------
	.byte	W72
@ 095   ----------------------------------------
	.byte	W72
@ 096   ----------------------------------------
	.byte	W72
@ 097   ----------------------------------------
	.byte	W72
@ 098   ----------------------------------------
	.byte	W72
@ 099   ----------------------------------------
	.byte	W72
@ 100   ----------------------------------------
	.byte	W72
@ 101   ----------------------------------------
	.byte	W72
@ 102   ----------------------------------------
	.byte	W72
@ 103   ----------------------------------------
	.byte	W72
@ 104   ----------------------------------------
	.byte	W72
@ 105   ----------------------------------------
	.byte	W72
@ 106   ----------------------------------------
	.byte	W72
@ 107   ----------------------------------------
	.byte	W72
@ 108   ----------------------------------------
	.byte	W72
@ 109   ----------------------------------------
	.byte	W72
@ 110   ----------------------------------------
	.byte	W72
@ 111   ----------------------------------------
	.byte	W72
@ 112   ----------------------------------------
	.byte	W72
@ 113   ----------------------------------------
	.byte	W72
@ 114   ----------------------------------------
	.byte	W72
@ 115   ----------------------------------------
	.byte	W72
@ 116   ----------------------------------------
	.byte	W72
@ 117   ----------------------------------------
	.byte	W72
@ 118   ----------------------------------------
DarkWastes_10_118:
	.byte		N11   , An3 , v068
	.byte	W12
	.byte		        Cn4 
	.byte	W12
	.byte		        Gn3 
	.byte	W12
	.byte		        An3 
	.byte	W12
	.byte		        Dn3 
	.byte	W12
	.byte		        Gn3 
	.byte	W12
	.byte	PEND
@ 119   ----------------------------------------
	.byte	PATT
	 .word	DarkWastes_10_118
@ 120   ----------------------------------------
	.byte	PATT
	 .word	DarkWastes_10_118
@ 121   ----------------------------------------
	.byte	PATT
	 .word	DarkWastes_10_118
@ 122   ----------------------------------------
	.byte	PATT
	 .word	DarkWastes_10_001
@ 123   ----------------------------------------
	.byte	PATT
	 .word	DarkWastes_10_001
@ 124   ----------------------------------------
	.byte	PATT
	 .word	DarkWastes_10_001
@ 125   ----------------------------------------
	.byte	PATT
	 .word	DarkWastes_10_001
@ 126   ----------------------------------------
	.byte	PATT
	 .word	DarkWastes_10_001
@ 127   ----------------------------------------
	.byte	PATT
	 .word	DarkWastes_10_001
@ 128   ----------------------------------------
	.byte	PATT
	 .word	DarkWastes_10_001
@ 129   ----------------------------------------
	.byte	PATT
	 .word	DarkWastes_10_001
@ 130   ----------------------------------------
	.byte	W72
@ 131   ----------------------------------------
	.byte	W72
@ 132   ----------------------------------------
	.byte	W72
@ 133   ----------------------------------------
	.byte	W72
@ 134   ----------------------------------------
	.byte	W72
@ 135   ----------------------------------------
	.byte	W72
@ 136   ----------------------------------------
	.byte	W72
@ 137   ----------------------------------------
	.byte	W72
@ 138   ----------------------------------------
	.byte	W72
@ 139   ----------------------------------------
	.byte	W72
@ 140   ----------------------------------------
	.byte	W72
@ 141   ----------------------------------------
	.byte	W72
@ 142   ----------------------------------------
	.byte	W72
@ 143   ----------------------------------------
	.byte	W72
@ 144   ----------------------------------------
	.byte	W72
@ 145   ----------------------------------------
	.byte	W72
@ 146   ----------------------------------------
	.byte	W72
@ 147   ----------------------------------------
	.byte	W72
@ 148   ----------------------------------------
	.byte	W72
@ 149   ----------------------------------------
	.byte	W72
@ 150   ----------------------------------------
	.byte	W72
@ 151   ----------------------------------------
	.byte	W72
@ 152   ----------------------------------------
	.byte	W72
@ 153   ----------------------------------------
	.byte	W72
@ 154   ----------------------------------------
	.byte	W72
@ 155   ----------------------------------------
	.byte	W72
@ 156   ----------------------------------------
	.byte	W72
@ 157   ----------------------------------------
	.byte	W72
@ 158   ----------------------------------------
	.byte	W72
@ 159   ----------------------------------------
	.byte	W72
@ 160   ----------------------------------------
	.byte	W72
@ 161   ----------------------------------------
	.byte	W72
@ 162   ----------------------------------------
	.byte	W72
@ 163   ----------------------------------------
	.byte	W72
@ 164   ----------------------------------------
	.byte	W72
@ 165   ----------------------------------------
	.byte	W72
@ 166   ----------------------------------------
	.byte	W72
@ 167   ----------------------------------------
	.byte	W72
@ 168   ----------------------------------------
	.byte	W72
@ 169   ----------------------------------------
	.byte	W72
@ 170   ----------------------------------------
	.byte	W72
@ 171   ----------------------------------------
	.byte	W72
@ 172   ----------------------------------------
	.byte	W72
@ 173   ----------------------------------------
	.byte	W72
@ 174   ----------------------------------------
	.byte	W72
@ 175   ----------------------------------------
	.byte	W72
@ 176   ----------------------------------------
	.byte	W72
@ 177   ----------------------------------------
	.byte	W72
@ 178   ----------------------------------------
	.byte	W72
@ 179   ----------------------------------------
	.byte	W72
@ 180   ----------------------------------------
	.byte	W72
@ 181   ----------------------------------------
	.byte	W72
@ 182   ----------------------------------------
	.byte	W72
@ 183   ----------------------------------------
	.byte	W72
@ 184   ----------------------------------------
	.byte	W72
@ 185   ----------------------------------------
	.byte	W72
@ 186   ----------------------------------------
	.byte	W72
@ 187   ----------------------------------------
	.byte	W72
@ 188   ----------------------------------------
	.byte	W72
@ 189   ----------------------------------------
	.byte	W72
@ 190   ----------------------------------------
	.byte	W72
@ 191   ----------------------------------------
	.byte	W72
@ 192   ----------------------------------------
	.byte	W72
@ 193   ----------------------------------------
	.byte	W72
@ 194   ----------------------------------------
	.byte	W72
@ 195   ----------------------------------------
	.byte	W72
@ 196   ----------------------------------------
	.byte	W72
@ 197   ----------------------------------------
	.byte	W72
@ 198   ----------------------------------------
	.byte	W72
@ 199   ----------------------------------------
	.byte	W72
@ 200   ----------------------------------------
	.byte	W72
@ 201   ----------------------------------------
	.byte	W72
@ 202   ----------------------------------------
	.byte	W72
@ 203   ----------------------------------------
	.byte	W72
@ 204   ----------------------------------------
	.byte	W72
@ 205   ----------------------------------------
	.byte	W72
@ 206   ----------------------------------------
	.byte	W72
@ 207   ----------------------------------------
	.byte	W72
@ 208   ----------------------------------------
	.byte	W72
@ 209   ----------------------------------------
	.byte	W72
@ 210   ----------------------------------------
	.byte	W72
@ 211   ----------------------------------------
	.byte	W72
@ 212   ----------------------------------------
	.byte	W72
@ 213   ----------------------------------------
	.byte	W72
@ 214   ----------------------------------------
	.byte	W72
@ 215   ----------------------------------------
	.byte	W72
@ 216   ----------------------------------------
	.byte	W72
@ 217   ----------------------------------------
	.byte	W72
@ 218   ----------------------------------------
	.byte	W72
@ 219   ----------------------------------------
	.byte	W72
@ 220   ----------------------------------------
	.byte	W72
@ 221   ----------------------------------------
	.byte	W72
@ 222   ----------------------------------------
	.byte	W72
@ 223   ----------------------------------------
	.byte	W72
@ 224   ----------------------------------------
	.byte	W72
@ 225   ----------------------------------------
	.byte	W72
@ 226   ----------------------------------------
	.byte	W72
@ 227   ----------------------------------------
	.byte	W72
@ 228   ----------------------------------------
	.byte	W72
@ 229   ----------------------------------------
	.byte	W72
@ 230   ----------------------------------------
	.byte	W72
@ 231   ----------------------------------------
	.byte	W72
@ 232   ----------------------------------------
	.byte	W72
@ 233   ----------------------------------------
	.byte	W72
@ 234   ----------------------------------------
	.byte	W72
@ 235   ----------------------------------------
	.byte	W72
@ 236   ----------------------------------------
	.byte	PATT
	 .word	DarkWastes_10_118
@ 237   ----------------------------------------
	.byte	PATT
	 .word	DarkWastes_10_118
@ 238   ----------------------------------------
	.byte	PATT
	 .word	DarkWastes_10_118
@ 239   ----------------------------------------
	.byte	PATT
	 .word	DarkWastes_10_118
@ 240   ----------------------------------------
	.byte	FINE

@**************** Track 11 (Midi-Chn.6) ****************@

DarkWastes_11:
	.byte	KEYSH , DarkWastes_key+0
@ 000   ----------------------------------------
	.byte		VOICE , 47
	.byte		VOL   , 100*DarkWastes_mvl/mxv
	.byte		PAN   , c_v+0
	.byte	W72
@ 001   ----------------------------------------
	.byte	W72
@ 002   ----------------------------------------
	.byte	W72
@ 003   ----------------------------------------
	.byte	W72
@ 004   ----------------------------------------
	.byte	W72
@ 005   ----------------------------------------
	.byte	W72
@ 006   ----------------------------------------
	.byte	W72
@ 007   ----------------------------------------
	.byte	W72
@ 008   ----------------------------------------
	.byte	W72
@ 009   ----------------------------------------
	.byte	W72
@ 010   ----------------------------------------
	.byte	W72
@ 011   ----------------------------------------
	.byte	W72
@ 012   ----------------------------------------
	.byte	W72
@ 013   ----------------------------------------
	.byte	W72
@ 014   ----------------------------------------
	.byte	W72
@ 015   ----------------------------------------
	.byte	W72
@ 016   ----------------------------------------
	.byte	W72
@ 017   ----------------------------------------
	.byte	W72
@ 018   ----------------------------------------
	.byte	W72
@ 019   ----------------------------------------
	.byte	W72
@ 020   ----------------------------------------
	.byte	W72
@ 021   ----------------------------------------
	.byte	W72
@ 022   ----------------------------------------
	.byte	W72
@ 023   ----------------------------------------
	.byte	W72
@ 024   ----------------------------------------
	.byte	W72
@ 025   ----------------------------------------
	.byte	W72
@ 026   ----------------------------------------
	.byte	W72
@ 027   ----------------------------------------
	.byte	W72
@ 028   ----------------------------------------
	.byte	W72
@ 029   ----------------------------------------
	.byte	W72
@ 030   ----------------------------------------
	.byte	W72
@ 031   ----------------------------------------
	.byte	W72
@ 032   ----------------------------------------
	.byte	W72
@ 033   ----------------------------------------
	.byte	W72
@ 034   ----------------------------------------
	.byte	W72
@ 035   ----------------------------------------
	.byte	W72
@ 036   ----------------------------------------
	.byte	W72
@ 037   ----------------------------------------
	.byte	W72
@ 038   ----------------------------------------
	.byte	W72
@ 039   ----------------------------------------
	.byte	W72
@ 040   ----------------------------------------
	.byte	W72
@ 041   ----------------------------------------
	.byte	W72
@ 042   ----------------------------------------
	.byte	W72
@ 043   ----------------------------------------
	.byte	W72
@ 044   ----------------------------------------
	.byte	W72
@ 045   ----------------------------------------
	.byte	W72
@ 046   ----------------------------------------
	.byte	W72
@ 047   ----------------------------------------
	.byte	W72
@ 048   ----------------------------------------
	.byte	W72
@ 049   ----------------------------------------
	.byte	W72
@ 050   ----------------------------------------
	.byte		N68   , Bn1 , v096
	.byte	W72
@ 051   ----------------------------------------
	.byte	W72
@ 052   ----------------------------------------
	.byte	W72
@ 053   ----------------------------------------
DarkWastes_11_053:
	.byte	W36
	.byte		N05   , En1 , v096
	.byte	W06
	.byte		N05   
	.byte	W06
	.byte		N05   
	.byte	W06
	.byte		N05   
	.byte	W06
	.byte		N05   
	.byte	W06
	.byte		N05   
	.byte	W06
	.byte	PEND
@ 054   ----------------------------------------
	.byte	W72
@ 055   ----------------------------------------
	.byte	W72
@ 056   ----------------------------------------
	.byte	W72
@ 057   ----------------------------------------
	.byte	W72
@ 058   ----------------------------------------
	.byte	W72
@ 059   ----------------------------------------
	.byte	W72
@ 060   ----------------------------------------
	.byte	W72
@ 061   ----------------------------------------
	.byte	W72
@ 062   ----------------------------------------
	.byte	W72
@ 063   ----------------------------------------
	.byte	W72
@ 064   ----------------------------------------
	.byte	W72
@ 065   ----------------------------------------
	.byte	W72
@ 066   ----------------------------------------
	.byte	W72
@ 067   ----------------------------------------
	.byte	W72
@ 068   ----------------------------------------
	.byte	W72
@ 069   ----------------------------------------
	.byte	W72
@ 070   ----------------------------------------
	.byte	W72
@ 071   ----------------------------------------
	.byte	W72
@ 072   ----------------------------------------
	.byte	W72
@ 073   ----------------------------------------
	.byte	W72
@ 074   ----------------------------------------
	.byte	W72
@ 075   ----------------------------------------
	.byte	W72
@ 076   ----------------------------------------
	.byte	W72
@ 077   ----------------------------------------
	.byte	W72
@ 078   ----------------------------------------
	.byte	W72
@ 079   ----------------------------------------
	.byte	W72
@ 080   ----------------------------------------
	.byte	W72
@ 081   ----------------------------------------
	.byte	W72
@ 082   ----------------------------------------
	.byte	W72
@ 083   ----------------------------------------
	.byte	W72
@ 084   ----------------------------------------
	.byte	W72
@ 085   ----------------------------------------
	.byte	W72
@ 086   ----------------------------------------
	.byte	W72
@ 087   ----------------------------------------
	.byte	W72
@ 088   ----------------------------------------
	.byte	W72
@ 089   ----------------------------------------
	.byte	W72
@ 090   ----------------------------------------
	.byte	W72
@ 091   ----------------------------------------
	.byte	W72
@ 092   ----------------------------------------
	.byte	W72
@ 093   ----------------------------------------
	.byte	W72
@ 094   ----------------------------------------
	.byte	W72
@ 095   ----------------------------------------
	.byte	W72
@ 096   ----------------------------------------
	.byte	W72
@ 097   ----------------------------------------
	.byte	W72
@ 098   ----------------------------------------
	.byte	W72
@ 099   ----------------------------------------
	.byte	W72
@ 100   ----------------------------------------
	.byte	W72
@ 101   ----------------------------------------
	.byte	PATT
	 .word	DarkWastes_11_053
@ 102   ----------------------------------------
	.byte		N44   , An1 , v096
	.byte	W72
@ 103   ----------------------------------------
	.byte	W72
@ 104   ----------------------------------------
	.byte	W72
@ 105   ----------------------------------------
	.byte	W72
@ 106   ----------------------------------------
	.byte	W72
@ 107   ----------------------------------------
	.byte	W72
@ 108   ----------------------------------------
	.byte	W72
@ 109   ----------------------------------------
	.byte	W72
@ 110   ----------------------------------------
	.byte	W72
@ 111   ----------------------------------------
	.byte	W72
@ 112   ----------------------------------------
	.byte	W72
@ 113   ----------------------------------------
	.byte	W72
@ 114   ----------------------------------------
	.byte	W72
@ 115   ----------------------------------------
	.byte	W72
@ 116   ----------------------------------------
	.byte	W72
@ 117   ----------------------------------------
	.byte	W72
@ 118   ----------------------------------------
	.byte	W72
@ 119   ----------------------------------------
	.byte	W72
@ 120   ----------------------------------------
	.byte	W72
@ 121   ----------------------------------------
	.byte	W72
@ 122   ----------------------------------------
	.byte	W72
@ 123   ----------------------------------------
	.byte	W72
@ 124   ----------------------------------------
	.byte	W72
@ 125   ----------------------------------------
	.byte	W72
@ 126   ----------------------------------------
	.byte	W72
@ 127   ----------------------------------------
	.byte	W72
@ 128   ----------------------------------------
	.byte	W72
@ 129   ----------------------------------------
	.byte	W72
@ 130   ----------------------------------------
	.byte	W72
@ 131   ----------------------------------------
	.byte	W72
@ 132   ----------------------------------------
	.byte	W72
@ 133   ----------------------------------------
	.byte	W72
@ 134   ----------------------------------------
	.byte	W72
@ 135   ----------------------------------------
	.byte	W72
@ 136   ----------------------------------------
	.byte	W72
@ 137   ----------------------------------------
	.byte	W72
@ 138   ----------------------------------------
	.byte	W72
@ 139   ----------------------------------------
	.byte	W72
@ 140   ----------------------------------------
	.byte	W72
@ 141   ----------------------------------------
	.byte	W72
@ 142   ----------------------------------------
	.byte	W72
@ 143   ----------------------------------------
	.byte	W72
@ 144   ----------------------------------------
	.byte	W72
@ 145   ----------------------------------------
	.byte	W72
@ 146   ----------------------------------------
	.byte	W72
@ 147   ----------------------------------------
	.byte	W72
@ 148   ----------------------------------------
	.byte	W72
@ 149   ----------------------------------------
	.byte	W72
@ 150   ----------------------------------------
	.byte	W72
@ 151   ----------------------------------------
	.byte	W72
@ 152   ----------------------------------------
	.byte	W72
@ 153   ----------------------------------------
	.byte	W72
@ 154   ----------------------------------------
	.byte	W72
@ 155   ----------------------------------------
	.byte	W72
@ 156   ----------------------------------------
	.byte	W72
@ 157   ----------------------------------------
	.byte	W72
@ 158   ----------------------------------------
	.byte	W72
@ 159   ----------------------------------------
	.byte	W72
@ 160   ----------------------------------------
	.byte	W72
@ 161   ----------------------------------------
	.byte	W72
@ 162   ----------------------------------------
	.byte	W72
@ 163   ----------------------------------------
	.byte	W72
@ 164   ----------------------------------------
	.byte	W72
@ 165   ----------------------------------------
	.byte	W72
@ 166   ----------------------------------------
	.byte	W72
@ 167   ----------------------------------------
	.byte	W72
@ 168   ----------------------------------------
	.byte		N68   , Bn1 
	.byte	W72
@ 169   ----------------------------------------
	.byte	W72
@ 170   ----------------------------------------
	.byte	W72
@ 171   ----------------------------------------
	.byte	PATT
	 .word	DarkWastes_11_053
@ 172   ----------------------------------------
	.byte	W72
@ 173   ----------------------------------------
	.byte	W72
@ 174   ----------------------------------------
	.byte	W72
@ 175   ----------------------------------------
	.byte	W72
@ 176   ----------------------------------------
	.byte	W72
@ 177   ----------------------------------------
	.byte	W72
@ 178   ----------------------------------------
	.byte	W72
@ 179   ----------------------------------------
	.byte	W72
@ 180   ----------------------------------------
	.byte	W72
@ 181   ----------------------------------------
	.byte	W72
@ 182   ----------------------------------------
	.byte	W72
@ 183   ----------------------------------------
	.byte	W72
@ 184   ----------------------------------------
	.byte	W72
@ 185   ----------------------------------------
	.byte	W72
@ 186   ----------------------------------------
	.byte	W72
@ 187   ----------------------------------------
	.byte	W72
@ 188   ----------------------------------------
	.byte	W72
@ 189   ----------------------------------------
	.byte	W72
@ 190   ----------------------------------------
	.byte	W72
@ 191   ----------------------------------------
	.byte	W72
@ 192   ----------------------------------------
	.byte	W72
@ 193   ----------------------------------------
	.byte	W72
@ 194   ----------------------------------------
	.byte	W72
@ 195   ----------------------------------------
	.byte	W72
@ 196   ----------------------------------------
	.byte	W72
@ 197   ----------------------------------------
	.byte	W72
@ 198   ----------------------------------------
	.byte	W72
@ 199   ----------------------------------------
	.byte	W72
@ 200   ----------------------------------------
	.byte	W72
@ 201   ----------------------------------------
	.byte	W72
@ 202   ----------------------------------------
	.byte	W72
@ 203   ----------------------------------------
	.byte	W72
@ 204   ----------------------------------------
	.byte	W72
@ 205   ----------------------------------------
	.byte	W72
@ 206   ----------------------------------------
	.byte	W72
@ 207   ----------------------------------------
	.byte	W72
@ 208   ----------------------------------------
	.byte	W72
@ 209   ----------------------------------------
	.byte	W72
@ 210   ----------------------------------------
	.byte	W72
@ 211   ----------------------------------------
	.byte	W72
@ 212   ----------------------------------------
	.byte	W72
@ 213   ----------------------------------------
	.byte	W72
@ 214   ----------------------------------------
	.byte	W72
@ 215   ----------------------------------------
	.byte	W72
@ 216   ----------------------------------------
	.byte	W72
@ 217   ----------------------------------------
	.byte	W72
@ 218   ----------------------------------------
	.byte	W72
@ 219   ----------------------------------------
	.byte	PATT
	 .word	DarkWastes_11_053
@ 220   ----------------------------------------
	.byte		N44   , An1 , v096
	.byte	W48
	.byte	FINE

@**************** Track 12 (Midi-Chn.7) ****************@

DarkWastes_12:
	.byte	KEYSH , DarkWastes_key+0
@ 000   ----------------------------------------
	.byte		VOICE , 13
	.byte		VOL   , 100*DarkWastes_mvl/mxv
	.byte		PAN   , c_v+0
	.byte	W72
@ 001   ----------------------------------------
	.byte	W72
@ 002   ----------------------------------------
	.byte	W72
@ 003   ----------------------------------------
	.byte	W72
@ 004   ----------------------------------------
	.byte	W72
@ 005   ----------------------------------------
	.byte	W72
@ 006   ----------------------------------------
	.byte	W72
@ 007   ----------------------------------------
	.byte	W72
@ 008   ----------------------------------------
	.byte	W72
@ 009   ----------------------------------------
	.byte	W72
@ 010   ----------------------------------------
	.byte	W72
@ 011   ----------------------------------------
	.byte	W72
@ 012   ----------------------------------------
	.byte	W72
@ 013   ----------------------------------------
	.byte	W72
@ 014   ----------------------------------------
	.byte	W72
@ 015   ----------------------------------------
	.byte	W72
@ 016   ----------------------------------------
	.byte	W72
@ 017   ----------------------------------------
	.byte	W72
@ 018   ----------------------------------------
	.byte	W72
@ 019   ----------------------------------------
	.byte	W72
@ 020   ----------------------------------------
	.byte	W72
@ 021   ----------------------------------------
	.byte	W72
@ 022   ----------------------------------------
	.byte	W72
@ 023   ----------------------------------------
	.byte	W72
@ 024   ----------------------------------------
	.byte	W72
@ 025   ----------------------------------------
	.byte	W72
@ 026   ----------------------------------------
	.byte	W72
@ 027   ----------------------------------------
	.byte	W72
@ 028   ----------------------------------------
	.byte	W72
@ 029   ----------------------------------------
	.byte	W72
@ 030   ----------------------------------------
	.byte	W72
@ 031   ----------------------------------------
	.byte	W72
@ 032   ----------------------------------------
	.byte	W72
@ 033   ----------------------------------------
	.byte	W72
@ 034   ----------------------------------------
	.byte	W72
@ 035   ----------------------------------------
	.byte	W72
@ 036   ----------------------------------------
	.byte	W72
@ 037   ----------------------------------------
	.byte	W72
@ 038   ----------------------------------------
	.byte	W72
@ 039   ----------------------------------------
	.byte	W72
@ 040   ----------------------------------------
	.byte	W72
@ 041   ----------------------------------------
	.byte	W72
@ 042   ----------------------------------------
	.byte	W72
@ 043   ----------------------------------------
	.byte	W72
@ 044   ----------------------------------------
	.byte	W72
@ 045   ----------------------------------------
	.byte	W72
@ 046   ----------------------------------------
	.byte	W72
@ 047   ----------------------------------------
	.byte	W72
@ 048   ----------------------------------------
	.byte	W72
@ 049   ----------------------------------------
	.byte	W72
@ 050   ----------------------------------------
	.byte	W72
@ 051   ----------------------------------------
	.byte	W72
@ 052   ----------------------------------------
	.byte	W72
@ 053   ----------------------------------------
	.byte	W72
@ 054   ----------------------------------------
	.byte	W72
@ 055   ----------------------------------------
	.byte	W72
@ 056   ----------------------------------------
	.byte	W72
@ 057   ----------------------------------------
	.byte	W72
@ 058   ----------------------------------------
	.byte	W72
@ 059   ----------------------------------------
	.byte	W72
@ 060   ----------------------------------------
	.byte	W72
@ 061   ----------------------------------------
	.byte	W72
@ 062   ----------------------------------------
	.byte	W72
@ 063   ----------------------------------------
	.byte	W72
@ 064   ----------------------------------------
	.byte	W72
@ 065   ----------------------------------------
	.byte	W72
@ 066   ----------------------------------------
	.byte	W72
@ 067   ----------------------------------------
	.byte	W72
@ 068   ----------------------------------------
	.byte	W72
@ 069   ----------------------------------------
	.byte	W72
@ 070   ----------------------------------------
DarkWastes_12_070:
	.byte		N11   , En4 , v100
	.byte	W12
	.byte		        An4 
	.byte	W12
	.byte		        Fn4 
	.byte	W12
	.byte		        Cn5 
	.byte	W12
	.byte		        An4 
	.byte	W12
	.byte		        En5 
	.byte	W12
	.byte	PEND
@ 071   ----------------------------------------
	.byte	PATT
	 .word	DarkWastes_12_070
@ 072   ----------------------------------------
	.byte	PATT
	 .word	DarkWastes_12_070
@ 073   ----------------------------------------
	.byte	PATT
	 .word	DarkWastes_12_070
@ 074   ----------------------------------------
DarkWastes_12_074:
	.byte		N11   , En4 , v100
	.byte	W12
	.byte		        Bn4 
	.byte	W12
	.byte		        Gn4 
	.byte	W12
	.byte		        Dn5 
	.byte	W12
	.byte		        Bn4 
	.byte	W12
	.byte		        En5 
	.byte	W12
	.byte	PEND
@ 075   ----------------------------------------
	.byte	PATT
	 .word	DarkWastes_12_074
@ 076   ----------------------------------------
	.byte	PATT
	 .word	DarkWastes_12_074
@ 077   ----------------------------------------
	.byte	PATT
	 .word	DarkWastes_12_074
@ 078   ----------------------------------------
	.byte	PATT
	 .word	DarkWastes_12_070
@ 079   ----------------------------------------
	.byte	PATT
	 .word	DarkWastes_12_070
@ 080   ----------------------------------------
	.byte	PATT
	 .word	DarkWastes_12_070
@ 081   ----------------------------------------
	.byte	PATT
	 .word	DarkWastes_12_070
@ 082   ----------------------------------------
	.byte	PATT
	 .word	DarkWastes_12_074
@ 083   ----------------------------------------
	.byte	PATT
	 .word	DarkWastes_12_074
@ 084   ----------------------------------------
	.byte	PATT
	 .word	DarkWastes_12_074
@ 085   ----------------------------------------
	.byte	PATT
	 .word	DarkWastes_12_074
@ 086   ----------------------------------------
	.byte	PATT
	 .word	DarkWastes_12_070
@ 087   ----------------------------------------
	.byte	PATT
	 .word	DarkWastes_12_070
@ 088   ----------------------------------------
	.byte	PATT
	 .word	DarkWastes_12_070
@ 089   ----------------------------------------
	.byte	PATT
	 .word	DarkWastes_12_070
@ 090   ----------------------------------------
	.byte	PATT
	 .word	DarkWastes_12_074
@ 091   ----------------------------------------
	.byte	PATT
	 .word	DarkWastes_12_074
@ 092   ----------------------------------------
	.byte	PATT
	 .word	DarkWastes_12_074
@ 093   ----------------------------------------
	.byte	PATT
	 .word	DarkWastes_12_074
@ 094   ----------------------------------------
	.byte	PATT
	 .word	DarkWastes_12_070
@ 095   ----------------------------------------
	.byte	PATT
	 .word	DarkWastes_12_070
@ 096   ----------------------------------------
	.byte	PATT
	 .word	DarkWastes_12_070
@ 097   ----------------------------------------
	.byte	PATT
	 .word	DarkWastes_12_070
@ 098   ----------------------------------------
	.byte	W72
@ 099   ----------------------------------------
	.byte	W72
@ 100   ----------------------------------------
	.byte	W72
@ 101   ----------------------------------------
	.byte	W72
@ 102   ----------------------------------------
	.byte	W72
@ 103   ----------------------------------------
	.byte	W72
@ 104   ----------------------------------------
	.byte	W72
@ 105   ----------------------------------------
	.byte	W72
@ 106   ----------------------------------------
	.byte	W72
@ 107   ----------------------------------------
	.byte	W72
@ 108   ----------------------------------------
	.byte	W72
@ 109   ----------------------------------------
	.byte	W72
@ 110   ----------------------------------------
	.byte	W72
@ 111   ----------------------------------------
	.byte	W72
@ 112   ----------------------------------------
	.byte	W72
@ 113   ----------------------------------------
	.byte	W72
@ 114   ----------------------------------------
	.byte	W72
@ 115   ----------------------------------------
	.byte	W72
@ 116   ----------------------------------------
	.byte	W72
@ 117   ----------------------------------------
	.byte	W72
@ 118   ----------------------------------------
	.byte	W72
@ 119   ----------------------------------------
	.byte	W72
@ 120   ----------------------------------------
	.byte	W72
@ 121   ----------------------------------------
	.byte	W72
@ 122   ----------------------------------------
	.byte	W72
@ 123   ----------------------------------------
	.byte	W72
@ 124   ----------------------------------------
	.byte	W72
@ 125   ----------------------------------------
	.byte	W72
@ 126   ----------------------------------------
	.byte	W72
@ 127   ----------------------------------------
	.byte	W72
@ 128   ----------------------------------------
	.byte	W72
@ 129   ----------------------------------------
	.byte	W72
@ 130   ----------------------------------------
	.byte	W72
@ 131   ----------------------------------------
	.byte	W72
@ 132   ----------------------------------------
	.byte	W72
@ 133   ----------------------------------------
	.byte	W72
@ 134   ----------------------------------------
	.byte	W72
@ 135   ----------------------------------------
	.byte	W72
@ 136   ----------------------------------------
	.byte	W72
@ 137   ----------------------------------------
	.byte	W72
@ 138   ----------------------------------------
	.byte	W72
@ 139   ----------------------------------------
	.byte	W72
@ 140   ----------------------------------------
	.byte	W72
@ 141   ----------------------------------------
	.byte	W72
@ 142   ----------------------------------------
	.byte	W72
@ 143   ----------------------------------------
	.byte	W72
@ 144   ----------------------------------------
	.byte	W72
@ 145   ----------------------------------------
	.byte	W72
@ 146   ----------------------------------------
	.byte	W72
@ 147   ----------------------------------------
	.byte	W72
@ 148   ----------------------------------------
	.byte	W72
@ 149   ----------------------------------------
	.byte	W72
@ 150   ----------------------------------------
	.byte	W72
@ 151   ----------------------------------------
	.byte	W72
@ 152   ----------------------------------------
	.byte	W72
@ 153   ----------------------------------------
	.byte	W72
@ 154   ----------------------------------------
	.byte	W72
@ 155   ----------------------------------------
	.byte	W72
@ 156   ----------------------------------------
	.byte	W72
@ 157   ----------------------------------------
	.byte	W72
@ 158   ----------------------------------------
	.byte	W72
@ 159   ----------------------------------------
	.byte	W72
@ 160   ----------------------------------------
	.byte	W72
@ 161   ----------------------------------------
	.byte	W72
@ 162   ----------------------------------------
	.byte	W72
@ 163   ----------------------------------------
	.byte	W72
@ 164   ----------------------------------------
	.byte	W72
@ 165   ----------------------------------------
	.byte	W72
@ 166   ----------------------------------------
	.byte	W72
@ 167   ----------------------------------------
	.byte	W72
@ 168   ----------------------------------------
	.byte	W72
@ 169   ----------------------------------------
	.byte	W72
@ 170   ----------------------------------------
	.byte	W72
@ 171   ----------------------------------------
	.byte	W72
@ 172   ----------------------------------------
	.byte	W72
@ 173   ----------------------------------------
	.byte	W72
@ 174   ----------------------------------------
	.byte	W72
@ 175   ----------------------------------------
	.byte	W72
@ 176   ----------------------------------------
	.byte	W72
@ 177   ----------------------------------------
	.byte	W72
@ 178   ----------------------------------------
	.byte	W72
@ 179   ----------------------------------------
	.byte	W72
@ 180   ----------------------------------------
	.byte	W72
@ 181   ----------------------------------------
	.byte	W72
@ 182   ----------------------------------------
	.byte	W72
@ 183   ----------------------------------------
	.byte	W72
@ 184   ----------------------------------------
	.byte	W72
@ 185   ----------------------------------------
	.byte	W72
@ 186   ----------------------------------------
	.byte	W72
@ 187   ----------------------------------------
	.byte	W72
@ 188   ----------------------------------------
	.byte	PATT
	 .word	DarkWastes_12_070
@ 189   ----------------------------------------
	.byte	PATT
	 .word	DarkWastes_12_070
@ 190   ----------------------------------------
	.byte	PATT
	 .word	DarkWastes_12_070
@ 191   ----------------------------------------
	.byte	PATT
	 .word	DarkWastes_12_070
@ 192   ----------------------------------------
	.byte	PATT
	 .word	DarkWastes_12_074
@ 193   ----------------------------------------
	.byte	PATT
	 .word	DarkWastes_12_074
@ 194   ----------------------------------------
	.byte	PATT
	 .word	DarkWastes_12_074
@ 195   ----------------------------------------
	.byte	PATT
	 .word	DarkWastes_12_074
@ 196   ----------------------------------------
	.byte	PATT
	 .word	DarkWastes_12_070
@ 197   ----------------------------------------
	.byte	PATT
	 .word	DarkWastes_12_070
@ 198   ----------------------------------------
	.byte	PATT
	 .word	DarkWastes_12_070
@ 199   ----------------------------------------
	.byte	PATT
	 .word	DarkWastes_12_070
@ 200   ----------------------------------------
	.byte	PATT
	 .word	DarkWastes_12_074
@ 201   ----------------------------------------
	.byte	PATT
	 .word	DarkWastes_12_074
@ 202   ----------------------------------------
	.byte	PATT
	 .word	DarkWastes_12_074
@ 203   ----------------------------------------
	.byte	PATT
	 .word	DarkWastes_12_074
@ 204   ----------------------------------------
	.byte	PATT
	 .word	DarkWastes_12_070
@ 205   ----------------------------------------
	.byte	PATT
	 .word	DarkWastes_12_070
@ 206   ----------------------------------------
	.byte	PATT
	 .word	DarkWastes_12_070
@ 207   ----------------------------------------
	.byte	PATT
	 .word	DarkWastes_12_070
@ 208   ----------------------------------------
	.byte	PATT
	 .word	DarkWastes_12_074
@ 209   ----------------------------------------
	.byte	PATT
	 .word	DarkWastes_12_074
@ 210   ----------------------------------------
	.byte	PATT
	 .word	DarkWastes_12_074
@ 211   ----------------------------------------
	.byte	PATT
	 .word	DarkWastes_12_074
@ 212   ----------------------------------------
	.byte	PATT
	 .word	DarkWastes_12_070
@ 213   ----------------------------------------
	.byte	PATT
	 .word	DarkWastes_12_070
@ 214   ----------------------------------------
	.byte	PATT
	 .word	DarkWastes_12_070
@ 215   ----------------------------------------
	.byte	PATT
	 .word	DarkWastes_12_070
@ 216   ----------------------------------------
	.byte	W72
@ 217   ----------------------------------------
	.byte	W72
@ 218   ----------------------------------------
	.byte	W72
@ 219   ----------------------------------------
	.byte	W68
	.byte	FINE

@******************************************************@
	.align	2

DarkWastes:
	.byte	12	@ NumTrks
	.byte	0	@ NumBlks
	.byte	DarkWastes_pri	@ Priority
	.byte	DarkWastes_rev	@ Reverb.

	.word	DarkWastes_grp

	.word	DarkWastes_1
	.word	DarkWastes_2
	.word	DarkWastes_3
	.word	DarkWastes_4
	.word	DarkWastes_5
	.word	DarkWastes_6
	.word	DarkWastes_7
	.word	DarkWastes_8
	.word	DarkWastes_9
	.word	DarkWastes_10
	.word	DarkWastes_11
	.word	DarkWastes_12

	.end
